<?xml version="1.0" encoding="UTF-8" standalone="no"?>
<!-- Created with Inkscape (http://www.inkscape.org/) -->

<svg
   width="45.371391mm"
   height="25.47751mm"
   viewBox="0 0 45.371391 25.47751"
   version="1.1"
   id="svg1"
   inkscape:version="1.4.3 (unknown)"
   sodipodi:docname="back-header.svg"
   xmlns:inkscape="http://www.inkscape.org/namespaces/inkscape"
   xmlns:sodipodi="http://sodipodi.sourceforge.net/DTD/sodipodi-0.dtd"
   xmlns="http://www.w3.org/2000/svg"
   xmlns:svg="http://www.w3.org/2000/svg">
  <sodipodi:namedview
     id="namedview1"
     pagecolor="#ffffff"
     bordercolor="#000000"
     borderopacity="0.25"
     inkscape:showpageshadow="2"
     inkscape:pageopacity="0.0"
     inkscape:pagecheckerboard="0"
     inkscape:deskcolor="#d1d1d1"
     inkscape:document-units="mm"
     inkscape:zoom="14.269684"
     inkscape:cx="85.741212"
     inkscape:cy="48.179063"
     inkscape:window-width="3840"
     inkscape:window-height="2076"
     inkscape:window-x="0"
     inkscape:window-y="0"
     inkscape:window-maximized="1"
     inkscape:current-layer="layer1" />
  <defs
     id="defs1" />
  <g
     inkscape:label="Layer 1"
     inkscape:groupmode="layer"
     id="layer1"
     transform="translate(-98.954167,-116.41667)">
    <path
       id="path2-9"
       style="fill:#000000;fill-opacity:1;stroke-width:0.264584"
       inkscape:label="tt-logo"
       d="m 110.70435,116.41667 c -1.67042,0 -3.14922,0.82293 -4.05763,2.08514 -0.29654,0.41322 -0.53312,0.87149 -0.69453,1.36736 h 0.8108 1.95596 v 3.38429 h 1.47484 v -0.91261 h 0.85215 v 3.29799 c -0.11261,0.0113 -0.22884,0.015 -0.3452,0.015 -2.33484,0 -4.23437,-1.90036 -4.23437,-4.23695 0,-0.38692 0.0528,-0.75896 0.15038,-1.11208 h -0.78858 c -0.0826,0.35687 -0.12351,0.72891 -0.12351,1.11208 0,2.75733 2.24082,4.99969 4.99608,4.99969 0.11636,0 0.22883,-0.004 0.3452,-0.0114 0.0638,-0.004 0.12789,-0.0111 0.19171,-0.0186 h 0.015 c 0.44294,-0.0489 0.867,-0.15384 1.26866,-0.31161 v -3.73414 h 1.449 v -1.36736 h -3.77238 v -1.10846 h 1.44488 v -1.36735 h -4.00493 c 0.76952,-0.81142 1.86153,-1.31827 3.06648,-1.31827 2.33484,0 4.23437,1.90088 4.23437,4.23747 0,1.50639 -0.78837,2.83245 -1.97456,3.58376 v 0.87901 c 1.62538,-0.82644 2.74041,-2.51686 2.74041,-4.46277 -0.004,-2.75732 -2.24496,-5.00021 -5.00022,-5.00021 z m 17.42168,0.10542 c -0.12625,0 -0.24735,0.019 -0.36329,0.0512 l 0.8568,0.76222 -0.95963,1.06557 -0.87592,-0.77618 c -0.0179,0.0864 -0.0268,0.17529 -0.0269,0.26614 a 1.3698825,1.3698825 0 0 0 1.36891,1.3689 1.3430221,1.3430221 0 0 0 0.41393,-0.0651 l 1.10691,0.97979 a 2.9994161,2.9994161 0 0 1 0.90123,-1.13688 l -1.06763,-0.94568 c 0.01,-0.0657 0.0145,-0.13289 0.0145,-0.20154 v -0.009 a 1.3698825,1.3698825 0 0 0 -1.36891,-1.3596 z m 8.00623,0 a 1.3698825,1.3698825 0 0 0 -1.36891,1.3596 v 0.009 c 0,0.0686 0.005,0.13588 0.0145,0.20154 l -1.06764,0.94568 a 2.9994161,2.9994161 0 0 1 0.90124,1.13688 l 1.10743,-0.97979 c 0.13073,0.0416 0.26882,0.0646 0.41341,0.0646 a 1.3698825,1.3698825 0 0 0 1.34204,-1.63453 l -0.8754,0.77618 -0.96015,-1.06557 0.85731,-0.76222 a 1.3430221,1.3430221 0 0 0 -0.3638,-0.0512 z m -15.94011,1.78077 a 1.9953228,1.9953228 0 0 0 -1.41077,0.58394 1.9953228,1.9953228 0 0 0 0,2.82205 l 2.82153,2.82153 2.82154,-2.82153 a 1.9953227,1.9953227 0 0 0 0,-2.82153 1.9953227,1.9953227 0 0 0 -2.82154,0 1.9953228,1.9953228 0 0 0 -1.41076,-0.58446 z m 11.93725,0.42684 c -1.41197,0 -2.55746,1.26894 -2.55746,2.83446 0,0.96787 0.43956,1.82246 1.10794,2.3337 -0.0443,0.0748 -0.0703,0.16232 -0.0703,0.25632 0,0.27532 0.21949,0.49919 0.48989,0.49919 a 0.49467981,0.49467981 0 0 0 0.48628,-0.5581 h 0.0672 a 0.48169726,0.48169726 0 1 0 0.95188,0 h 0.0863 a 0.48169726,0.48169726 0 1 0 0.87849,-0.18914 c 0.6742,-0.51035 1.11777,-1.36918 1.11777,-2.34197 0,-1.56552 -1.14603,-2.83446 -2.55799,-2.83446 z m -1.09916,2.1146 a 0.80581325,0.80581325 0 0 1 0.41083,0.11834 0.89534807,0.89534807 0 0 1 0.25012,0.29559 c 0.0542,0.14146 -0.0213,0.30299 -0.1354,0.39119 -0.0868,0.0582 -0.17078,0.12607 -0.27285,0.15607 -0.1258,0.0416 -0.24399,0.10006 -0.36173,0.15916 a 0.22383701,0.22383701 0 0 0 -0.11576,0.14573 c -0.0409,0.0663 -0.003,0.15394 -0.0481,0.21394 -0.0671,0.0493 -0.14358,-0.009 -0.19688,-0.0517 -0.11505,-0.0851 -0.21638,-0.20259 -0.24598,-0.34675 -0.0229,-0.12176 -0.0479,-0.24607 -0.0336,-0.37052 0.002,-0.15042 0.0737,-0.29008 0.16639,-0.40514 0.10565,-0.14326 0.25898,-0.26751 0.44029,-0.28991 a 0.67151106,0.67151106 0 0 1 0.14262,-0.016 z m 2.19832,0 a 0.67151106,0.67151106 0 0 1 0.14263,0.016 c 0.18131,0.0228 0.33411,0.14665 0.43976,0.28991 0.0926,0.11505 0.16492,0.25472 0.16692,0.40514 0.0143,0.12446 -0.0108,0.24875 -0.0336,0.37052 -0.0296,0.14415 -0.13101,0.26165 -0.2465,0.34675 -0.0528,0.0429 -0.1298,0.10088 -0.1974,0.0517 -0.0445,-0.06 -0.007,-0.14814 -0.0475,-0.21394 a 0.22383701,0.22383701 0 0 0 -0.11524,-0.14573 c -0.11774,-0.0591 -0.23639,-0.11745 -0.36174,-0.15865 -0.10207,-0.0304 -0.18605,-0.0984 -0.27285,-0.15658 -0.11415,-0.0882 -0.19011,-0.24972 -0.13591,-0.39119 0.0622,-0.11371 0.14491,-0.21909 0.25012,-0.29559 0.12266,-0.0734 0.26807,-0.11878 0.41134,-0.11834 z m -1.09709,1.45469 c 0.002,-2.2e-4 0.004,-4e-5 0.006,0 0.13698,0.004 0.2721,0.57199 0.2372,0.79582 -0.11415,0.33621 -0.0926,-0.21982 -0.2372,-0.22582 -0.15086,4.4e-4 -0.17853,0.54918 -0.25683,0.22686 -0.0247,-0.2393 0.12725,-0.7828 0.25115,-0.79686 z m -2.57865,0.41703 -1.0325,0.91519 a 1.3685395,1.3685395 0 0 0 -1.7632,1.29967 v 0.0114 c 0,0.0848 0.008,0.16746 0.0233,0.24805 l 0.88728,-0.78755 0.95808,1.05834 -0.89245,0.79271 a 1.3698825,1.3698825 0 0 0 1.76165,-1.31155 1.3430221,1.3430221 0 0 0 -0.0196,-0.22479 l 0.89245,-0.79013 a 3.0710438,3.0710438 0 0 1 -0.81493,-1.2113 z m 5.15214,0 a 3.0710438,3.0710438 0 0 1 -0.81391,1.2113 l 0.89194,0.79013 a 1.3430221,1.3430221 0 0 0 -0.0196,0.22479 1.3698825,1.3698825 0 0 0 1.76165,1.31155 l -0.89194,-0.79271 0.95809,-1.05885 0.88676,0.78806 c 0.0152,-0.0806 0.0229,-0.16329 0.0233,-0.24805 v -0.0114 a 1.3685395,1.3685395 0 0 0 -1.36891,-1.35754 c -0.13729,5.9e-4 -0.26843,0.02 -0.39378,0.0579 z m -23.21667,5.70095 c -0.0906,0 -0.1653,0.0284 -0.2248,0.0853 -0.0569,0.0543 -0.0858,0.12289 -0.0858,0.20568 0,0.0802 0.0289,0.14875 0.0858,0.20567 0.0595,0.0569 0.13425,0.0853 0.2248,0.0853 0.0931,0 0.16839,-0.0283 0.2253,-0.0853 0.0569,-0.0595 0.0853,-0.13167 0.0853,-0.21704 0,-0.0802 -0.0299,-0.14618 -0.0894,-0.19792 -0.0569,-0.0543 -0.13063,-0.0816 -0.22117,-0.0816 z m -2.88303,0.27957 v 0.42684 h 0.9002 v 2.28927 h 0.50436 v -2.28927 h 0.90021 v -0.42684 z m 9.37927,0 v 0.42684 h 0.9002 v 2.28927 h 0.50437 v -2.28927 h 0.9002 v -0.42684 z m 15.17272,0.18603 v 0.45786 h -0.34158 v 0.38809 h 0.34158 v 1.01285 c 0,0.23025 0.0624,0.405 0.18655,0.524 0.12418,0.11642 0.29996,0.17467 0.52762,0.17467 0.088,0 0.17353,-0.0119 0.25631,-0.0351 0.0828,-0.0233 0.15237,-0.0583 0.20929,-0.1049 l -0.13591,-0.3452 c -0.0724,0.0569 -0.16264,0.0853 -0.2713,0.0853 -0.0906,0 -0.16168,-0.0273 -0.21342,-0.0817 -0.0492,-0.0543 -0.0739,-0.13061 -0.0739,-0.22892 v -1.00097 h 0.555 v -0.38809 h -0.555 v -0.45786 z m -19.61586,0.4346 c -0.18109,0 -0.34192,0.0361 -0.48162,0.10852 -0.0923,0.047 -0.16958,0.10835 -0.23255,0.18345 v -0.26871 h -0.46199 v 2.07222 h 0.48525 v -1.04748 c 0,-0.1397 0.0232,-0.25517 0.0698,-0.34572 0.0491,-0.0931 0.11771,-0.16272 0.20567,-0.20929 0.088,-0.0466 0.189,-0.0698 0.30283,-0.0698 0.15522,0 0.27532,0.0448 0.3607,0.13539 0.088,0.0906 0.13229,0.22767 0.13229,0.41135 v 1.12551 h 0.48472 v -1.18752 c 0,-0.20955 -0.0376,-0.38018 -0.11265,-0.51212 -0.075,-0.13452 -0.17812,-0.23401 -0.31006,-0.29869 -0.12935,-0.0647 -0.27678,-0.0971 -0.44235,-0.0971 z m 7.7649,0 c -0.16557,0 -0.32588,0.0222 -0.48111,0.0661 -0.15263,0.0414 -0.2846,0.10479 -0.39584,0.19017 l 0.19017,0.35295 c 0.0776,-0.0647 0.17195,-0.1152 0.28319,-0.15142 0.11383,-0.0362 0.22878,-0.0543 0.3452,-0.0543 0.17333,0 0.30271,0.0402 0.38809,0.12041 0.0854,0.0776 0.12815,0.18741 0.12815,0.3297 v 0.031 h -0.53536 c -0.20955,0 -0.37812,0.0273 -0.50488,0.0816 -0.12677,0.0543 -0.21852,0.12804 -0.27544,0.22118 -0.0543,0.0931 -0.0811,0.19777 -0.0811,0.31419 0,0.119 0.0309,0.22622 0.093,0.32194 0.0647,0.0931 0.15488,0.16685 0.2713,0.22118 0.11642,0.0517 0.2525,0.078 0.40773,0.078 0.18368,0 0.33471,-0.034 0.45371,-0.10129 0.0838,-0.0463 0.14976,-0.10563 0.19793,-0.17776 v 0.25166 h 0.45837 v -1.2144 c 0,-0.30009 -0.083,-0.52123 -0.24857,-0.66352 -0.16298,-0.14488 -0.39443,-0.21756 -0.69453,-0.21756 z m 2.7125,0 c -0.17592,0 -0.33263,0.0387 -0.46974,0.11627 -0.0828,0.0453 -0.15499,0.10526 -0.21704,0.17984 v -0.27285 h -0.46199 v 2.82515 h 0.48524 v -1.00563 c 0.059,0.0663 0.12604,0.12057 0.20154,0.1633 0.1397,0.0776 0.29383,0.11679 0.46199,0.11679 0.20437,0 0.38428,-0.0443 0.5395,-0.13229 0.15781,-0.088 0.28204,-0.21065 0.37259,-0.36846 0.0931,-0.16039 0.13952,-0.34803 0.13952,-0.56275 0,-0.21473 -0.0464,-0.40081 -0.13952,-0.55862 -0.0906,-0.15781 -0.21478,-0.28101 -0.37259,-0.36897 -0.15522,-0.088 -0.33513,-0.13178 -0.5395,-0.13178 z m 2.4138,0 c -0.20696,0 -0.39202,0.0454 -0.555,0.13591 -0.1604,0.0906 -0.28721,0.21581 -0.38034,0.3762 -0.0905,0.15781 -0.13591,0.34029 -0.13591,0.54726 0,0.20437 0.0464,0.38686 0.13953,0.54725 0.0957,0.1604 0.22923,0.28721 0.39997,0.38034 0.17333,0.0906 0.37489,0.13591 0.60513,0.13591 0.1811,0 0.34141,-0.0289 0.48111,-0.0858 0.14229,-0.0595 0.26033,-0.14353 0.35347,-0.25218 l -0.25993,-0.29869 c -0.0724,0.0776 -0.15543,0.13483 -0.24857,0.17104 -0.0931,0.0362 -0.19777,0.0543 -0.31419,0.0543 -0.13453,0 -0.2536,-0.0263 -0.35709,-0.078 -0.10348,-0.0517 -0.18389,-0.12545 -0.24081,-0.22117 -0.0359,-0.0603 -0.0601,-0.1263 -0.0734,-0.19792 h 1.62574 c 0.003,-0.0233 0.004,-0.0475 0.004,-0.0734 0.003,-0.0259 0.004,-0.0491 0.004,-0.0698 0,-0.21731 -0.0454,-0.40649 -0.1359,-0.56689 -0.0906,-0.16039 -0.21478,-0.28462 -0.37259,-0.37258 -0.15781,-0.088 -0.3372,-0.13178 -0.53899,-0.13178 z m 2.44481,0 c -0.21213,0 -0.40132,0.0454 -0.56689,0.13591 -0.16557,0.0906 -0.29598,0.21581 -0.3917,0.3762 -0.0957,0.15781 -0.14366,0.34029 -0.14366,0.54726 0,0.20437 0.0479,0.38686 0.14366,0.54725 0.0957,0.1604 0.22613,0.28721 0.3917,0.38034 0.16557,0.0906 0.35476,0.13591 0.56689,0.13591 0.21473,0 0.40443,-0.0454 0.57,-0.13591 0.16815,-0.0931 0.29909,-0.21994 0.39222,-0.38034 0.0957,-0.16039 0.14366,-0.34288 0.14366,-0.54725 0,-0.20955 -0.0479,-0.39306 -0.14366,-0.55087 -0.0931,-0.15781 -0.22407,-0.28204 -0.39222,-0.37259 -0.16557,-0.0906 -0.35527,-0.13591 -0.57,-0.13591 z m -17.63354,0.0233 v 2.07222 h 0.48524 v -2.07222 z m 3.39152,0 0.90589,2.07842 -0.0367,0.0832 c -0.0466,0.10348 -0.0971,0.1772 -0.15141,0.22118 -0.0543,0.044 -0.12547,0.0656 -0.21343,0.0656 -0.0647,0 -0.12808,-0.0129 -0.19017,-0.0387 -0.0621,-0.0259 -0.11724,-0.0604 -0.1664,-0.10439 l -0.1943,0.35657 c 0.0673,0.0595 0.15129,0.10641 0.25218,0.14004 0.1009,0.0336 0.20193,0.0501 0.30283,0.0501 0.11641,0 0.2226,-0.018 0.31832,-0.0543 0.0983,-0.0362 0.18594,-0.0996 0.26355,-0.19017 0.0802,-0.0906 0.15288,-0.21323 0.21756,-0.36845 l 0.96997,-2.23914 h -0.46561 l -0.65629,1.53272 -0.65164,-1.53272 z m 15.798,0 v 1.18339 c 0,0.20696 0.0376,0.37913 0.11266,0.51624 0.075,0.13453 0.17966,0.23556 0.31419,0.30283 0.13453,0.0647 0.28969,0.0971 0.4656,0.0971 0.1604,0 0.30783,-0.0351 0.44235,-0.1049 0.0893,-0.0481 0.16453,-0.10961 0.22531,-0.18501 v 0.26252 h 0.46147 v -2.07222 h -0.48524 v 1.04799 c 0,0.13712 -0.0242,0.25207 -0.0734,0.3452 -0.0466,0.0931 -0.11255,0.16273 -0.19792,0.20929 -0.0828,0.0466 -0.18124,0.0703 -0.29507,0.0703 -0.15522,0 -0.27533,-0.0454 -0.3607,-0.13591 -0.0828,-0.0931 -0.12454,-0.23283 -0.12454,-0.41909 v -1.11776 z m -4.00079,0.36483 c 0.11642,0 0.21848,0.0258 0.30644,0.0775 0.0906,0.0517 0.16169,0.12287 0.21343,0.21342 0.0366,0.064 0.0593,0.13516 0.0687,0.21342 h -1.17926 c 0.0106,-0.0777 0.033,-0.14731 0.0667,-0.20929 0.0517,-0.0931 0.12133,-0.16581 0.20929,-0.21755 0.0906,-0.0517 0.19571,-0.0775 0.31471,-0.0775 z m -2.46806,0.0233 c 0.11641,0 0.21951,0.0258 0.31005,0.0775 0.0931,0.0517 0.16685,0.127 0.22118,0.22531 0.0543,0.0957 0.0816,0.21067 0.0816,0.3452 0,0.13194 -0.0273,0.24689 -0.0816,0.3452 -0.0543,0.0983 -0.12804,0.17357 -0.22118,0.22531 -0.0905,0.0517 -0.19364,0.0775 -0.31005,0.0775 -0.11642,0 -0.22158,-0.0258 -0.31471,-0.0775 -0.0931,-0.0517 -0.16685,-0.12701 -0.22118,-0.22531 -0.0543,-0.0983 -0.0811,-0.21326 -0.0811,-0.3452 0,-0.13453 0.0268,-0.24948 0.0811,-0.3452 0.0543,-0.0983 0.12804,-0.17357 0.22118,-0.22531 0.0931,-0.0517 0.19829,-0.0775 0.31471,-0.0775 z m 4.91649,0 c 0.11642,0 0.22106,0.0258 0.31419,0.0775 0.0931,0.0517 0.16582,0.127 0.21756,0.22531 0.0543,0.0957 0.0816,0.21067 0.0816,0.3452 0,0.13194 -0.0273,0.24689 -0.0816,0.3452 -0.0517,0.0983 -0.12442,0.17357 -0.21756,0.22531 -0.0931,0.0517 -0.1988,0.0775 -0.31781,0.0775 -0.11641,0 -0.22157,-0.0258 -0.3147,-0.0775 -0.0906,-0.0517 -0.16272,-0.12701 -0.21705,-0.22531 -0.0543,-0.0983 -0.0816,-0.21326 -0.0816,-0.3452 0,-0.13453 0.0273,-0.24948 0.0816,-0.3452 0.0543,-0.0983 0.1265,-0.17357 0.21705,-0.22531 0.0931,-0.0517 0.19932,-0.0775 0.31832,-0.0775 z m -7.61762,0.7953 h 0.50074 v 0.24081 c -0.0414,0.10607 -0.10995,0.18648 -0.20567,0.24081 -0.0931,0.0543 -0.19932,0.0811 -0.31833,0.0811 -0.12417,0 -0.22108,-0.0258 -0.29093,-0.0775 -0.0698,-0.0517 -0.10491,-0.12133 -0.10491,-0.20929 0,-0.0776 0.0283,-0.14256 0.0853,-0.19431 0.0569,-0.0543 0.16826,-0.0816 0.33383,-0.0816 z m -14.61823,2.86029 v 2.87941 h 0.48524 v -0.54674 l 0.3607,-0.34055 0.71831,0.88729 h 0.58962 l -0.94619,-1.20406 0.86455,-0.86817 h -0.58188 l -1.00511,0.92914 v -1.73632 z m 6.32933,0 v 1.06195 c -0.0585,-0.0662 -0.12553,-0.12016 -0.20154,-0.16175 -0.13711,-0.0776 -0.29227,-0.11627 -0.4656,-0.11627 -0.19921,0 -0.37911,0.0438 -0.53951,0.13177 -0.1578,0.088 -0.28204,0.21065 -0.37258,0.36846 -0.0905,0.15781 -0.13591,0.34441 -0.13591,0.55913 0,0.21473 0.0454,0.40082 0.13591,0.55863 0.0905,0.15781 0.21478,0.28204 0.37258,0.37258 0.1604,0.088 0.3403,0.13178 0.53951,0.13178 0.1785,0 0.33624,-0.0387 0.47335,-0.11627 0.0817,-0.0462 0.15285,-0.10603 0.21343,-0.17984 v 0.26924 h 0.46147 v -2.87941 z m 22.9495,0.12402 c -0.22248,0 -0.42404,0.0402 -0.60513,0.12041 -0.1785,0.0776 -0.32078,0.1874 -0.42685,0.32969 l 0.35295,0.27182 c 0.0776,-0.0957 0.16989,-0.16686 0.27596,-0.21342 0.10865,-0.0466 0.22876,-0.0698 0.3607,-0.0698 0.16557,0 0.29083,0.0345 0.3762,0.10439 0.0854,0.0673 0.12816,0.16314 0.12816,0.28732 0,0.0491 -0.008,0.10225 -0.0232,0.15916 -0.0129,0.0543 -0.0413,0.11361 -0.0853,0.17829 -0.044,0.0647 -0.11151,0.13993 -0.20205,0.22531 l -1.07849,1.02422 v 0.33797 h 2.00246 v -0.42685 h -1.28261 l 0.7276,-0.69091 c 0.12418,-0.11901 0.21852,-0.22623 0.28319,-0.32195 0.0647,-0.0957 0.10849,-0.18644 0.13178,-0.27182 0.0233,-0.088 0.0351,-0.1761 0.0351,-0.26406 0,-0.1604 -0.0402,-0.29855 -0.12041,-0.41496 -0.0776,-0.11642 -0.18999,-0.2056 -0.33745,-0.26769 -0.14487,-0.0647 -0.31601,-0.0971 -0.51263,-0.0971 z m 2.49908,0 c -0.21473,0 -0.40855,0.0546 -0.58188,0.1633 -0.17075,0.10865 -0.30529,0.26742 -0.40359,0.47697 -0.0983,0.20696 -0.14728,0.45903 -0.14728,0.75654 0,0.29751 0.049,0.55113 0.14728,0.76068 0.0983,0.20696 0.23284,0.3647 0.40359,0.47336 0.17333,0.10865 0.36715,0.16329 0.58188,0.16329 0.21731,0 0.41164,-0.0546 0.58239,-0.16329 0.17074,-0.10866 0.30528,-0.2664 0.40359,-0.47336 0.1009,-0.20955 0.15141,-0.46317 0.15141,-0.76068 0,-0.29751 -0.0505,-0.54958 -0.15141,-0.75654 -0.0983,-0.20955 -0.23285,-0.36832 -0.40359,-0.47697 -0.17075,-0.10866 -0.36508,-0.1633 -0.58239,-0.1633 z m 2.36729,0 c -0.22248,0 -0.42404,0.0402 -0.60513,0.12041 -0.1785,0.0776 -0.32078,0.1874 -0.42685,0.32969 l 0.35295,0.27182 c 0.0776,-0.0957 0.16937,-0.16686 0.27544,-0.21342 0.10866,-0.0466 0.22928,-0.0698 0.36122,-0.0698 0.16557,0 0.29083,0.0345 0.3762,0.10439 0.0854,0.0673 0.12816,0.16314 0.12816,0.28732 0,0.0491 -0.008,0.10225 -0.0233,0.15916 -0.0129,0.0543 -0.0413,0.11361 -0.0853,0.17829 -0.044,0.0647 -0.11151,0.13993 -0.20206,0.22531 l -1.079,1.02422 v 0.33797 h 2.00246 v -0.42685 h -1.28209 l 0.72709,-0.69091 c 0.12418,-0.11901 0.21903,-0.22623 0.2837,-0.32195 0.0647,-0.0957 0.10849,-0.18644 0.13178,-0.27182 0.0233,-0.088 0.0351,-0.1761 0.0351,-0.26406 0,-0.1604 -0.0402,-0.29855 -0.12041,-0.41496 -0.0776,-0.11642 -0.1905,-0.2056 -0.33796,-0.26769 -0.14488,-0.0647 -0.3155,-0.0971 -0.51212,-0.0971 z m 2.697,0 c -0.2613,0 -0.49275,0.0557 -0.69454,0.16691 -0.1992,0.11125 -0.3559,0.27414 -0.46973,0.48886 -0.11125,0.21473 -0.16692,0.47762 -0.16692,0.78807 0,0.29233 0.0469,0.5377 0.14004,0.73691 0.0931,0.1992 0.22768,0.35178 0.4036,0.45785 0.17592,0.10348 0.38675,0.15554 0.63252,0.15554 0.18626,0 0.35431,-0.0361 0.50436,-0.10852 0.15005,-0.0724 0.26912,-0.17501 0.35708,-0.30695 0.088,-0.13194 0.13178,-0.2871 0.13178,-0.46561 0,-0.16816 -0.0412,-0.31404 -0.12403,-0.43821 -0.0828,-0.12677 -0.19413,-0.2242 -0.33383,-0.29146 -0.1397,-0.0699 -0.29898,-0.10439 -0.47749,-0.10439 -0.13194,0 -0.25462,0.018 -0.36845,0.0543 -0.11124,0.0362 -0.20815,0.0904 -0.29094,0.16278 -0.0234,0.0204 -0.0456,0.0427 -0.0661,0.0661 v -0.004 c 0,-0.30786 0.0753,-0.54034 0.22531,-0.69815 0.15004,-0.15781 0.35314,-0.23668 0.60926,-0.23668 0.0957,0 0.18593,0.0103 0.2713,0.031 0.088,0.0181 0.16941,0.0516 0.24443,0.10076 l 0.18655,-0.38033 c -0.088,-0.0595 -0.19518,-0.10332 -0.32194,-0.13178 -0.12418,-0.0285 -0.25511,-0.0429 -0.39222,-0.0429 z m -44.533203,0.0388 v 2.71663 h 0.504362 v -1.16427 h 1.405081 v 1.16427 h 0.50436 v -2.71663 h -0.50436 v 1.12138 h -1.405081 v -1.12138 z m 20.807513,0 v 2.71663 h 2.03709 v -0.42323 h -1.53273 v -0.74879 h 1.31155 v -0.41548 h -1.31155 v -0.7059 h 1.47847 v -0.42323 z m 18.6614,0.39997 c 0.12676,0 0.23707,0.0345 0.33021,0.10439 0.0931,0.0673 0.1653,0.17242 0.21704,0.31471 0.0543,0.1397 0.0816,0.31909 0.0816,0.53898 0,0.21732 -0.0273,0.39722 -0.0816,0.53951 -0.0517,0.14228 -0.12391,0.24847 -0.21704,0.31832 -0.0931,0.0673 -0.20345,0.10077 -0.33021,0.10077 -0.1216,0 -0.22985,-0.0335 -0.32557,-0.10077 -0.0931,-0.0699 -0.16684,-0.17604 -0.22117,-0.31832 -0.0517,-0.14229 -0.078,-0.32219 -0.078,-0.53951 0,-0.21989 0.0263,-0.39928 0.078,-0.53898 0.0543,-0.14229 0.12804,-0.24745 0.22117,-0.31471 0.0957,-0.0699 0.20397,-0.10439 0.32557,-0.10439 z m -35.58078,0.22118 c -0.16557,0 -0.32588,0.0217 -0.48111,0.0656 -0.15263,0.0414 -0.28459,0.10479 -0.39584,0.19017 l 0.19017,0.35346 c 0.0776,-0.0647 0.17195,-0.11519 0.28319,-0.15141 0.11383,-0.0362 0.2293,-0.0543 0.34571,-0.0543 0.17334,0 0.30272,0.0397 0.38809,0.11989 0.0854,0.0776 0.12764,0.18793 0.12764,0.33021 v 0.031 h -0.53536 c -0.20955,0 -0.3776,0.0273 -0.50437,0.0816 -0.12676,0.0543 -0.21852,0.12804 -0.27543,0.22117 -0.0543,0.0931 -0.0816,0.19778 -0.0816,0.3142 0,0.119 0.0309,0.22622 0.093,0.32194 0.0647,0.0931 0.1554,0.16685 0.27182,0.22117 0.11641,0.0517 0.25198,0.0775 0.40721,0.0775 0.18368,0 0.33523,-0.0335 0.45423,-0.10077 0.0838,-0.0463 0.14976,-0.10563 0.19792,-0.17777 v 0.25167 h 0.45786 v -1.21492 c 0,-0.30009 -0.0825,-0.52123 -0.24805,-0.66352 -0.16298,-0.14488 -0.39495,-0.21704 -0.69505,-0.21704 z m 2.51871,0 c -0.21731,0 -0.41113,0.0454 -0.58188,0.13591 -0.16815,0.0905 -0.30012,0.2158 -0.39584,0.3762 -0.0957,0.15781 -0.14366,0.34029 -0.14366,0.54725 0,0.20438 0.0479,0.38686 0.14366,0.54726 0.0957,0.16039 0.22769,0.28669 0.39584,0.37982 0.17075,0.0906 0.36457,0.13591 0.58188,0.13591 0.20179,0 0.37912,-0.0412 0.53175,-0.12402 0.15522,-0.0854 0.27275,-0.20548 0.35295,-0.36071 l -0.37259,-0.21755 c -0.0621,0.0983 -0.13838,0.17099 -0.22892,0.21755 -0.088,0.0466 -0.18384,0.0698 -0.28732,0.0698 -0.11901,0 -0.22623,-0.0258 -0.32195,-0.0775 -0.0957,-0.0517 -0.17046,-0.12545 -0.22479,-0.22117 -0.0543,-0.0983 -0.0817,-0.21481 -0.0817,-0.34934 0,-0.13452 0.0273,-0.24999 0.0817,-0.34571 0.0543,-0.0983 0.12907,-0.17305 0.22479,-0.22479 0.0957,-0.0517 0.20294,-0.0775 0.32195,-0.0775 0.10348,0 0.19936,0.0232 0.28732,0.0698 0.0905,0.0466 0.16684,0.11873 0.22892,0.21704 l 0.37259,-0.21704 c -0.0802,-0.15781 -0.19773,-0.27689 -0.35295,-0.35709 -0.15263,-0.0828 -0.32996,-0.12402 -0.53175,-0.12402 z m 4.50153,0 c -0.16557,0 -0.32588,0.0217 -0.4811,0.0656 -0.15264,0.0414 -0.2846,0.10479 -0.39584,0.19017 l 0.19016,0.35346 c 0.0776,-0.0647 0.17195,-0.11519 0.28319,-0.15141 0.11383,-0.0362 0.22878,-0.0543 0.3452,-0.0543 0.17333,0 0.30272,0.0397 0.38809,0.11989 0.0854,0.0776 0.12816,0.18793 0.12816,0.33021 v 0.031 h -0.53537 c -0.20955,0 -0.37811,0.0273 -0.50488,0.0816 -0.12676,0.0543 -0.21852,0.12804 -0.27543,0.22117 -0.0543,0.0931 -0.0817,0.19778 -0.0817,0.3142 0,0.119 0.0314,0.22622 0.0935,0.32194 0.0647,0.0931 0.15489,0.16685 0.2713,0.22117 0.11642,0.0517 0.25251,0.0775 0.40773,0.0775 0.18368,0 0.33472,-0.0335 0.45372,-0.10077 0.0838,-0.0463 0.14976,-0.10563 0.19792,-0.17777 v 0.25167 h 0.45837 v -1.21492 c 0,-0.30009 -0.083,-0.52123 -0.24856,-0.66352 -0.16299,-0.14488 -0.39444,-0.21704 -0.69454,-0.21704 z m 5.02502,0 c -0.16557,0 -0.32588,0.0217 -0.48111,0.0656 -0.15263,0.0414 -0.2846,0.10479 -0.39584,0.19017 l 0.19017,0.35346 c 0.0776,-0.0647 0.17195,-0.11519 0.28319,-0.15141 0.11383,-0.0362 0.2293,-0.0543 0.34571,-0.0543 0.17334,0 0.30272,0.0397 0.38809,0.11989 0.0854,0.0776 0.12764,0.18793 0.12764,0.33021 v 0.031 h -0.53536 c -0.20955,0 -0.3776,0.0273 -0.50437,0.0816 -0.12676,0.0543 -0.21852,0.12804 -0.27543,0.22117 -0.0543,0.0931 -0.0816,0.19778 -0.0816,0.3142 0,0.119 0.0309,0.22622 0.093,0.32194 0.0647,0.0931 0.1554,0.16685 0.27182,0.22117 0.11641,0.0517 0.25198,0.0775 0.40721,0.0775 0.18368,0 0.33523,-0.0335 0.45423,-0.10077 0.0838,-0.0463 0.14976,-0.10563 0.19792,-0.17777 v 0.25167 h 0.45786 v -1.21492 c 0,-0.30009 -0.0825,-0.52123 -0.24805,-0.66352 -0.16298,-0.14488 -0.39495,-0.21704 -0.69505,-0.21704 z m 11.24996,0 c -0.1992,0 -0.36622,0.0361 -0.50074,0.10852 -0.0983,0.054 -0.17716,0.12679 -0.23668,0.21807 v -0.30334 h -0.46147 v 2.07223 h 0.48472 v -1.00511 c 0,-0.21214 0.0546,-0.37142 0.1633,-0.47749 0.10866,-0.10866 0.25454,-0.16278 0.43822,-0.16278 0.0181,0 0.0361,0.001 0.0543,0.004 0.0181,0 0.0377,0.003 0.0584,0.008 z m 1.32343,0 c -0.21213,0 -0.40132,0.0454 -0.56689,0.13591 -0.16557,0.0905 -0.29598,0.2158 -0.3917,0.3762 -0.0957,0.15781 -0.14366,0.34029 -0.14366,0.54725 0,0.20438 0.0479,0.38686 0.14366,0.54726 0.0957,0.16039 0.22613,0.28669 0.3917,0.37982 0.16557,0.0906 0.35476,0.13591 0.56689,0.13591 0.21473,0 0.40442,-0.0454 0.56999,-0.13591 0.16816,-0.0931 0.2991,-0.21943 0.39223,-0.37982 0.0957,-0.1604 0.14366,-0.34288 0.14366,-0.54726 0,-0.20955 -0.0479,-0.39357 -0.14366,-0.55138 -0.0931,-0.15781 -0.22407,-0.28153 -0.39223,-0.37207 -0.16557,-0.0905 -0.35526,-0.13591 -0.56999,-0.13591 z m 2.72025,0 c -0.17592,0 -0.33262,0.0387 -0.46974,0.11627 -0.0828,0.0453 -0.1555,0.10526 -0.21756,0.17983 v -0.27285 h -0.46147 v 2.82515 h 0.48525 v -1.00562 c 0.059,0.0663 0.12603,0.12056 0.20153,0.1633 0.1397,0.0776 0.29383,0.11627 0.46199,0.11627 0.20438,0 0.38376,-0.0438 0.53899,-0.13178 0.15781,-0.088 0.28204,-0.21064 0.37258,-0.36845 0.0931,-0.1604 0.14005,-0.34803 0.14005,-0.56276 0,-0.21472 -0.0469,-0.40132 -0.14005,-0.55913 -0.0905,-0.15781 -0.21477,-0.2805 -0.37258,-0.36846 -0.15523,-0.088 -0.33461,-0.13177 -0.53899,-0.13177 z m 2.41329,0 c -0.20696,0 -0.3915,0.0454 -0.55449,0.13591 -0.16039,0.0905 -0.2872,0.2158 -0.38034,0.3762 -0.0905,0.15781 -0.13591,0.34029 -0.13591,0.54725 0,0.20438 0.0464,0.38686 0.13953,0.54726 0.0957,0.16039 0.22923,0.28669 0.39998,0.37982 0.17333,0.0906 0.37488,0.13591 0.60513,0.13591 0.18109,0 0.34141,-0.0283 0.48111,-0.0853 0.14228,-0.0595 0.26033,-0.14352 0.35346,-0.25218 l -0.25993,-0.29869 c -0.0724,0.0776 -0.15543,0.13432 -0.24856,0.17053 -0.0931,0.0362 -0.19778,0.0543 -0.3142,0.0543 -0.13452,0 -0.2536,-0.0258 -0.35708,-0.0775 -0.10348,-0.0517 -0.1839,-0.12545 -0.24081,-0.22118 -0.0359,-0.0603 -0.0601,-0.1263 -0.0734,-0.19792 h 1.62574 c 0.003,-0.0233 0.004,-0.048 0.004,-0.0739 0.003,-0.0259 0.004,-0.0491 0.004,-0.0698 0,-0.21731 -0.0454,-0.40597 -0.13591,-0.56637 -0.0906,-0.1604 -0.21478,-0.28463 -0.37259,-0.37259 -0.15781,-0.088 -0.33771,-0.13177 -0.5395,-0.13177 z m -16.53077,0.0233 0.90588,2.07895 -0.0367,0.0822 c -0.0466,0.10348 -0.0971,0.1772 -0.15141,0.22118 -0.0543,0.044 -0.12546,0.0661 -0.21342,0.0661 -0.0647,0 -0.12808,-0.0129 -0.19017,-0.0388 -0.0621,-0.0259 -0.11776,-0.0609 -0.16692,-0.1049 l -0.19378,0.35709 c 0.0673,0.0595 0.15128,0.10641 0.25218,0.14004 0.10089,0.0336 0.20141,0.0501 0.30231,0.0501 0.11641,0 0.2226,-0.018 0.31832,-0.0543 0.0983,-0.0362 0.18646,-0.0996 0.26407,-0.19016 0.0802,-0.0906 0.15236,-0.21324 0.21704,-0.36846 l 0.97048,-2.23914 h -0.4656 l -0.65629,1.53273 -0.65164,-1.53273 z m 6.21667,0 v 1.18339 c 0,0.20697 0.0371,0.37914 0.11214,0.51625 0.075,0.13453 0.18018,0.23556 0.31471,0.30282 0.13452,0.0647 0.28968,0.0966 0.4656,0.0966 0.1604,0 0.30783,-0.0345 0.44235,-0.10439 0.0893,-0.0481 0.16401,-0.11012 0.2248,-0.18552 v 0.26304 h 0.46198 v -2.07223 h -0.48524 v 1.04748 c 0,0.13712 -0.0242,0.25259 -0.0734,0.34572 -0.0466,0.0931 -0.11255,0.16272 -0.19792,0.20929 -0.0828,0.0466 -0.18124,0.0698 -0.29507,0.0698 -0.15522,0 -0.27533,-0.0454 -0.3607,-0.13591 -0.0828,-0.0931 -0.12454,-0.23283 -0.12454,-0.41909 v -1.11725 z m 10.3141,0.36484 c 0.11642,0 0.219,0.0258 0.30696,0.0775 0.0905,0.0517 0.16168,0.12288 0.21342,0.21343 0.0366,0.064 0.0593,0.13516 0.0687,0.21342 h -1.17925 c 0.0106,-0.0777 0.033,-0.14783 0.0667,-0.20981 0.0517,-0.0931 0.12133,-0.1653 0.20929,-0.21704 0.0905,-0.0517 0.19519,-0.0775 0.31419,-0.0775 z m -20.22926,0.0232 c 0.11642,0 0.22003,0.0258 0.31058,0.0775 0.0931,0.0517 0.16685,0.12648 0.22117,0.22479 0.0569,0.0957 0.0853,0.21119 0.0853,0.34571 0,0.13194 -0.0283,0.2469 -0.0853,0.3452 -0.0543,0.0983 -0.12804,0.17357 -0.22117,0.22531 -0.0905,0.0517 -0.19416,0.0775 -0.31058,0.0775 -0.11641,0 -0.22105,-0.0258 -0.31419,-0.0775 -0.0905,-0.0517 -0.16426,-0.127 -0.22117,-0.22531 -0.0543,-0.0983 -0.0816,-0.21326 -0.0816,-0.3452 0,-0.13452 0.0273,-0.24999 0.0816,-0.34571 0.0569,-0.0983 0.13063,-0.17305 0.22117,-0.22479 0.0931,-0.0517 0.19778,-0.0775 0.31419,-0.0775 z m 15.09934,0 c 0.11642,0 0.22106,0.0258 0.31419,0.0775 0.0931,0.0517 0.16582,0.12648 0.21756,0.22479 0.0543,0.0957 0.0816,0.21119 0.0816,0.34571 0,0.13194 -0.0273,0.2469 -0.0816,0.3452 -0.0517,0.0983 -0.12442,0.17357 -0.21756,0.22531 -0.0931,0.0517 -0.1988,0.0775 -0.31781,0.0775 -0.11641,0 -0.22157,-0.0258 -0.31471,-0.0775 -0.0905,-0.0517 -0.16271,-0.127 -0.21704,-0.22531 -0.0543,-0.0983 -0.0816,-0.21326 -0.0816,-0.3452 0,-0.13452 0.0273,-0.24999 0.0816,-0.34571 0.0543,-0.0983 0.1265,-0.17305 0.21704,-0.22479 0.0931,-0.0517 0.19933,-0.0775 0.31833,-0.0775 z m 2.66237,0 c 0.11642,0 0.21951,0.0258 0.31006,0.0775 0.0931,0.0517 0.16685,0.12648 0.22117,0.22479 0.0543,0.0957 0.0816,0.21119 0.0816,0.34571 0,0.13194 -0.0273,0.2469 -0.0816,0.3452 -0.0543,0.0983 -0.12804,0.17357 -0.22117,0.22531 -0.0906,0.0517 -0.19364,0.0775 -0.31006,0.0775 -0.11642,0 -0.22158,-0.0258 -0.31471,-0.0775 -0.0931,-0.0517 -0.16685,-0.127 -0.22117,-0.22531 -0.0543,-0.0983 -0.0811,-0.21326 -0.0811,-0.3452 0,-0.13452 0.0268,-0.24999 0.0811,-0.34571 0.0543,-0.0983 0.12804,-0.17305 0.22117,-0.22479 0.0931,-0.0517 0.19829,-0.0775 0.31471,-0.0775 z m 13.16664,0.4036 c 0.16557,0 0.29753,0.0412 0.39584,0.12402 0.0983,0.0828 0.14728,0.19516 0.14728,0.33745 0,0.0931 -0.0232,0.17458 -0.0698,0.24443 -0.044,0.0699 -0.10636,0.12449 -0.18656,0.16329 -0.0802,0.0362 -0.17195,0.0543 -0.27543,0.0543 -0.11901,0 -0.22107,-0.0206 -0.30644,-0.062 -0.0828,-0.0414 -0.14619,-0.0971 -0.19017,-0.16691 -0.044,-0.0699 -0.0661,-0.14614 -0.0661,-0.22893 0,-0.0905 0.0237,-0.17096 0.0703,-0.24081 0.0492,-0.0699 0.11359,-0.12398 0.19379,-0.16278 0.0828,-0.0414 0.17866,-0.062 0.28732,-0.062 z m -40.49365,0.3917 h 0.50022 v 0.24081 c -0.0414,0.10607 -0.10995,0.18597 -0.20567,0.2403 -0.0931,0.0543 -0.1988,0.0816 -0.31781,0.0816 -0.12418,0 -0.2216,-0.0258 -0.29145,-0.0775 -0.0699,-0.0517 -0.10439,-0.12184 -0.10439,-0.2098 0,-0.0776 0.0284,-0.14205 0.0853,-0.19379 0.0569,-0.0543 0.16826,-0.0816 0.33383,-0.0816 z m 7.01972,0 h 0.50075 v 0.24081 c -0.0414,0.10607 -0.10995,0.18597 -0.20567,0.2403 -0.0931,0.0543 -0.19933,0.0816 -0.31833,0.0816 -0.12418,0 -0.22109,-0.0258 -0.29094,-0.0775 -0.0699,-0.0517 -0.1049,-0.12184 -0.1049,-0.2098 0,-0.0776 0.0284,-0.14205 0.0853,-0.19379 0.0569,-0.0543 0.16826,-0.0816 0.33383,-0.0816 z m 5.02554,0 h 0.50022 v 0.24081 c -0.0414,0.10607 -0.10995,0.18597 -0.20567,0.2403 -0.0931,0.0543 -0.1988,0.0816 -0.31781,0.0816 -0.12418,0 -0.2216,-0.0258 -0.29145,-0.0775 -0.0699,-0.0517 -0.10439,-0.12184 -0.10439,-0.2098 0,-0.0776 0.0284,-0.14205 0.0853,-0.19379 0.0569,-0.0543 0.16826,-0.0816 0.33383,-0.0816 z m 14.70142,2.85978 v 2.87941 h 0.48525 v -2.87941 z m -18.76629,0.16329 v 2.71612 h 1.92443 v -0.42685 h -1.42007 v -2.28927 z m 13.64774,0 v 2.71612 h 0.50437 v -2.71612 z m 1.25729,0.18604 v 0.45785 h -0.34158 v 0.38809 h 0.34158 v 1.01286 c 0,0.23025 0.0624,0.405 0.18655,0.524 0.12418,0.11642 0.29996,0.17467 0.52762,0.17467 0.088,0 0.17301,-0.0119 0.2558,-0.0351 0.0828,-0.0233 0.15289,-0.0578 0.2098,-0.10439 l -0.1359,-0.34572 c -0.0724,0.0569 -0.16317,0.0858 -0.27182,0.0858 -0.0906,0 -0.16169,-0.0273 -0.21343,-0.0817 -0.0491,-0.0543 -0.0734,-0.13062 -0.0734,-0.22893 v -1.00149 h 0.55501 v -0.38809 h -0.55501 v -0.45785 z m -11.74657,0.4346 c -0.20696,0 -0.39202,0.0454 -0.555,0.13591 -0.1604,0.0905 -0.28669,0.21632 -0.37982,0.37672 -0.0906,0.15781 -0.13591,0.33977 -0.13591,0.54673 0,0.20438 0.0464,0.38686 0.13952,0.54726 0.0957,0.16039 0.22923,0.2872 0.39998,0.38034 0.17333,0.0905 0.37488,0.13591 0.60513,0.13591 0.18109,0 0.34141,-0.0284 0.48111,-0.0853 0.14228,-0.0595 0.26033,-0.14353 0.35346,-0.25218 l -0.26045,-0.29921 c -0.0724,0.0776 -0.15491,0.13483 -0.24804,0.17105 -0.0931,0.0362 -0.19778,0.0543 -0.3142,0.0543 -0.13452,0 -0.2536,-0.0258 -0.35708,-0.0775 -0.10348,-0.0517 -0.1839,-0.12546 -0.24081,-0.22118 -0.0359,-0.0603 -0.0606,-0.1263 -0.0739,-0.19792 h 1.62626 c 0.003,-0.0233 0.004,-0.048 0.004,-0.0739 0.003,-0.0259 0.004,-0.0491 0.004,-0.0698 0,-0.21731 -0.0454,-0.40598 -0.13591,-0.56637 -0.0906,-0.1604 -0.21478,-0.28463 -0.37259,-0.37259 -0.15781,-0.088 -0.33771,-0.13229 -0.5395,-0.13229 z m 2.46445,0 c -0.21731,0 -0.41165,0.0454 -0.58239,0.13591 -0.16816,0.0905 -0.30012,0.21632 -0.39584,0.37672 -0.0957,0.15781 -0.14315,0.33977 -0.14315,0.54673 0,0.20438 0.0474,0.38686 0.14315,0.54726 0.0957,0.16039 0.22768,0.2872 0.39584,0.38034 0.17074,0.0905 0.36508,0.13591 0.58239,0.13591 0.20179,0 0.37912,-0.0412 0.53175,-0.12403 0.15522,-0.0854 0.27275,-0.20599 0.35295,-0.36122 l -0.37259,-0.21704 c -0.0621,0.0983 -0.13838,0.17048 -0.22892,0.21704 -0.088,0.0466 -0.18384,0.0698 -0.28732,0.0698 -0.11901,0 -0.22623,-0.0258 -0.32195,-0.0775 -0.0957,-0.0517 -0.17098,-0.12545 -0.22531,-0.22117 -0.0543,-0.0983 -0.0811,-0.21481 -0.0811,-0.34934 0,-0.13452 0.0268,-0.24947 0.0811,-0.34519 0.0543,-0.0983 0.12959,-0.17306 0.22531,-0.2248 0.0957,-0.0517 0.20294,-0.078 0.32195,-0.078 0.10348,0 0.19936,0.0237 0.28732,0.0703 0.0905,0.0466 0.16684,0.11874 0.22892,0.21704 l 0.37259,-0.21704 c -0.0802,-0.15781 -0.19773,-0.27688 -0.35295,-0.35708 -0.15263,-0.0828 -0.32996,-0.12454 -0.53175,-0.12454 z m 2.22364,0 c -0.21731,0 -0.41165,0.0454 -0.5824,0.13591 -0.16815,0.0905 -0.30012,0.21632 -0.39584,0.37672 -0.0957,0.15781 -0.14366,0.33977 -0.14366,0.54673 0,0.20438 0.0479,0.38686 0.14366,0.54726 0.0957,0.16039 0.22769,0.2872 0.39584,0.38034 0.17075,0.0905 0.36509,0.13591 0.5824,0.13591 0.20179,0 0.3786,-0.0412 0.53123,-0.12403 0.15522,-0.0854 0.27327,-0.20599 0.35347,-0.36122 l -0.37259,-0.21704 c -0.0621,0.0983 -0.13838,0.17048 -0.22893,0.21704 -0.0879,0.0466 -0.18383,0.0698 -0.28732,0.0698 -0.119,0 -0.22622,-0.0258 -0.32194,-0.0775 -0.0957,-0.0517 -0.17098,-0.12545 -0.22531,-0.22117 -0.0543,-0.0983 -0.0811,-0.21481 -0.0811,-0.34934 0,-0.13452 0.0268,-0.24947 0.0811,-0.34519 0.0543,-0.0983 0.12959,-0.17306 0.22531,-0.2248 0.0957,-0.0517 0.20294,-0.078 0.32194,-0.078 0.10349,0 0.19937,0.0237 0.28732,0.0703 0.0906,0.0466 0.16684,0.11874 0.22893,0.21704 l 0.37259,-0.21704 c -0.0802,-0.15781 -0.19825,-0.27688 -0.35347,-0.35708 -0.15263,-0.0828 -0.32944,-0.12454 -0.53123,-0.12454 z m 2.204,0 c -0.21214,0 -0.40081,0.0454 -0.56638,0.13591 -0.16557,0.0905 -0.2965,0.21632 -0.39222,0.37672 -0.0957,0.15781 -0.14366,0.33977 -0.14366,0.54673 0,0.20438 0.0479,0.38686 0.14366,0.54726 0.0957,0.16039 0.22665,0.2872 0.39222,0.38034 0.16557,0.0905 0.35424,0.13591 0.56638,0.13591 0.21472,0 0.40493,-0.0454 0.57051,-0.13591 0.16815,-0.0931 0.29857,-0.21995 0.3917,-0.38034 0.0957,-0.1604 0.14366,-0.34288 0.14366,-0.54726 0,-0.20955 -0.0479,-0.39306 -0.14366,-0.55087 -0.0931,-0.15781 -0.22355,-0.28204 -0.3917,-0.37258 -0.16558,-0.0906 -0.35579,-0.13591 -0.57051,-0.13591 z m 7.15202,0 c -0.16557,0 -0.32641,0.0222 -0.48163,0.0661 -0.15263,0.0414 -0.28408,0.1048 -0.39532,0.19017 l 0.18965,0.35295 c 0.0776,-0.0647 0.17246,-0.11519 0.2837,-0.15141 0.11383,-0.0362 0.22878,-0.0543 0.3452,-0.0543 0.17333,0 0.30272,0.0402 0.38809,0.12041 0.0854,0.0776 0.12816,0.18741 0.12816,0.32969 v 0.0315 h -0.53589 c -0.20955,0 -0.37759,0.0268 -0.50436,0.0811 -0.12676,0.0543 -0.21852,0.12804 -0.27543,0.22117 -0.0543,0.0931 -0.0817,0.19778 -0.0817,0.31419 0,0.11901 0.0314,0.22675 0.0935,0.32247 0.0647,0.0931 0.15489,0.16684 0.2713,0.22117 0.11642,0.0517 0.25251,0.0775 0.40773,0.0775 0.18368,0 0.33472,-0.0335 0.45372,-0.10077 0.0838,-0.0464 0.14976,-0.10563 0.19792,-0.17777 v 0.25115 h 0.45785 v -1.2144 c 0,-0.3001 -0.0825,-0.52124 -0.24804,-0.66352 -0.16299,-0.14488 -0.39444,-0.21756 -0.69453,-0.21756 z m 2.34766,0.0232 0.90588,2.07843 -0.0367,0.0832 c -0.0466,0.10348 -0.0971,0.17719 -0.15141,0.22117 -0.0543,0.044 -0.12546,0.0661 -0.21342,0.0661 -0.0647,0 -0.12808,-0.0129 -0.19017,-0.0388 -0.0621,-0.0259 -0.11776,-0.0609 -0.16692,-0.1049 l -0.19378,0.35708 c 0.0673,0.0595 0.15128,0.1059 0.25218,0.13953 0.10089,0.0336 0.20193,0.0506 0.30282,0.0506 0.11642,0 0.22209,-0.018 0.31781,-0.0543 0.0983,-0.0362 0.18646,-0.0996 0.26407,-0.19017 0.0802,-0.0905 0.15236,-0.21375 0.21704,-0.36897 l 0.97048,-2.23914 h -0.4656 l -0.65629,1.53324 -0.65164,-1.53324 z m -16.39177,0.36484 c 0.11642,0 0.219,0.0263 0.30696,0.078 0.0906,0.0517 0.16168,0.12288 0.21342,0.21342 0.0366,0.064 0.0593,0.13517 0.0687,0.21343 h -1.17925 c 0.0106,-0.0777 0.033,-0.14784 0.0667,-0.20981 0.0517,-0.0931 0.12133,-0.1653 0.20929,-0.21704 0.0906,-0.0517 0.19519,-0.078 0.31419,-0.078 z m 6.8957,0.0233 c 0.11642,0 0.22158,0.0263 0.31471,0.078 0.0931,0.0517 0.1653,0.12649 0.21705,0.2248 0.0543,0.0957 0.0816,0.21067 0.0816,0.34519 0,0.13194 -0.0273,0.24741 -0.0816,0.34572 -0.0517,0.0983 -0.12391,0.17305 -0.21705,0.22479 -0.0931,0.0517 -0.19932,0.0775 -0.31832,0.0775 -0.11642,0 -0.22106,-0.0258 -0.3142,-0.0775 -0.0905,-0.0517 -0.16323,-0.12648 -0.21755,-0.22479 -0.0543,-0.0983 -0.0816,-0.21378 -0.0816,-0.34572 0,-0.13452 0.0273,-0.24947 0.0816,-0.34519 0.0543,-0.0983 0.12701,-0.17306 0.21755,-0.2248 0.0931,-0.0517 0.19881,-0.078 0.31781,-0.078 z m 7.10551,0.79582 h 0.50075 v 0.24029 c -0.0414,0.10607 -0.10995,0.18649 -0.20567,0.24082 -0.0931,0.0543 -0.19933,0.0816 -0.31833,0.0816 -0.12418,0 -0.22109,-0.0263 -0.29094,-0.078 -0.0699,-0.0517 -0.1049,-0.12133 -0.1049,-0.20929 0,-0.0776 0.0284,-0.14256 0.0853,-0.1943 0.0569,-0.0543 0.16826,-0.0811 0.33383,-0.0811 z m -5.41724,0.2713 c -0.088,0 -0.16322,0.0299 -0.22531,0.0894 -0.0595,0.0569 -0.0889,0.13475 -0.0889,0.23306 0,0.0957 0.0294,0.17201 0.0889,0.22893 0.0284,0.0248 0.0598,0.0439 0.0941,0.0574 l -0.15607,0.59428 h 0.31471 l 0.19792,-0.54674 c 0.0259,-0.0595 0.0439,-0.10899 0.0543,-0.14779 0.0129,-0.0388 0.0217,-0.0723 0.0269,-0.10077 0.005,-0.0311 0.008,-0.0594 0.008,-0.0853 0,-0.0957 -0.0294,-0.17356 -0.0889,-0.23306 -0.0595,-0.0595 -0.13476,-0.0894 -0.22531,-0.0894 z" />
  </g>
</svg>
