<?xml version="1.0" encoding="UTF-8" standalone="no"?>
<!-- Created with Inkscape (http://www.inkscape.org/) -->

<svg
   width="46.0313mm"
   height="42.042912mm"
   viewBox="0 0 46.031299 42.042912"
   version="1.1"
   id="svg1"
   inkscape:version="1.4.3 (unknown)"
   sodipodi:docname="back-info.svg"
   xmlns:inkscape="http://www.inkscape.org/namespaces/inkscape"
   xmlns:sodipodi="http://sodipodi.sourceforge.net/DTD/sodipodi-0.dtd"
   xmlns="http://www.w3.org/2000/svg"
   xmlns:svg="http://www.w3.org/2000/svg">
  <sodipodi:namedview
     id="namedview1"
     pagecolor="#ffffff"
     bordercolor="#000000"
     borderopacity="0.25"
     inkscape:showpageshadow="2"
     inkscape:pageopacity="0.0"
     inkscape:pagecheckerboard="0"
     inkscape:deskcolor="#d1d1d1"
     inkscape:document-units="mm"
     inkscape:zoom="5.7741422"
     inkscape:cx="87.025914"
     inkscape:cy="39.91935"
     inkscape:window-width="3840"
     inkscape:window-height="2076"
     inkscape:window-x="0"
     inkscape:window-y="0"
     inkscape:window-maximized="1"
     inkscape:current-layer="layer1" />
  <defs
     id="defs1">
    <rect
       x="22.616543"
       y="134.02962"
       width="162.88345"
       height="138.90497"
       id="rect21001" />
    <rect
       x="79.309456"
       y="214.73764"
       width="105.59897"
       height="56.466141"
       id="rect21007" />
  </defs>
  <g
     inkscape:label="Layer 1"
     inkscape:groupmode="layer"
     id="layer1"
     transform="translate(-96.302649,-132.73039)">
    <path
       id="rect13541"
       style="baseline-shift:baseline;display:inline;overflow:visible;opacity:1;vector-effect:none;fill:#000000;enable-background:accumulate;stop-color:#000000;stop-opacity:1"
       d="m 96.302649,132.73039 v 42.04291 h 46.031301 v -42.04291 z m 14.168641,0.30076 c 0.17357,0 0.32414,0.037 0.45114,0.1111 0.127,0.072 0.22621,0.17909 0.29817,0.32091 0.072,0.1397 0.11443,0.31 0.12713,0.51108 h -0.38086 c -0.0317,-0.18203 -0.089,-0.31976 -0.17157,-0.41289 -0.0804,-0.0952 -0.18854,-0.14263 -0.32401,-0.14263 -0.18415,0 -0.32037,0.076 -0.40927,0.22841 -0.0868,0.1524 -0.13023,0.38835 -0.13023,0.70797 0,0.31962 0.0415,0.55556 0.12402,0.70796 0.0826,0.1524 0.21138,0.22893 0.38706,0.22893 0.127,0 0.22967,-0.0434 0.30799,-0.13022 0.0783,-0.0889 0.13212,-0.21726 0.16175,-0.38448 h 0.38137 c -0.0127,0.1905 -0.0551,0.3534 -0.12712,0.48886 -0.0699,0.13335 -0.16611,0.23603 -0.28887,0.30799 -0.12277,0.0699 -0.2679,0.10491 -0.43512,0.10491 -0.30691,0 -0.53841,-0.11008 -0.69505,-0.33022 -0.15452,-0.22225 -0.23202,-0.55347 -0.23202,-0.99373 0,-0.44027 0.0795,-0.77051 0.23822,-0.99064 0.16087,-0.22225 0.39977,-0.33331 0.71727,-0.33331 z m 17.70073,0 c 0.31539,0 0.55284,0.11106 0.71159,0.33331 0.15875,0.22013 0.23771,0.55037 0.23771,0.99064 0,0.44026 -0.079,0.77148 -0.23771,0.99373 -0.15875,0.22014 -0.3962,0.33022 -0.71159,0.33022 -0.31326,0 -0.5502,-0.11008 -0.71107,-0.33022 -0.15874,-0.22225 -0.23822,-0.55347 -0.23822,-0.99373 0,-0.44027 0.0795,-0.77051 0.23822,-0.99064 0.16087,-0.22225 0.39781,-0.33331 0.71107,-0.33331 z m -16.39538,0.0537 h 0.416 v 1.07022 h 0.84439 v -1.07022 h 0.41599 v 2.54041 h -0.41599 v -1.07952 h -0.84439 v 1.07952 h -0.416 z m 2.22209,0 h 1.6769 v 0.39377 h -0.63201 v 1.75287 h 0.63201 v 0.39377 h -1.6769 v -0.39377 h 0.632 v -1.75287 h -0.632 z m 2.3244,0 h 0.89866 c 0.1651,0 0.30873,0.0321 0.43149,0.0956 0.12277,0.0614 0.21705,0.14926 0.28267,0.26355 0.0677,0.1143 0.10181,0.24856 0.10181,0.40308 0,0.1524 -0.0341,0.28567 -0.10181,0.39997 -0.0656,0.11219 -0.15988,0.19907 -0.28267,0.26045 -0.12276,0.0614 -0.26639,0.092 -0.43149,0.092 h -0.48266 v 1.02577 h -0.416 z m 4.34341,0 h 1.67638 v 0.39377 h -0.632 v 1.75287 h 0.632 v 0.39377 h -1.67638 v -0.39377 h 0.632 v -1.75287 h -0.632 z m 2.20038,0 h 0.68575 l 0.6382,2.25464 h 0.0413 l -0.016,-0.80357 v -1.45107 h 0.37155 v 2.54041 H 123.902 l -0.63821,-2.25464 h -0.0413 l 0.016,0.80357 v 1.45107 h -0.37155 z m 2.44119,0 h 1.54978 v 0.39377 h -1.13378 v 0.73381 h 0.97462 v 0.36484 h -0.97462 v 1.04799 h -0.416 z m 2.86391,0.33383 c -0.18203,0 -0.31629,0.076 -0.40307,0.22841 -0.0868,0.1524 -0.13023,0.38835 -0.13023,0.70797 0,0.31962 0.0434,0.55556 0.13023,0.70796 0.0868,0.1524 0.22104,0.22893 0.40307,0.22893 0.18204,0 0.31681,-0.0765 0.40359,-0.22893 0.0868,-0.1524 0.12971,-0.38834 0.12971,-0.70796 0,-0.31962 -0.0429,-0.55557 -0.12971,-0.70797 -0.0868,-0.1524 -0.22155,-0.22841 -0.40359,-0.22841 z m -11.43289,0.0568 v 0.74931 h 0.49196 c 0.12276,0 0.21803,-0.0326 0.28577,-0.0982 0.0698,-0.0677 0.1049,-0.16006 0.1049,-0.27647 0,-0.11642 -0.0351,-0.20724 -0.1049,-0.27285 -0.0677,-0.0677 -0.16301,-0.10181 -0.28577,-0.10181 z m -19.936253,2.50424 h 45.031363 v 38.29379 H 96.802877 Z m 13.099463,0.99994 c -0.0889,0 -0.15849,0.0242 -0.20929,0.0729 -0.0487,0.0466 -0.0729,0.1132 -0.0729,0.19998 0,0.0847 0.0242,0.15133 0.0729,0.19999 0.0508,0.0466 0.12039,0.0703 0.20929,0.0703 0.0889,0 0.15804,-0.0237 0.2067,-0.0703 0.0508,-0.0487 0.076,-0.11532 0.076,-0.19999 0,-0.0867 -0.0252,-0.15338 -0.076,-0.19998 -0.0487,-0.0487 -0.1178,-0.0729 -0.2067,-0.0729 z m -11.112504,0.13643 c -0.3175,0 -0.556402,0.11106 -0.717269,0.33331 -0.15875,0.22013 -0.238228,0.55037 -0.238228,0.99064 0,0.44027 0.07751,0.77149 0.232027,0.99374 0.156633,0.22013 0.388131,0.33021 0.695048,0.33021 0.167217,0 0.312349,-0.0345 0.435115,-0.10439 0.122767,-0.072 0.219022,-0.17464 0.288872,-0.30799 0.07197,-0.13547 0.114424,-0.29887 0.127124,-0.48937 h -0.381372 c -0.02963,0.16722 -0.08343,0.29557 -0.161748,0.38447 -0.07832,0.0868 -0.180991,0.13022 -0.307991,0.13022 -0.175683,0 -0.304507,-0.0765 -0.387057,-0.22892 -0.08255,-0.1524 -0.124023,-0.38836 -0.124023,-0.70797 0,-0.31962 0.04344,-0.55557 0.130225,-0.70797 0.0889,-0.1524 0.225127,-0.22841 0.409277,-0.22841 0.135467,0 0.243578,0.0474 0.324011,0.14263 0.08255,0.0931 0.139819,0.23086 0.171566,0.41289 h 0.380855 c -0.0127,-0.20108 -0.05516,-0.37138 -0.127124,-0.51108 -0.07197,-0.14181 -0.171173,-0.24894 -0.298173,-0.32091 -0.127,-0.0741 -0.277568,-0.1111 -0.451135,-0.1111 z m 22.145934,0 c -0.31327,0 -0.5502,0.11106 -0.71107,0.33331 -0.15875,0.22013 -0.23823,0.55037 -0.23823,0.99064 0,0.44027 0.0795,0.77149 0.23823,0.99374 0.16087,0.22013 0.3978,0.33021 0.71107,0.33021 0.31538,0 0.55232,-0.11008 0.71107,-0.33021 0.15875,-0.22225 0.23823,-0.55347 0.23823,-0.99374 0,-0.44027 -0.0795,-0.77051 -0.23823,-0.99064 -0.15875,-0.22225 -0.39569,-0.33331 -0.71107,-0.33331 z m -2.98793,0.0543 v 1.45417 h 0.38137 c 0.036,-0.0825 0.0888,-0.14622 0.15865,-0.19068 0.072,-0.0445 0.15538,-0.0667 0.25063,-0.0667 0.0931,0 0.17263,0.0203 0.23823,0.0605 0.0656,0.0381 0.11644,0.0939 0.15244,0.16794 0.036,0.0741 0.0538,0.16195 0.0538,0.26355 0,0.10584 -0.0187,0.19816 -0.0569,0.27647 -0.036,0.0783 -0.0878,0.13854 -0.15554,0.18087 -0.0677,0.0423 -0.14722,0.0636 -0.23823,0.0636 -0.12489,0 -0.22658,-0.0326 -0.30489,-0.0982 -0.0762,-0.0656 -0.13098,-0.15892 -0.16485,-0.27957 h -0.40049 c 0.0233,0.23918 0.11115,0.42625 0.26355,0.56172 0.15452,0.13335 0.35987,0.19999 0.61598,0.19999 0.16722,0 0.31582,-0.038 0.44493,-0.11421 0.12912,-0.0783 0.22931,-0.18492 0.30128,-0.32039 0.0741,-0.13547 0.1111,-0.29246 0.1111,-0.47026 0,-0.16933 -0.0326,-0.31741 -0.0982,-0.44441 -0.0635,-0.127 -0.15137,-0.22522 -0.26355,-0.29508 -0.11007,-0.072 -0.23843,-0.108 -0.38448,-0.108 -0.0783,0 -0.15236,0.0128 -0.2222,0.0382 -0.0677,0.0233 -0.12252,0.0549 -0.16485,0.0951 h -0.10181 v -0.58756 h 1.18133 v -0.38706 z m -13.03331,0.12351 v 0.49557 h -0.39998 v 0.36794 h 0.39998 v 0.92087 c 0,0.21802 0.0553,0.38734 0.16536,0.50798 0.11007,0.11854 0.26752,0.17777 0.47284,0.17777 0.20743,0 0.36935,-0.0632 0.48576,-0.19017 0.11852,-0.12911 0.18319,-0.31572 0.19379,-0.55914 h -0.35554 c -0.0233,0.13122 -0.0603,0.22747 -0.1111,0.28887 -0.0487,0.0614 -0.11532,0.0925 -0.19999,0.0925 -0.0826,0 -0.14525,-0.0277 -0.18759,-0.0827 -0.0423,-0.0571 -0.0636,-0.1386 -0.0636,-0.24443 v -0.91157 h 0.85731 v -0.36794 h -0.85731 v -0.49557 z m 16.02124,0.2098 c 0.18203,0 0.3163,0.076 0.40308,0.22841 0.0226,0.0397 0.0427,0.0853 0.0594,0.13643 l -0.99116,0.74776 c -0.003,-0.0555 -0.005,-0.11443 -0.005,-0.17622 0,-0.31962 0.0434,-0.55557 0.13022,-0.70797 0.0868,-0.1524 0.22105,-0.22841 0.40308,-0.22841 z m -20.0024,0.23461 c -0.17992,0 -0.3369,0.0415 -0.47025,0.12403 -0.13123,0.0825 -0.23391,0.20003 -0.30799,0.35243 -0.072,0.15029 -0.10801,0.32897 -0.10801,0.5364 0,0.20743 0.036,0.38762 0.10801,0.54002 0.0741,0.15028 0.17676,0.26678 0.30799,0.34933 0.13335,0.0825 0.29033,0.12351 0.47025,0.12351 0.18204,0 0.33851,-0.041 0.46974,-0.12351 0.13124,-0.0825 0.23293,-0.19905 0.30489,-0.34933 0.0741,-0.1524 0.11111,-0.33259 0.11111,-0.54002 0,-0.20743 -0.037,-0.38611 -0.11111,-0.5364 -0.072,-0.1524 -0.17365,-0.26989 -0.30489,-0.35243 -0.13123,-0.0826 -0.2877,-0.12403 -0.46974,-0.12403 z m 2.38746,0 c -0.0931,0 -0.17903,0.0183 -0.25735,0.0543 -0.0762,0.036 -0.1364,0.0868 -0.18087,0.15245 h -0.1018 v -0.15555 h -0.39998 v 1.92082 h 0.40049 v -1.13379 c 0,-0.15028 0.0326,-0.26429 0.0982,-0.34261 0.0656,-0.0783 0.16286,-0.11731 0.29197,-0.11731 0.12913,0 0.22637,0.039 0.29197,0.11731 0.0677,0.0783 0.10181,0.19233 0.10181,0.34261 v 1.13379 h 0.39997 v -1.23507 c 0,-0.1524 -0.0261,-0.28371 -0.0791,-0.39378 -0.0529,-0.11006 -0.12697,-0.19498 -0.22221,-0.25424 -0.0953,-0.0593 -0.20979,-0.0889 -0.34313,-0.0889 z m 4.26744,0 c -0.16722,0 -0.31432,0.0296 -0.44132,0.0889 -0.127,0.0572 -0.22869,0.1401 -0.30489,0.24804 -0.0741,0.10796 -0.11749,0.23678 -0.13023,0.38706 h 0.38396 c 0.0169,-0.0783 0.0466,-0.14395 0.0889,-0.19689 0.0423,-0.055 0.0976,-0.096 0.16537,-0.1235 0.0677,-0.0296 0.14473,-0.0445 0.23151,-0.0445 0.12276,0 0.21803,0.0326 0.28577,0.0982 0.0698,0.0656 0.1049,0.15793 0.1049,0.27647 v 0.0403 l -0.56844,0.0894 c -0.19261,0.0296 -0.3407,0.0968 -0.44442,0.2005 -0.1016,0.10371 -0.15244,0.23699 -0.15244,0.39998 0,0.11006 0.0232,0.2073 0.0698,0.29197 0.0487,0.0825 0.11631,0.14718 0.20309,0.19378 0.0889,0.0466 0.19157,0.0698 0.30799,0.0698 0.11641,0 0.21417,-0.0192 0.29249,-0.0574 0.0804,-0.0402 0.14357,-0.097 0.19017,-0.17105 h 0.1018 v 0.18087 h 0.39068 v -1.26711 c 0,-0.22648 -0.0681,-0.39973 -0.20361,-0.52038 -0.13335,-0.12277 -0.32337,-0.18449 -0.57102,-0.18449 z m 4.62245,0 c -0.0931,0 -0.17903,0.0183 -0.25735,0.0543 -0.0762,0.036 -0.1364,0.0868 -0.18086,0.15245 h -0.10129 v -0.15555 h -0.39998 v 1.92082 h 0.39998 v -1.13379 c 0,-0.15028 0.0326,-0.26429 0.0982,-0.34261 0.0656,-0.0783 0.16285,-0.11731 0.29197,-0.11731 0.12913,0 0.22689,0.039 0.29249,0.11731 0.0677,0.0783 0.10128,0.19233 0.10128,0.34261 v 1.13379 h 0.39998 v -1.23507 c 0,-0.1524 -0.0261,-0.28371 -0.0791,-0.39378 -0.0529,-0.11006 -0.12696,-0.19498 -0.22221,-0.25424 -0.0952,-0.0593 -0.20978,-0.0889 -0.34313,-0.0889 z m 13.17026,0 c -0.17992,0 -0.3369,0.0415 -0.47026,0.12403 -0.13123,0.0825 -0.23391,0.20003 -0.30799,0.35243 -0.072,0.15029 -0.108,0.32897 -0.108,0.5364 0,0.20743 0.036,0.38762 0.108,0.54002 0.0741,0.15028 0.17676,0.26678 0.30799,0.34933 0.13336,0.0825 0.29034,0.12351 0.47026,0.12351 0.18203,0 0.3385,-0.041 0.46974,-0.12351 0.13123,-0.0825 0.23292,-0.19905 0.30489,-0.34933 0.0741,-0.1524 0.1111,-0.33259 0.1111,-0.54002 0,-0.20743 -0.037,-0.38611 -0.1111,-0.5364 -0.072,-0.1524 -0.17366,-0.26989 -0.30489,-0.35243 -0.13124,-0.0826 -0.28771,-0.12403 -0.46974,-0.12403 z m 2.38125,0 c -0.1016,0 -0.19392,0.0212 -0.27647,0.0636 -0.0826,0.0402 -0.14377,0.0965 -0.18397,0.16847 h -0.1018 v -0.18087 h -0.39998 v 2.55592 h 0.39998 v -0.81287 h 0.1018 c 0.0402,0.0699 0.10142,0.12613 0.18397,0.16846 0.0825,0.0402 0.17487,0.0599 0.27647,0.0599 0.15663,0 0.29286,-0.041 0.40928,-0.12351 0.11645,-0.0825 0.20628,-0.19904 0.26975,-0.34933 0.0635,-0.1524 0.0956,-0.33161 0.0956,-0.53692 0,-0.20743 -0.0321,-0.38611 -0.0956,-0.5364 -0.0635,-0.1524 -0.15333,-0.26989 -0.26975,-0.35243 -0.11642,-0.0826 -0.25265,-0.12403 -0.40928,-0.12403 z m 2.09858,0 c -0.17568,0 -0.32822,0.0415 -0.45734,0.12403 -0.12911,0.0804 -0.22982,0.19496 -0.30179,0.34313 -0.0698,0.14816 -0.10439,0.32488 -0.10439,0.5302 0,0.2159 0.0336,0.401 0.10129,0.55552 0.0699,0.1524 0.16958,0.26989 0.29869,0.35243 0.13123,0.0804 0.28869,0.12041 0.47284,0.12041 0.1397,0 0.26557,-0.0252 0.37775,-0.076 0.1143,-0.0529 0.21056,-0.12695 0.28888,-0.2222 0.0804,-0.0974 0.13769,-0.21289 0.17156,-0.34624 h -0.37775 c -0.0529,0.0931 -0.11759,0.16521 -0.19379,0.21601 -0.0762,0.0487 -0.16406,0.0729 -0.26355,0.0729 -0.16087,0 -0.28229,-0.0573 -0.36484,-0.17156 -0.0631,-0.0889 -0.10241,-0.20736 -0.1173,-0.35553 h 1.26039 c 0.002,-0.0254 0.003,-0.0506 0.003,-0.076 0.002,-0.0275 0.003,-0.0552 0.003,-0.0827 0,-0.20955 -0.0316,-0.38725 -0.0951,-0.5333 -0.0614,-0.14817 -0.15272,-0.26022 -0.27336,-0.33642 -0.11854,-0.0762 -0.26118,-0.11472 -0.4284,-0.11472 z m 2.35231,0 c -0.0931,0 -0.17851,0.0183 -0.25683,0.0543 -0.0762,0.036 -0.1364,0.0868 -0.18087,0.15245 h -0.1018 v -0.15555 h -0.39998 v 1.92082 h 0.39998 v -1.13379 c 0,-0.15028 0.0326,-0.26429 0.0982,-0.34261 0.0656,-0.0783 0.16338,-0.11731 0.29249,-0.11731 0.12913,0 0.22637,0.039 0.29197,0.11731 0.0677,0.0783 0.10181,0.19233 0.10181,0.34261 v 1.13379 h 0.39997 v -1.23507 c 0,-0.1524 -0.0266,-0.28371 -0.0796,-0.39378 -0.0529,-0.11006 -0.12696,-0.19498 -0.22221,-0.25424 -0.0952,-0.0593 -0.20978,-0.0889 -0.34313,-0.0889 z m -17.92914,5.2e-4 c -0.24553,0 -0.43804,0.0538 -0.57774,0.16175 -0.1397,0.10794 -0.20981,0.25701 -0.20981,0.44751 0,0.16722 0.0508,0.29853 0.15245,0.39378 0.1016,0.0931 0.25859,0.15333 0.47025,0.18087 l 0.24753,0.0351 c 0.0995,0.0148 0.17451,0.039 0.22531,0.0729 0.0508,0.0338 0.0765,0.0783 0.0765,0.13333 0,0.0762 -0.0331,0.13543 -0.0987,0.17776 -0.0635,0.0402 -0.1553,0.0605 -0.27595,0.0605 -0.1143,0 -0.20859,-0.0242 -0.28267,-0.0729 -0.0719,-0.0487 -0.12278,-0.11879 -0.15245,-0.20981 h -0.37155 c 0.0127,0.20532 0.0887,0.36427 0.22841,0.47646 0.1397,0.11218 0.33122,0.16795 0.57464,0.16795 0.16087,0 0.2986,-0.0242 0.4129,-0.0729 0.11428,-0.0508 0.20215,-0.12189 0.26355,-0.21291 0.0614,-0.091 0.092,-0.1996 0.092,-0.3266 0,-0.16722 -0.0508,-0.29754 -0.15245,-0.39067 -0.1016,-0.0931 -0.25807,-0.1543 -0.46973,-0.18397 l -0.24753,-0.032 c -0.1016,-0.0148 -0.17813,-0.039 -0.22893,-0.0729 -0.0487,-0.036 -0.0729,-0.0804 -0.0729,-0.13333 0,-0.0762 0.0341,-0.13446 0.1018,-0.17466 0.0677,-0.0423 0.16497,-0.0636 0.29197,-0.0636 0.127,0 0.22869,0.0277 0.30489,0.0827 0.0783,0.0529 0.13111,0.13239 0.15865,0.23823 h 0.36845 c -0.0106,-0.21802 -0.0881,-0.38635 -0.23203,-0.50488 -0.14393,-0.11854 -0.34286,-0.17777 -0.59686,-0.17777 z m -5.13095,0.0506 v 0.36794 h 0.57516 v 1.18442 h -0.57516 v 0.36846 h 1.54977 v -0.36846 h -0.57464 v -1.55236 z m 20.70778,0.30489 c 0.14393,0 0.25153,0.0538 0.32349,0.16175 0.0516,0.0738 0.0856,0.17198 0.10129,0.29507 h -0.8878 c 0.0181,-0.11699 0.0549,-0.21324 0.11058,-0.28887 0.0825,-0.11219 0.20004,-0.16795 0.35244,-0.16795 z m -28.92744,0.009 c 0.15452,0 0.27495,0.0573 0.36174,0.17156 0.0868,0.11218 0.13022,0.27062 0.13022,0.47594 0,0.2032 -0.0434,0.36216 -0.13022,0.47646 -0.0868,0.11218 -0.20722,0.16846 -0.36174,0.16846 -0.15452,0 -0.27547,-0.0563 -0.36225,-0.16846 -0.0868,-0.1143 -0.13022,-0.27326 -0.13022,-0.47646 0,-0.20532 0.0434,-0.36376 0.13022,-0.47594 0.0868,-0.1143 0.20773,-0.17156 0.36225,-0.17156 z m 24.44761,0 c 0.15452,0 0.27495,0.0573 0.36173,0.17156 0.0868,0.11218 0.13023,0.27062 0.13023,0.47594 0,0.2032 -0.0434,0.36216 -0.13023,0.47646 -0.0868,0.11218 -0.20721,0.16846 -0.36173,0.16846 -0.15452,0 -0.27547,-0.0563 -0.36225,-0.16846 -0.0868,-0.1143 -0.13023,-0.27326 -0.13023,-0.47646 0,-0.20532 0.0435,-0.36376 0.13023,-0.47594 0.0868,-0.1143 0.20773,-0.17156 0.36225,-0.17156 z m 2.28255,0.003 c 0.1524,0 0.26988,0.0573 0.35243,0.17156 0.0847,0.11219 0.12712,0.26964 0.12712,0.47284 0,0.20108 -0.0425,0.35906 -0.12712,0.47336 -0.0826,0.11218 -0.20003,0.16795 -0.35243,0.16795 -0.1524,0 -0.27087,-0.0558 -0.35554,-0.16795 -0.0847,-0.11218 -0.12712,-0.27016 -0.12712,-0.47336 0,-0.2032 0.0425,-0.36065 0.12712,-0.47284 0.0847,-0.1143 0.20314,-0.17156 0.35554,-0.17156 z m -6.19859,0.16898 c 0.003,0.0521 0.004,0.10678 0.004,0.16433 0,0.31961 -0.0434,0.55557 -0.13022,0.70797 -0.0868,0.1524 -0.22105,0.22892 -0.40308,0.22892 -0.18203,0 -0.31629,-0.0765 -0.40308,-0.22892 -0.0213,-0.0374 -0.0403,-0.0797 -0.0563,-0.12713 z m -13.49272,0.56637 v 0.10284 c 0,0.0847 -0.0222,0.16217 -0.0667,0.23202 -0.0423,0.0677 -0.10059,0.12252 -0.17467,0.16485 -0.072,0.0402 -0.15144,0.0605 -0.23823,0.0605 -0.0826,0 -0.14822,-0.0203 -0.19688,-0.0605 -0.0487,-0.0423 -0.0729,-0.0971 -0.0729,-0.16485 0,-0.0699 0.0203,-0.12613 0.0605,-0.16846 0.0402,-0.0445 0.10143,-0.0741 0.18397,-0.0889 z m 19.71043,2.10633 c -0.0889,0 -0.15901,0.0242 -0.20981,0.0729 -0.0487,0.0466 -0.0729,0.1132 -0.0729,0.19998 0,0.0847 0.0242,0.15133 0.0729,0.19999 0.0508,0.0466 0.12091,0.0703 0.20981,0.0703 0.0889,0 0.15752,-0.0237 0.20618,-0.0703 0.0508,-0.0487 0.0765,-0.11532 0.0765,-0.19999 0,-0.0867 -0.0257,-0.15338 -0.0765,-0.19998 -0.0487,-0.0487 -0.11728,-0.0729 -0.20618,-0.0729 z m 1.67948,0.3142 v 0.49557 h -0.39998 v 0.36794 h 0.39998 v 0.92087 c 0,0.21802 0.0553,0.38734 0.16536,0.50798 0.11007,0.11854 0.26753,0.17777 0.47284,0.17777 0.20744,0 0.36934,-0.0632 0.48576,-0.19017 0.11852,-0.12911 0.18319,-0.31572 0.19379,-0.55914 h -0.35553 c -0.0233,0.13122 -0.0603,0.22747 -0.11111,0.28887 -0.0487,0.0614 -0.11532,0.0925 -0.19999,0.0925 -0.0825,0 -0.14525,-0.0277 -0.18758,-0.0827 -0.0423,-0.0571 -0.0636,-0.1386 -0.0636,-0.24443 v -0.91157 h 0.85731 v -0.36794 h -0.85731 v -0.49557 z m -28.42876,0.44441 c -0.17992,0 -0.3369,0.0415 -0.47025,0.12403 -0.13123,0.0825 -0.23391,0.20003 -0.30799,0.35243 -0.072,0.15029 -0.10801,0.32897 -0.10801,0.5364 0,0.20743 0.036,0.38762 0.10801,0.54002 0.0741,0.15028 0.17676,0.26678 0.30799,0.34933 0.13335,0.0825 0.29033,0.12351 0.47025,0.12351 0.18204,0 0.33851,-0.041 0.46974,-0.12351 0.13124,-0.0825 0.23293,-0.19905 0.30489,-0.34933 0.0741,-0.1524 0.11111,-0.33259 0.11111,-0.54002 0,-0.20743 -0.037,-0.38611 -0.11111,-0.5364 -0.072,-0.1524 -0.17365,-0.26989 -0.30489,-0.35243 -0.13123,-0.0826 -0.2877,-0.12403 -0.46974,-0.12403 z m 4.87981,0 c -0.0847,0 -0.16068,0.0183 -0.22841,0.0543 -0.0677,0.0339 -0.11955,0.0838 -0.15555,0.14935 h -0.1049 v -0.15245 h -0.77153 v 0.36794 h 0.39998 v 1.18442 h -0.34934 v 0.36846 h 1.32085 v -0.36846 h -0.57774 v -0.67282 c 0,-0.18416 0.0242,-0.32189 0.0729,-0.4129 0.0508,-0.091 0.12732,-0.13643 0.22892,-0.13643 0.16087,0 0.24081,0.1017 0.24081,0.3049 v 0.23151 h 0.4129 V 142.336 c 0,-0.19896 -0.0434,-0.35347 -0.13023,-0.46353 -0.0847,-0.11007 -0.20412,-0.16537 -0.35863,-0.16537 z m 1.86035,0 c -0.18203,0 -0.34145,0.0425 -0.47904,0.12713 -0.13547,0.0825 -0.24063,0.20003 -0.31471,0.35243 -0.072,0.1524 -0.108,0.33357 -0.108,0.54312 0,0.20532 0.036,0.38302 0.108,0.5333 0.072,0.15029 0.17366,0.26679 0.30489,0.34933 0.13124,0.0804 0.28574,0.12041 0.46354,0.12041 0.15028,0 0.28356,-0.0306 0.39998,-0.092 0.11853,-0.0614 0.21282,-0.14826 0.28267,-0.26044 0.072,-0.1143 0.11445,-0.24659 0.12712,-0.39688 h -0.36535 c -0.0318,0.12065 -0.0855,0.21494 -0.16175,0.28267 -0.0762,0.0656 -0.17049,0.0987 -0.28267,0.0987 -0.1524,0 -0.27087,-0.0553 -0.35553,-0.16536 -0.0847,-0.11218 -0.12713,-0.26865 -0.12713,-0.46974 0,-0.20743 0.0435,-0.36836 0.13023,-0.48266 0.0868,-0.11641 0.2097,-0.17466 0.36845,-0.17466 0.12489,0 0.22756,0.039 0.30799,0.1173 0.0825,0.0783 0.13732,0.18741 0.16485,0.32711 h 0.36225 c -0.006,-0.1651 -0.0444,-0.30774 -0.1142,-0.4284 -0.0699,-0.12066 -0.16513,-0.21396 -0.28577,-0.27956 -0.12066,-0.0677 -0.26284,-0.10181 -0.42582,-0.10181 z m 2.18436,0 c -0.17568,0 -0.3277,0.0415 -0.45682,0.12403 -0.12911,0.0804 -0.22982,0.19496 -0.30179,0.34313 -0.0698,0.14816 -0.1049,0.32488 -0.1049,0.5302 0,0.2159 0.0341,0.401 0.1018,0.55552 0.0699,0.1524 0.16906,0.26989 0.29818,0.35243 0.13123,0.0804 0.2892,0.12041 0.47335,0.12041 0.1397,0 0.26558,-0.0252 0.37776,-0.076 0.1143,-0.0529 0.21055,-0.12695 0.28887,-0.2222 0.0804,-0.0974 0.1377,-0.21289 0.17156,-0.34624 h -0.37775 c -0.0529,0.0931 -0.11759,0.16521 -0.19379,0.21601 -0.0762,0.0487 -0.16406,0.0729 -0.26355,0.0729 -0.16086,0 -0.2828,-0.0573 -0.36535,-0.17156 -0.0631,-0.0889 -0.10189,-0.20736 -0.11679,-0.35553 h 1.26039 c 0.002,-0.0254 0.003,-0.0506 0.003,-0.076 0.002,-0.0275 0.003,-0.0552 0.003,-0.0827 0,-0.20955 -0.0321,-0.38725 -0.0956,-0.5333 -0.0614,-0.14817 -0.1522,-0.26022 -0.27285,-0.33642 -0.11853,-0.0762 -0.2617,-0.11472 -0.42892,-0.11472 z m 4.48345,0 c -0.18203,0 -0.34197,0.0425 -0.47956,0.12713 -0.13546,0.0825 -0.24011,0.20003 -0.31419,0.35243 -0.072,0.1524 -0.108,0.33357 -0.108,0.54312 0,0.20532 0.036,0.38302 0.108,0.5333 0.072,0.15029 0.17366,0.26679 0.30489,0.34933 0.13124,0.0804 0.28574,0.12041 0.46354,0.12041 0.15028,0 0.28356,-0.0306 0.39998,-0.092 0.11853,-0.0614 0.21282,-0.14826 0.28267,-0.26044 0.0719,-0.1143 0.11387,-0.24659 0.1266,-0.39688 h -0.36483 c -0.0318,0.12065 -0.0861,0.21494 -0.16227,0.28267 -0.0762,0.0656 -0.16997,0.0987 -0.28215,0.0987 -0.1524,0 -0.27087,-0.0553 -0.35553,-0.16536 -0.0847,-0.11218 -0.12713,-0.26865 -0.12713,-0.46974 0,-0.20743 0.0435,-0.36836 0.13023,-0.48266 0.0868,-0.11641 0.20919,-0.17466 0.36793,-0.17466 0.12489,0 0.22756,0.039 0.30799,0.1173 0.0825,0.0783 0.13784,0.18741 0.16537,0.32711 h 0.36173 c -0.006,-0.1651 -0.0444,-0.30774 -0.1142,-0.4284 -0.0698,-0.12066 -0.16512,-0.21396 -0.28577,-0.27956 -0.12065,-0.0677 -0.26232,-0.10181 -0.4253,-0.10181 z m 2.14922,0 c -0.17991,0 -0.33638,0.0415 -0.46973,0.12403 -0.13124,0.0825 -0.23392,0.20003 -0.308,0.35243 -0.072,0.15029 -0.108,0.32897 -0.108,0.5364 0,0.20743 0.036,0.38762 0.108,0.54002 0.0741,0.15028 0.17676,0.26678 0.308,0.34933 0.13335,0.0825 0.28982,0.12351 0.46973,0.12351 0.18204,0 0.33903,-0.041 0.47026,-0.12351 0.13123,-0.0825 0.23241,-0.19905 0.30437,-0.34933 0.0741,-0.1524 0.11111,-0.33259 0.11111,-0.54002 0,-0.20743 -0.037,-0.38611 -0.11111,-0.5364 -0.072,-0.1524 -0.17314,-0.26989 -0.30437,-0.35243 -0.13123,-0.0826 -0.28822,-0.12403 -0.47026,-0.12403 z m 2.09548,0 c -0.091,0 -0.1641,0.0311 -0.2191,0.0925 -0.0304,0.0342 -0.0526,0.0762 -0.0677,0.12661 h -0.0909 v -0.16795 h -0.39378 v 1.92082 h 0.37156 v -1.30845 c 0,-0.0783 0.0148,-0.13653 0.0444,-0.17467 0.0297,-0.0402 0.0731,-0.0599 0.13022,-0.0599 0.0571,0 0.0996,0.0197 0.12713,0.0599 0.0296,0.0381 0.0444,0.0963 0.0444,0.17467 v 1.30845 h 0.37155 v -1.30845 c 0,-0.0783 0.0148,-0.13653 0.0444,-0.17467 0.0296,-0.0402 0.0726,-0.0599 0.1297,-0.0599 0.0572,0 0.10063,0.0197 0.13023,0.0599 0.0297,0.0381 0.0444,0.0963 0.0444,0.17467 v 1.30845 h 0.37155 v -1.464 c 0,-0.15874 -0.0326,-0.28213 -0.0982,-0.37103 -0.0635,-0.091 -0.1494,-0.13695 -0.25735,-0.13695 -0.0953,0 -0.17224,0.0311 -0.23151,0.0925 -0.0363,0.0378 -0.0626,0.0841 -0.0791,0.13953 h -0.091 c -0.0169,-0.0523 -0.0407,-0.0968 -0.0713,-0.13333 -0.055,-0.0656 -0.12514,-0.0987 -0.20981,-0.0987 z m 2.22261,0 c -0.0911,0 -0.16411,0.0311 -0.21911,0.0925 -0.0304,0.0342 -0.0532,0.0762 -0.0682,0.12661 h -0.0904 v -0.16795 h -0.39377 v 1.92082 h 0.37155 v -1.30845 c 0,-0.0783 0.0148,-0.13653 0.0444,-0.17467 0.0297,-0.0402 0.0731,-0.0599 0.13023,-0.0599 0.0571,0 0.0996,0.0197 0.12712,0.0599 0.0296,0.0381 0.0444,0.0963 0.0444,0.17467 v 1.30845 h 0.37156 v -1.30845 c 0,-0.0783 0.0148,-0.13653 0.0444,-0.17467 0.0297,-0.0402 0.0726,-0.0599 0.12971,-0.0599 0.0572,0 0.10062,0.0197 0.13022,0.0599 0.0296,0.0381 0.0444,0.0963 0.0444,0.17467 v 1.30845 h 0.37156 v -1.464 c 0,-0.15874 -0.0326,-0.28213 -0.0982,-0.37103 -0.0635,-0.091 -0.14939,-0.13695 -0.25735,-0.13695 -0.0952,0 -0.17276,0.0311 -0.23202,0.0925 -0.0363,0.0378 -0.0626,0.0841 -0.0791,0.13953 h -0.0904 c -0.0169,-0.0523 -0.0407,-0.0968 -0.0713,-0.13333 -0.055,-0.0656 -0.12514,-0.0987 -0.2098,-0.0987 z m 4.73718,0 c -0.0931,0 -0.17904,0.0183 -0.25735,0.0543 -0.0762,0.036 -0.1364,0.0868 -0.18087,0.15245 h -0.10129 v -0.15555 h -0.40049 v 1.92082 h 0.40049 v -1.13379 c 0,-0.15028 0.0326,-0.26429 0.0982,-0.34261 0.0656,-0.0783 0.16285,-0.11731 0.29197,-0.11731 0.12913,0 0.22689,0.039 0.29249,0.11731 0.0677,0.0783 0.10129,0.19233 0.10129,0.34261 v 1.13379 h 0.39997 v -1.23507 c 0,-0.1524 -0.0261,-0.28371 -0.0791,-0.39378 -0.0529,-0.11006 -0.12696,-0.19498 -0.22221,-0.25424 -0.0952,-0.0593 -0.20978,-0.0889 -0.34313,-0.0889 z m -26.819039,5.2e-4 c -0.245534,0 -0.43856,0.0538 -0.57826,0.16175 -0.1397,0.10794 -0.209289,0.25701 -0.209289,0.44751 0,0.16722 0.05085,0.29853 0.152445,0.39378 0.1016,0.0931 0.258072,0.15333 0.469739,0.18087 l 0.24753,0.0351 c 0.09948,0.0148 0.175026,0.039 0.225826,0.0729 0.0508,0.0338 0.07596,0.0783 0.07596,0.13333 0,0.0762 -0.03257,0.13543 -0.09819,0.17776 -0.0635,0.0402 -0.155819,0.0605 -0.276469,0.0605 -0.1143,0 -0.208586,-0.0242 -0.28267,-0.0729 -0.07197,-0.0487 -0.122812,-0.11879 -0.152445,-0.20981 h -0.371554 c 0.0127,0.20532 0.08923,0.36427 0.228927,0.47646 0.1397,0.11218 0.331225,0.16795 0.574642,0.16795 0.160867,0 0.298595,-0.0242 0.412895,-0.0729 0.114303,-0.0508 0.202169,-0.12189 0.263549,-0.21291 0.06139,-0.091 0.09198,-0.1996 0.09198,-0.3266 0,-0.16722 -0.05084,-0.29754 -0.152445,-0.39067 -0.1016,-0.0931 -0.258589,-0.1543 -0.470256,-0.18397 l -0.24753,-0.032 c -0.1016,-0.0148 -0.17761,-0.039 -0.22841,-0.0729 -0.04869,-0.036 -0.07286,-0.0804 -0.07286,-0.13333 0,-0.0762 0.03355,-0.13446 0.101286,-0.17466 0.06773,-0.0423 0.164971,-0.0636 0.291971,-0.0636 0.127,0 0.228691,0.0277 0.304891,0.0827 0.07832,0.0529 0.131134,0.13239 0.158647,0.23823 h 0.368453 c -0.01058,-0.21802 -0.08758,-0.38635 -0.231511,-0.50488 -0.143933,-0.11854 -0.342862,-0.17777 -0.596862,-0.17777 z m 3.619419,0.0506 v 1.23817 c 0,0.15029 0.0261,0.28061 0.0791,0.39067 0.0529,0.11005 0.12696,0.19544 0.22221,0.25684 0.0974,0.0593 0.2119,0.0889 0.34313,0.0889 0.0952,0 0.18115,-0.0177 0.25735,-0.0537 0.0762,-0.036 0.1364,-0.0878 0.18087,-0.15555 h 0.10129 v 0.15555 h 0.40049 v -1.92082 h -0.40049 v 1.13327 c 0,0.1524 -0.0326,0.26792 -0.0982,0.34623 -0.0656,0.0783 -0.16285,0.1173 -0.29197,0.1173 -0.12912,0 -0.22786,-0.039 -0.29559,-0.1173 -0.0656,-0.0783 -0.0982,-0.19383 -0.0982,-0.34623 v -1.13327 z m 20.00239,0 v 1.23817 c 0,0.15029 0.0266,0.28061 0.0796,0.39067 0.0529,0.11005 0.12696,0.19544 0.22221,0.25684 0.0974,0.0593 0.21138,0.0889 0.34261,0.0889 0.0953,0 0.18115,-0.0177 0.25735,-0.0537 0.0762,-0.036 0.1364,-0.0878 0.18087,-0.15555 h 0.1018 v 0.15555 h 0.39997 v -1.92082 h -0.39997 v 1.13327 c 0,0.1524 -0.0331,0.26792 -0.0987,0.34623 -0.0656,0.0783 -0.16286,0.1173 -0.29198,0.1173 -0.12912,0 -0.22785,-0.039 -0.29558,-0.1173 -0.0656,-0.0783 -0.0982,-0.19383 -0.0982,-0.34623 v -1.13327 z m 4.58474,0 v 0.36794 h 0.57464 v 1.18442 h -0.57464 v 0.36846 h 1.54926 v -0.36846 h -0.57464 v -1.55236 z m 4.19716,0 0.60048,1.76217 h 0.31781 l -0.0925,0.30437 c -0.0233,0.0656 -0.0489,0.11348 -0.0765,0.14315 -0.0275,0.0297 -0.0645,0.0444 -0.11111,0.0444 -0.0487,0 -0.0877,-0.0158 -0.1173,-0.0475 -0.0297,-0.0297 -0.0563,-0.0776 -0.0796,-0.14315 h -0.35863 c 0.0148,0.1778 0.0711,0.31356 0.16847,0.4067 0.0974,0.0931 0.23064,0.13952 0.39997,0.13952 0.12277,0 0.22938,-0.038 0.32039,-0.1142 0.091,-0.0762 0.15914,-0.18333 0.20361,-0.32091 l 0.66663,-2.17455 h -0.38758 l -0.4315,1.41904 h -0.12712 l -0.47646,-1.41904 z m -21.27261,0.30489 c 0.14394,0 0.25205,0.0538 0.32402,0.16175 0.0516,0.0738 0.0851,0.17198 0.10076,0.29507 h -0.8878 c 0.0181,-0.11699 0.0549,-0.21324 0.11059,-0.28887 0.0825,-0.11219 0.20003,-0.16795 0.35243,-0.16795 z m -8.92452,0.009 c 0.15452,0 0.27495,0.0573 0.36174,0.17156 0.0868,0.11218 0.13022,0.27062 0.13022,0.47594 0,0.2032 -0.0434,0.36216 -0.13022,0.47646 -0.0868,0.11218 -0.20722,0.16846 -0.36174,0.16846 -0.15452,0 -0.27547,-0.0563 -0.36225,-0.16846 -0.0868,-0.1143 -0.13022,-0.27326 -0.13022,-0.47646 0,-0.20532 0.0434,-0.36376 0.13022,-0.47594 0.0868,-0.1143 0.20773,-0.17156 0.36225,-0.17156 z m 15.55719,0 c 0.15452,0 0.27548,0.0573 0.36226,0.17156 0.0868,0.11218 0.13022,0.27062 0.13022,0.47594 0,0.2032 -0.0434,0.36216 -0.13022,0.47646 -0.0868,0.11218 -0.20774,0.16846 -0.36226,0.16846 -0.15451,0 -0.27494,-0.0563 -0.36173,-0.16846 -0.0868,-0.1143 -0.13023,-0.27326 -0.13023,-0.47646 0,-0.20532 0.0435,-0.36376 0.13023,-0.47594 0.0868,-0.1143 0.20722,-0.17156 0.36173,-0.17156 z m -8.81031,2.84478 c -0.0889,0 -0.15901,0.0242 -0.20981,0.0729 -0.0487,0.0466 -0.0729,0.1132 -0.0729,0.19998 0,0.0847 0.0242,0.15133 0.0729,0.19999 0.0508,0.0466 0.12091,0.0703 0.20981,0.0703 0.0889,0 0.15752,-0.0237 0.20619,-0.0703 0.0508,-0.0487 0.076,-0.11532 0.076,-0.19999 0,-0.0867 -0.0252,-0.15338 -0.076,-0.19998 -0.0487,-0.0487 -0.11729,-0.0729 -0.20619,-0.0729 z m 22.225,0 c -0.0889,0 -0.15901,0.0242 -0.20981,0.0729 -0.0487,0.0466 -0.0729,0.1132 -0.0729,0.19998 0,0.0847 0.0242,0.15133 0.0729,0.19999 0.0508,0.0466 0.12091,0.0703 0.20981,0.0703 0.0889,0 0.15752,-0.0237 0.20619,-0.0703 0.0508,-0.0487 0.076,-0.11532 0.076,-0.19999 0,-0.0867 -0.0252,-0.15338 -0.076,-0.19998 -0.0487,-0.0487 -0.11729,-0.0729 -0.20619,-0.0729 z m -20.88555,0.0382 v 2.69235 h 0.40049 v -0.17777 h 0.10129 c 0.0402,0.0699 0.10194,0.12613 0.18449,0.16846 0.0826,0.0402 0.17435,0.0599 0.27595,0.0599 0.15663,0 0.29338,-0.041 0.40979,-0.12351 0.11639,-0.0825 0.20622,-0.19904 0.26975,-0.34933 0.0635,-0.1524 0.0951,-0.33161 0.0951,-0.53692 0,-0.20743 -0.0316,-0.38611 -0.0951,-0.5364 -0.0635,-0.1524 -0.15333,-0.26989 -0.26975,-0.35243 -0.11641,-0.0826 -0.25316,-0.12351 -0.40979,-0.12351 -0.1016,0 -0.1934,0.0207 -0.27595,0.063 -0.0826,0.0402 -0.14429,0.0965 -0.18449,0.16847 h -0.10129 v -0.9524 z m 10.09654,0 v 0.9524 h -0.10128 c -0.0402,-0.072 -0.10193,-0.12827 -0.18449,-0.16847 -0.0825,-0.0423 -0.17435,-0.0636 -0.27595,-0.0636 -0.15663,0 -0.29337,0.0415 -0.40979,0.12403 -0.11645,0.0825 -0.20629,0.20003 -0.26975,0.35243 -0.0635,0.15029 -0.0951,0.32897 -0.0951,0.5364 0,0.20531 0.0316,0.38452 0.0951,0.53692 0.0635,0.15029 0.15333,0.26678 0.26975,0.34933 0.11642,0.0825 0.25316,0.12351 0.40979,0.12351 0.1016,0 0.19341,-0.0203 0.27595,-0.0605 0.0826,-0.0423 0.14429,-0.0981 0.18449,-0.16795 h 0.10128 v 0.17777 h 0.4005 v -2.69235 z m 4.44521,0 v 0.9524 h -0.1018 c -0.0402,-0.072 -0.10142,-0.12827 -0.18397,-0.16847 -0.0825,-0.0423 -0.17435,-0.0636 -0.27595,-0.0636 -0.15664,0 -0.29338,0.0415 -0.4098,0.12403 -0.11638,0.0825 -0.20621,0.20003 -0.26975,0.35243 -0.0635,0.15029 -0.0956,0.32897 -0.0956,0.5364 0,0.20531 0.0321,0.38452 0.0956,0.53692 0.0635,0.15029 0.15333,0.26678 0.26975,0.34933 0.11642,0.0825 0.25316,0.12351 0.4098,0.12351 0.1016,0 0.1934,-0.0203 0.27595,-0.0605 0.0826,-0.0423 0.14377,-0.0981 0.18397,-0.16795 h 0.1018 v 0.17777 h 0.39998 v -2.69235 z m -18.64692,0.27596 v 0.49557 h -0.39998 v 0.36794 h 0.39998 v 0.92087 c 0,0.21802 0.0553,0.38734 0.16536,0.50798 0.11007,0.11854 0.26752,0.17777 0.47284,0.17777 0.20743,0 0.36935,-0.0632 0.48576,-0.19017 0.11852,-0.12911 0.18319,-0.31572 0.19379,-0.55914 h -0.35554 c -0.0233,0.13122 -0.0603,0.22747 -0.1111,0.28887 -0.0487,0.0614 -0.11532,0.0925 -0.19999,0.0925 -0.0826,0 -0.14525,-0.0277 -0.18759,-0.0827 -0.0423,-0.0571 -0.0636,-0.1386 -0.0636,-0.24443 v -0.91157 h 0.85731 v -0.36794 h -0.85731 v -0.49557 z m 8.89041,0 v 0.49557 h -0.40049 v 0.36794 h 0.40049 v 0.92087 c 0,0.21802 0.0548,0.38734 0.16485,0.50798 0.11006,0.11854 0.26752,0.17777 0.47284,0.17777 0.20743,0 0.36934,-0.0632 0.48576,-0.19017 0.11852,-0.12911 0.18318,-0.31572 0.19378,-0.55914 h -0.35553 c -0.0233,0.13122 -0.0603,0.22747 -0.11111,0.28887 -0.0487,0.0614 -0.11532,0.0925 -0.19998,0.0925 -0.0826,0 -0.14474,-0.0277 -0.18707,-0.0827 -0.0423,-0.0571 -0.0636,-0.1386 -0.0636,-0.24443 v -0.91157 h 0.85731 v -0.36794 h -0.85731 v -0.49557 z m -15.021305,0.44441 c -0.182034,0 -0.341974,0.0425 -0.479558,0.12713 -0.135466,0.0825 -0.240109,0.20003 -0.314192,0.35243 -0.07197,0.1524 -0.108004,0.33357 -0.108004,0.54312 0,0.20532 0.03604,0.38302 0.108004,0.5333 0.07197,0.15029 0.173657,0.26679 0.304891,0.34933 0.131233,0.0804 0.285737,0.12041 0.463537,0.12041 0.150284,0 0.283559,-0.0306 0.399976,-0.092 0.118533,-0.0614 0.21282,-0.14826 0.28267,-0.26044 0.07197,-0.1143 0.114424,-0.24659 0.127124,-0.39688 h -0.365352 c -0.03175,0.12065 -0.08555,0.21494 -0.161748,0.28267 -0.0762,0.0656 -0.170486,0.0987 -0.28267,0.0987 -0.1524,0 -0.270867,-0.0553 -0.355534,-0.16536 -0.08467,-0.11218 -0.127124,-0.26865 -0.127124,-0.46974 0,-0.20743 0.04344,-0.36836 0.130225,-0.48266 0.08678,-0.11641 0.209703,-0.17466 0.368453,-0.17466 0.124883,0 0.227558,0.039 0.307992,0.1173 0.08255,0.0783 0.137334,0.18741 0.164847,0.32711 h 0.362252 c -0.0063,-0.1651 -0.04487,-0.30774 -0.114722,-0.4284 -0.06985,-0.12066 -0.16512,-0.21396 -0.28577,-0.27956 -0.12065,-0.0677 -0.262314,-0.10181 -0.425297,-0.10181 z m 2.149735,0 c -0.17992,0 -0.3369,0.0415 -0.47025,0.12403 -0.13123,0.0825 -0.23391,0.20003 -0.30799,0.35243 -0.072,0.15029 -0.10801,0.32897 -0.10801,0.5364 0,0.20743 0.036,0.38762 0.10801,0.54002 0.0741,0.15028 0.17676,0.26678 0.30799,0.34933 0.13335,0.0825 0.29033,0.12351 0.47025,0.12351 0.18204,0 0.33851,-0.041 0.46974,-0.12351 0.13124,-0.0825 0.23293,-0.19905 0.30489,-0.34933 0.0741,-0.1524 0.11111,-0.33259 0.11111,-0.54002 0,-0.20743 -0.037,-0.38611 -0.11111,-0.5364 -0.072,-0.1524 -0.17365,-0.26989 -0.30489,-0.35243 -0.13123,-0.0826 -0.2877,-0.12403 -0.46974,-0.12403 z m 2.38746,0 c -0.0931,0 -0.17903,0.0183 -0.25735,0.0543 -0.0762,0.036 -0.1364,0.0868 -0.18087,0.15245 h -0.1018 v -0.15555 h -0.39998 v 1.92082 h 0.40049 v -1.13379 c 0,-0.15028 0.0326,-0.26429 0.0982,-0.34261 0.0656,-0.0783 0.16286,-0.11731 0.29197,-0.11731 0.12913,0 0.22637,0.039 0.29197,0.11731 0.0677,0.0783 0.10181,0.19233 0.10181,0.34261 v 1.13379 h 0.39997 v -1.23507 c 0,-0.1524 -0.0261,-0.28371 -0.0791,-0.39378 -0.0529,-0.11006 -0.12697,-0.19498 -0.22221,-0.25424 -0.0953,-0.0593 -0.20979,-0.0889 -0.34313,-0.0889 z m 13.20487,0 c -0.17568,0 -0.32822,0.0415 -0.45733,0.12403 -0.12912,0.0804 -0.22931,0.19496 -0.30128,0.34313 -0.0698,0.14816 -0.1049,0.32488 -0.1049,0.5302 0,0.2159 0.0336,0.401 0.10129,0.55552 0.0698,0.1524 0.16957,0.26989 0.29869,0.35243 0.13123,0.0804 0.28869,0.12041 0.47284,0.12041 0.1397,0 0.26608,-0.0252 0.37827,-0.076 0.1143,-0.0529 0.21056,-0.12695 0.28887,-0.2222 0.0804,-0.0974 0.13718,-0.21289 0.17105,-0.34624 h -0.37776 c -0.0529,0.0931 -0.11758,0.16521 -0.19378,0.21601 -0.0762,0.0487 -0.16356,0.0729 -0.26304,0.0729 -0.16086,0 -0.2828,-0.0573 -0.36535,-0.17156 -0.063,-0.0889 -0.10189,-0.20736 -0.11679,-0.35553 h 1.25987 c 0.002,-0.0254 0.003,-0.0506 0.003,-0.076 0.002,-0.0275 0.003,-0.0552 0.003,-0.0827 0,-0.20955 -0.0316,-0.38725 -0.0951,-0.5333 -0.0614,-0.14817 -0.15271,-0.26022 -0.27337,-0.33642 -0.11853,-0.0762 -0.26118,-0.11472 -0.4284,-0.11472 z m 8.8899,0 c -0.17569,0 -0.32822,0.0415 -0.45734,0.12403 -0.12912,0.0804 -0.2293,0.19496 -0.30127,0.34313 -0.0698,0.14816 -0.1049,0.32488 -0.1049,0.5302 0,0.2159 0.0335,0.401 0.10128,0.55552 0.0699,0.1524 0.16957,0.26989 0.29869,0.35243 0.13124,0.0804 0.2887,0.12041 0.47284,0.12041 0.1397,0 0.26609,-0.0252 0.37827,-0.076 0.1143,-0.0529 0.21056,-0.12695 0.28888,-0.2222 0.0804,-0.0974 0.13718,-0.21289 0.17104,-0.34624 h -0.37775 c -0.0529,0.0931 -0.11707,0.16521 -0.19327,0.21601 -0.0762,0.0487 -0.16407,0.0729 -0.26355,0.0729 -0.16087,0 -0.2828,-0.0573 -0.36535,-0.17156 -0.0631,-0.0889 -0.1019,-0.20736 -0.11679,-0.35553 h 1.25987 c 0.002,-0.0254 0.003,-0.0506 0.003,-0.076 0.002,-0.0275 0.003,-0.0552 0.003,-0.0827 0,-0.20955 -0.0316,-0.38725 -0.0951,-0.5333 -0.0614,-0.14817 -0.15272,-0.26022 -0.27337,-0.33642 -0.11853,-0.0762 -0.26119,-0.11472 -0.4284,-0.11472 z m 6.50245,0 c -0.15452,0 -0.28878,0.0395 -0.40308,0.11782 -0.11215,0.0783 -0.20002,0.1884 -0.26355,0.33022 -0.0614,0.14181 -0.092,0.31014 -0.092,0.50488 0,0.18838 0.0306,0.35226 0.092,0.49196 0.0635,0.1397 0.15136,0.24781 0.26355,0.32401 0.1143,0.0762 0.24856,0.1142 0.40308,0.1142 0.0931,0 0.18001,-0.0183 0.26045,-0.0543 0.0804,-0.036 0.14066,-0.0854 0.18086,-0.14883 h 0.10181 v 0.20619 c 0,0.13124 -0.0415,0.23391 -0.12403,0.30799 -0.0804,0.0741 -0.19347,0.11111 -0.33951,0.11111 -0.11007,0 -0.20534,-0.0232 -0.28577,-0.0698 -0.0783,-0.0445 -0.1346,-0.10814 -0.16847,-0.19069 h -0.38757 c 0.0106,0.127 0.0521,0.23609 0.12402,0.32711 0.072,0.0932 0.16921,0.16424 0.29197,0.21291 0.12277,0.0508 0.26495,0.076 0.42582,0.076 0.17991,0 0.33442,-0.0316 0.46354,-0.0951 0.12911,-0.0614 0.22733,-0.14925 0.29507,-0.26355 0.0699,-0.11219 0.1049,-0.24546 0.1049,-0.39998 v -1.85105 h -0.39997 v 0.16485 h -0.10181 c -0.0381,-0.0657 -0.0973,-0.11748 -0.17776,-0.15555 -0.0804,-0.0402 -0.1683,-0.0605 -0.26355,-0.0605 z m 2.51767,0 c -0.0931,0 -0.17852,0.0183 -0.25683,0.0543 -0.0762,0.036 -0.13692,0.0868 -0.18138,0.15245 h -0.10129 v -0.15555 h -0.39998 v 1.92082 h 0.39998 v -1.13379 c 0,-0.15028 0.0326,-0.26429 0.0982,-0.34261 0.0656,-0.0783 0.16285,-0.11731 0.29197,-0.11731 0.12913,0 0.22689,0.039 0.29249,0.11731 0.0677,0.0783 0.10128,0.19233 0.10128,0.34261 v 1.13379 h 0.39998 v -1.23507 c 0,-0.1524 -0.0261,-0.28371 -0.0791,-0.39378 -0.0529,-0.11006 -0.12695,-0.19498 -0.22221,-0.25424 -0.0952,-0.0593 -0.20977,-0.0889 -0.34313,-0.0889 z m -6.81664,5.2e-4 c -0.24553,0 -0.43804,0.0538 -0.57774,0.16175 -0.1397,0.10794 -0.2098,0.25701 -0.2098,0.44751 0,0.16722 0.0508,0.29853 0.15244,0.39378 0.1016,0.0931 0.25807,0.15333 0.46974,0.18087 l 0.24805,0.0351 c 0.0995,0.0148 0.17451,0.039 0.22531,0.0729 0.0508,0.0338 0.076,0.0783 0.076,0.13333 0,0.0762 -0.0326,0.13543 -0.0982,0.17776 -0.0635,0.0402 -0.15582,0.0605 -0.27646,0.0605 -0.1143,0 -0.20807,-0.0242 -0.28216,-0.0729 -0.072,-0.0487 -0.12284,-0.11879 -0.15244,-0.20981 h -0.37156 c 0.0127,0.20532 0.0887,0.36427 0.22841,0.47646 0.1397,0.11218 0.33123,0.16795 0.57465,0.16795 0.16086,0 0.29859,-0.0242 0.41289,-0.0729 0.11429,-0.0508 0.20215,-0.12189 0.26355,-0.21291 0.0614,-0.091 0.092,-0.1996 0.092,-0.3266 0,-0.16722 -0.0508,-0.29754 -0.15244,-0.39067 -0.1016,-0.0931 -0.25807,-0.1543 -0.46974,-0.18397 l -0.24753,-0.032 c -0.1016,-0.0148 -0.17813,-0.039 -0.22893,-0.0729 -0.0487,-0.036 -0.0729,-0.0804 -0.0729,-0.13333 0,-0.0762 0.0341,-0.13446 0.1018,-0.17466 0.0677,-0.0423 0.16497,-0.0636 0.29197,-0.0636 0.127,0 0.22869,0.0277 0.30489,0.0827 0.0783,0.0529 0.13112,0.13239 0.15865,0.23823 h 0.36845 c -0.0106,-0.21802 -0.0881,-0.38635 -0.23202,-0.50488 -0.14394,-0.11854 -0.34287,-0.17777 -0.59687,-0.17777 z m 8.8899,0 c -0.24553,0 -0.43804,0.0538 -0.57774,0.16175 -0.1397,0.10794 -0.20981,0.25701 -0.20981,0.44751 0,0.16722 0.0508,0.29853 0.15245,0.39378 0.1016,0.0931 0.25859,0.15333 0.47025,0.18087 l 0.24753,0.0351 c 0.0995,0.0148 0.17451,0.039 0.22531,0.0729 0.0508,0.0338 0.0765,0.0783 0.0765,0.13333 0,0.0762 -0.0331,0.13543 -0.0987,0.17776 -0.0635,0.0402 -0.1553,0.0605 -0.27595,0.0605 -0.1143,0 -0.20859,-0.0242 -0.28267,-0.0729 -0.072,-0.0487 -0.12285,-0.11879 -0.15245,-0.20981 h -0.37155 c 0.0127,0.20532 0.0887,0.36427 0.22841,0.47646 0.1397,0.11218 0.33122,0.16795 0.57464,0.16795 0.16087,0 0.2986,-0.0242 0.4129,-0.0729 0.11428,-0.0508 0.20215,-0.12189 0.26355,-0.21291 0.0614,-0.091 0.092,-0.1996 0.092,-0.3266 0,-0.16722 -0.0508,-0.29754 -0.15245,-0.39067 -0.1016,-0.0931 -0.25807,-0.1543 -0.46973,-0.18397 l -0.24753,-0.032 c -0.1016,-0.0148 -0.17813,-0.039 -0.22893,-0.0729 -0.0487,-0.036 -0.0729,-0.0804 -0.0729,-0.13333 0,-0.0762 0.0341,-0.13446 0.1018,-0.17466 0.0677,-0.0423 0.16497,-0.0636 0.29197,-0.0636 0.127,0 0.22869,0.0277 0.30489,0.0827 0.0783,0.0529 0.13111,0.13239 0.15865,0.23823 h 0.36845 c -0.0106,-0.21802 -0.0881,-0.38635 -0.23203,-0.50488 -0.14393,-0.11854 -0.34286,-0.17777 -0.59686,-0.17777 z m -29.57804,0.0506 v 0.36794 h 0.57464 v 1.18442 h -0.57464 v 0.36846 h 1.54926 v -0.36846 h -0.57464 v -1.55236 z m 4.30516,0 v 1.23817 c 0,0.15029 0.0267,0.28061 0.0796,0.39067 0.0529,0.11005 0.12695,0.19544 0.22221,0.25684 0.0974,0.0593 0.21138,0.0889 0.34261,0.0889 0.0952,0 0.18115,-0.0177 0.25735,-0.0537 0.0762,-0.036 0.1364,-0.0878 0.18087,-0.15555 h 0.1018 v 0.15555 h 0.39997 v -1.92082 h -0.39997 v 1.13327 c 0,0.1524 -0.0331,0.26792 -0.0987,0.34623 -0.0656,0.0783 -0.16286,0.1173 -0.29198,0.1173 -0.12911,0 -0.22733,-0.039 -0.29507,-0.1173 -0.0656,-0.0783 -0.0987,-0.19383 -0.0987,-0.34623 v -1.13327 z m 17.91984,0 v 0.36794 h 0.57464 v 1.18442 h -0.57464 v 0.36846 h 1.54926 v -0.36846 h -0.57464 v -1.55236 z m -12.63024,0.30489 c 0.14394,0 0.25205,0.0538 0.32402,0.16175 0.0516,0.0738 0.0851,0.17198 0.10076,0.29507 h -0.8878 c 0.0181,-0.11699 0.0549,-0.21324 0.11059,-0.28887 0.0825,-0.11219 0.20003,-0.16795 0.35243,-0.16795 z m 8.8899,0 c 0.14393,0 0.25205,0.0538 0.32401,0.16175 0.0516,0.0738 0.0851,0.17198 0.10077,0.29507 h -0.8878 c 0.0181,-0.11699 0.0549,-0.21324 0.11059,-0.28887 0.0825,-0.11219 0.20003,-0.16795 0.35243,-0.16795 z m -24.48223,0.009 c 0.15452,0 0.27495,0.0573 0.36174,0.17156 0.0868,0.11218 0.13022,0.27062 0.13022,0.47594 0,0.2032 -0.0434,0.36216 -0.13022,0.47646 -0.0868,0.11218 -0.20722,0.16846 -0.36174,0.16846 -0.15452,0 -0.27547,-0.0563 -0.36225,-0.16846 -0.0868,-0.1143 -0.13022,-0.27326 -0.13022,-0.47646 0,-0.20532 0.0434,-0.36376 0.13022,-0.47594 0.0868,-0.1143 0.20773,-0.17156 0.36225,-0.17156 z m 8.95036,0.003 c 0.1524,0 0.26988,0.0573 0.35244,0.17156 0.0847,0.11219 0.1266,0.26964 0.1266,0.47284 0,0.20108 -0.0419,0.35906 -0.1266,0.47336 -0.0826,0.11218 -0.20004,0.16795 -0.35244,0.16795 -0.1524,0 -0.27086,-0.0558 -0.35553,-0.16795 -0.0847,-0.11218 -0.12713,-0.27016 -0.12713,-0.47336 0,-0.2032 0.0425,-0.36065 0.12713,-0.47284 0.0847,-0.1143 0.20313,-0.17156 0.35553,-0.17156 z m 8.76898,0 c 0.1524,0 0.27138,0.0573 0.35605,0.17156 0.0847,0.11219 0.1266,0.26964 0.1266,0.47284 0,0.20108 -0.0419,0.35906 -0.1266,0.47336 -0.0847,0.11218 -0.20365,0.16795 -0.35605,0.16795 -0.1524,0 -0.27087,-0.0558 -0.35554,-0.16795 -0.0825,-0.11218 -0.1235,-0.27016 -0.1235,-0.47336 0,-0.2032 0.041,-0.36065 0.1235,-0.47284 0.0847,-0.1143 0.20314,-0.17156 0.35554,-0.17156 z m 4.4452,0 c 0.1524,0 0.27087,0.0573 0.35554,0.17156 0.0847,0.11219 0.12712,0.26964 0.12712,0.47284 0,0.20108 -0.0425,0.35906 -0.12712,0.47336 -0.0847,0.11218 -0.20314,0.16795 -0.35554,0.16795 -0.1524,0 -0.27086,-0.0558 -0.35553,-0.16795 -0.0825,-0.11218 -0.12402,-0.27016 -0.12402,-0.47336 0,-0.2032 0.0415,-0.36065 0.12402,-0.47284 0.0847,-0.1143 0.20313,-0.17156 0.35553,-0.17156 z m 8.92194,0 c 0.14605,0 0.25908,0.0508 0.33951,0.15244 0.0825,0.1016 0.12403,0.24476 0.12403,0.42892 0,0.18414 -0.0415,0.32679 -0.12403,0.42839 -0.0804,0.1016 -0.19346,0.15245 -0.33951,0.15245 -0.14605,0 -0.26058,-0.0508 -0.34313,-0.15245 -0.0825,-0.1016 -0.12403,-0.24425 -0.12403,-0.42839 0,-0.18416 0.0415,-0.32732 0.12403,-0.42892 0.0825,-0.1016 0.19708,-0.15244 0.34313,-0.15244 z m 6.69571,0.96531 c -0.10373,0 -0.18419,0.0286 -0.24132,0.0858 -0.0571,0.0571 -0.0853,0.13958 -0.0853,0.24753 0,0.10584 0.0281,0.18827 0.0853,0.24753 0.0571,0.0571 0.1376,0.0858 0.24132,0.0858 0.10374,0 0.1842,-0.0286 0.24133,-0.0858 0.0571,-0.0593 0.0858,-0.14169 0.0858,-0.24753 0,-0.10796 -0.0286,-0.19039 -0.0858,-0.24753 -0.0571,-0.0571 -0.13761,-0.0858 -0.24133,-0.0858 z m -11.03291,1.87637 c -0.0889,0 -0.15901,0.0242 -0.20981,0.0729 -0.0487,0.0466 -0.0729,0.1132 -0.0729,0.19998 0,0.0847 0.0242,0.15133 0.0729,0.19999 0.0508,0.0466 0.12091,0.0703 0.20981,0.0703 0.0889,0 0.15752,-0.0237 0.20618,-0.0703 0.0508,-0.0487 0.0765,-0.11532 0.0765,-0.19999 0,-0.0867 -0.0257,-0.15338 -0.0765,-0.19998 -0.0487,-0.0487 -0.11728,-0.0729 -0.20618,-0.0729 z m -6.3438,0.0382 v 0.9524 h -0.10129 c -0.0402,-0.072 -0.10193,-0.12827 -0.18448,-0.16847 -0.0825,-0.0423 -0.17436,-0.0636 -0.27596,-0.0636 -0.15663,0 -0.29337,0.0415 -0.40979,0.12403 -0.11645,0.0825 -0.20628,0.20003 -0.26975,0.35243 -0.0635,0.15029 -0.0956,0.32897 -0.0956,0.5364 0,0.20531 0.0321,0.38452 0.0956,0.53692 0.0635,0.15029 0.15334,0.26678 0.26975,0.34933 0.11642,0.0825 0.25316,0.12351 0.40979,0.12351 0.1016,0 0.19341,-0.0203 0.27596,-0.0605 0.0826,-0.0423 0.14428,-0.0981 0.18448,-0.16795 h 0.10129 v 0.17777 h 0.39997 v -2.69235 z m 9.93479,0 v 2.69235 h 0.39998 v -1.13379 c 0,-0.15028 0.0326,-0.26429 0.0982,-0.34261 0.0656,-0.0783 0.16338,-0.11731 0.29249,-0.11731 0.12913,0 0.22637,0.039 0.29197,0.11731 0.0677,0.0783 0.10181,0.19233 0.10181,0.34261 v 1.13379 h 0.39997 v -1.23507 c 0,-0.1524 -0.0266,-0.28371 -0.0796,-0.39378 -0.0529,-0.11006 -0.12696,-0.19498 -0.22221,-0.25424 -0.0952,-0.0593 -0.20978,-0.0889 -0.34313,-0.0889 -0.0931,0 -0.17851,0.0183 -0.25683,0.0543 -0.0762,0.036 -0.13692,0.0868 -0.18139,0.15245 h -0.10128 v -0.92708 z m -32.512226,0.0982 c -0.3175,0 -0.556402,0.11106 -0.717269,0.33331 -0.160867,0.22013 -0.241329,0.55037 -0.241329,0.99064 0,0.4318 0.07306,0.76007 0.219108,0.98443 0.148167,0.22225 0.353517,0.33332 0.615983,0.33332 0.116417,0 0.216607,-0.0222 0.301274,-0.0667 0.08466,-0.0445 0.144881,-0.10566 0.180867,-0.18397 h 0.101803 v 0.20309 h 0.355534 v -1.28933 H 98.70457 v 0.37775 h 0.517281 c 0,0.11219 -0.02123,0.21388 -0.06356,0.30489 -0.04022,0.0911 -0.095,0.16411 -0.164848,0.21911 -0.06773,0.0529 -0.145244,0.0796 -0.232027,0.0796 -0.186267,0 -0.323995,-0.0775 -0.412895,-0.23202 -0.08678,-0.15664 -0.129708,-0.39999 -0.129708,-0.73019 0,-0.31962 0.04443,-0.55557 0.133326,-0.70797 0.0889,-0.1524 0.225127,-0.22841 0.409277,-0.22841 0.13335,0 0.239493,0.0425 0.31781,0.12713 0.08043,0.0847 0.135214,0.20707 0.164848,0.36793 h 0.387573 c -0.0127,-0.18626 -0.05614,-0.3447 -0.130225,-0.47594 -0.07197,-0.13123 -0.170705,-0.23194 -0.295589,-0.30179 -0.124883,-0.0699 -0.272967,-0.1049 -0.444417,-0.1049 z m 3.930506,0.17777 v 0.49557 h -0.39997 v 0.36794 h 0.39997 v 0.92087 c 0,0.21802 0.0553,0.38734 0.16537,0.50798 0.11006,0.11854 0.26752,0.17777 0.47284,0.17777 0.20743,0 0.36934,-0.0632 0.48576,-0.19017 0.11851,-0.12911 0.18318,-0.31572 0.19378,-0.55914 h -0.35553 c -0.0233,0.13122 -0.0603,0.22747 -0.11111,0.28887 -0.0487,0.0614 -0.11532,0.0925 -0.19998,0.0925 -0.0826,0 -0.14526,-0.0277 -0.18759,-0.0827 -0.0423,-0.0571 -0.063,-0.1386 -0.063,-0.24443 v -0.91157 h 0.85679 v -0.36794 h -0.85679 v -0.49557 z m 6.66781,0 v 0.49557 h -0.39997 v 0.36794 h 0.39997 v 0.92087 c 0,0.21802 0.0548,0.38734 0.16485,0.50798 0.11007,0.11854 0.26804,0.17777 0.47336,0.17777 0.20743,0 0.36934,-0.0632 0.48576,-0.19017 0.11851,-0.12911 0.18318,-0.31572 0.19378,-0.55914 h -0.35605 c -0.0233,0.13122 -0.0603,0.22747 -0.1111,0.28887 -0.0487,0.0614 -0.11532,0.0925 -0.19999,0.0925 -0.0825,0 -0.14474,-0.0277 -0.18707,-0.0827 -0.0423,-0.0571 -0.0636,-0.1386 -0.0636,-0.24443 v -0.91157 h 0.85731 v -0.36794 h -0.85731 v -0.49557 z m 6.6673,0 v 0.49557 h -0.39998 v 0.36794 h 0.39998 v 0.92087 c 0,0.21802 0.0553,0.38734 0.16536,0.50798 0.11007,0.11854 0.26752,0.17777 0.47284,0.17777 0.20743,0 0.36935,-0.0632 0.48576,-0.19017 0.11852,-0.12911 0.18319,-0.31572 0.19379,-0.55914 h -0.35554 c -0.0233,0.13122 -0.0603,0.22747 -0.1111,0.28887 -0.0487,0.0614 -0.11532,0.0925 -0.19999,0.0925 -0.0825,0 -0.14525,-0.0277 -0.18759,-0.0827 -0.0423,-0.0571 -0.0636,-0.1386 -0.0636,-0.24443 v -0.91157 h 0.85731 v -0.36794 H 116.427 v -0.49557 z m 13.3351,0 v 0.49557 h -0.39998 v 0.36794 h 0.39998 v 0.92087 c 0,0.21802 0.0553,0.38734 0.16536,0.50798 0.11007,0.11854 0.26753,0.17777 0.47284,0.17777 0.20744,0 0.36934,-0.0632 0.48576,-0.19017 0.11852,-0.12911 0.18319,-0.31572 0.19379,-0.55914 h -0.35553 c -0.0233,0.13122 -0.0603,0.22747 -0.11111,0.28887 -0.0487,0.0614 -0.11532,0.0925 -0.19999,0.0925 -0.0825,0 -0.14525,-0.0277 -0.18758,-0.0827 -0.0423,-0.0571 -0.0636,-0.1386 -0.0636,-0.24443 v -0.91157 h 0.85731 v -0.36794 h -0.85731 v -0.49557 z M 100.968,149.6446 c -0.17568,0 -0.3277,0.0415 -0.45682,0.12403 -0.12912,0.0804 -0.22983,0.19496 -0.30179,0.34313 -0.0699,0.14816 -0.10491,0.32488 -0.10491,0.5302 0,0.2159 0.0341,0.401 0.10181,0.55552 0.0699,0.1524 0.16906,0.26989 0.29817,0.35243 0.13123,0.0804 0.2892,0.12041 0.47336,0.12041 0.1397,0 0.26557,-0.0252 0.37775,-0.076 0.1143,-0.0529 0.21055,-0.12695 0.28887,-0.2222 0.0804,-0.0974 0.1377,-0.21289 0.17157,-0.34624 h -0.37776 c -0.0529,0.0931 -0.11758,0.16521 -0.19378,0.21601 -0.0762,0.0487 -0.16407,0.0729 -0.26355,0.0729 -0.16087,0 -0.28281,-0.0573 -0.36536,-0.17156 -0.0631,-0.0889 -0.10189,-0.20736 -0.11678,-0.35553 h 1.26038 c 0.002,-0.0254 0.003,-0.0506 0.003,-0.076 0.002,-0.0275 0.003,-0.0552 0.003,-0.0827 0,-0.20955 -0.0315,-0.38725 -0.0951,-0.5333 -0.0614,-0.14817 -0.1522,-0.26022 -0.27285,-0.33642 -0.11853,-0.0762 -0.26169,-0.11472 -0.42891,-0.11472 z m 11.06496,0 c -0.16722,0 -0.31432,0.0296 -0.44132,0.0889 -0.127,0.0572 -0.22869,0.1401 -0.30489,0.24804 -0.0741,0.10796 -0.11756,0.23678 -0.13023,0.38706 h 0.38448 c 0.0169,-0.0783 0.0465,-0.14395 0.0889,-0.19689 0.0423,-0.055 0.0971,-0.096 0.16485,-0.1235 0.0677,-0.0296 0.14524,-0.0445 0.23202,-0.0445 0.12277,0 0.21804,0.0326 0.28577,0.0982 0.0698,0.0656 0.10491,0.15793 0.10491,0.27647 v 0.0403 l -0.56844,0.0894 c -0.19262,0.0296 -0.34071,0.0968 -0.44442,0.2005 -0.1016,0.10371 -0.15245,0.23699 -0.15245,0.39998 0,0.11006 0.0232,0.2073 0.0698,0.29197 0.0487,0.0825 0.1163,0.14718 0.20309,0.19378 0.0889,0.0466 0.19157,0.0698 0.30799,0.0698 0.11642,0 0.21366,-0.0192 0.29197,-0.0574 0.0804,-0.0402 0.14409,-0.097 0.19069,-0.17105 h 0.1018 v 0.18087 h 0.39015 v -1.26711 c 0,-0.22648 -0.0676,-0.39973 -0.20308,-0.52038 -0.13336,-0.12277 -0.3239,-0.18449 -0.57154,-0.18449 z m 2.67012,0 c -0.0847,0 -0.16068,0.0183 -0.22841,0.0543 -0.0677,0.0339 -0.11955,0.0838 -0.15555,0.14935 h -0.1049 v -0.15245 h -0.77153 v 0.36794 h 0.39997 v 1.18442 h -0.34933 v 0.36846 h 1.32085 v -0.36846 h -0.57774 v -0.67282 c 0,-0.18416 0.0242,-0.32189 0.0729,-0.4129 0.0508,-0.091 0.12733,-0.13643 0.22893,-0.13643 0.16087,0 0.24133,0.1017 0.24133,0.3049 v 0.23151 h 0.41238 v -0.28888 c 0,-0.19896 -0.0434,-0.35347 -0.13023,-0.46353 -0.0847,-0.11007 -0.20412,-0.16537 -0.35863,-0.16537 z m 4.04523,0 c -0.17568,0 -0.32822,0.0415 -0.45734,0.12403 -0.12911,0.0804 -0.22982,0.19496 -0.30179,0.34313 -0.0699,0.14816 -0.10439,0.32488 -0.10439,0.5302 0,0.2159 0.0336,0.401 0.10129,0.55552 0.0699,0.1524 0.16958,0.26989 0.29869,0.35243 0.13123,0.0804 0.28869,0.12041 0.47284,0.12041 0.1397,0 0.26557,-0.0252 0.37775,-0.076 0.1143,-0.0529 0.21056,-0.12695 0.28888,-0.2222 0.0804,-0.0974 0.13769,-0.21289 0.17156,-0.34624 h -0.37775 c -0.0529,0.0931 -0.11759,0.16521 -0.19379,0.21601 -0.0762,0.0487 -0.16406,0.0729 -0.26355,0.0729 -0.16087,0 -0.28229,-0.0573 -0.36484,-0.17156 -0.0631,-0.0889 -0.10241,-0.20736 -0.1173,-0.35553 h 1.26039 c 0.002,-0.0254 0.003,-0.0506 0.003,-0.076 0.002,-0.0275 0.003,-0.0552 0.003,-0.0827 0,-0.20955 -0.0316,-0.38725 -0.0951,-0.5333 -0.0614,-0.14817 -0.15272,-0.26022 -0.27336,-0.33642 -0.11854,-0.0762 -0.26118,-0.11472 -0.4284,-0.11472 z m -11.13162,5.2e-4 c -0.24554,0 -0.43805,0.0538 -0.57775,0.16175 -0.1397,0.10794 -0.2098,0.25701 -0.2098,0.44751 0,0.16722 0.0508,0.29853 0.15244,0.39378 0.1016,0.0931 0.25808,0.15333 0.46974,0.18087 l 0.24753,0.0351 c 0.0995,0.0148 0.17503,0.039 0.22583,0.0729 0.0508,0.0338 0.076,0.0783 0.076,0.13333 0,0.0762 -0.0326,0.13543 -0.0982,0.17776 -0.0635,0.0402 -0.15582,0.0605 -0.27647,0.0605 -0.1143,0 -0.20859,-0.0242 -0.28267,-0.0729 -0.072,-0.0487 -0.12285,-0.11879 -0.15245,-0.20981 h -0.37103 c 0.0127,0.20532 0.0887,0.36427 0.22841,0.47646 0.1397,0.11218 0.33122,0.16795 0.57464,0.16795 0.16087,0 0.29859,-0.0242 0.41289,-0.0729 0.11428,-0.0508 0.20215,-0.12189 0.26355,-0.21291 0.0614,-0.091 0.092,-0.1996 0.092,-0.3266 0,-0.16722 -0.0508,-0.29754 -0.15245,-0.39067 -0.1016,-0.0931 -0.25807,-0.1543 -0.46974,-0.18397 l -0.24804,-0.032 c -0.1016,-0.0148 -0.17761,-0.039 -0.22841,-0.0729 -0.0487,-0.036 -0.0729,-0.0804 -0.0729,-0.13333 0,-0.0762 0.0336,-0.13446 0.10129,-0.17466 0.0677,-0.0423 0.16549,-0.0636 0.29249,-0.0636 0.127,0 0.22817,0.0277 0.30437,0.0827 0.0783,0.0529 0.13163,0.13239 0.15916,0.23823 h 0.36794 c -0.0106,-0.21802 -0.0876,-0.38635 -0.23151,-0.50488 -0.14393,-0.11854 -0.34286,-0.17777 -0.59686,-0.17777 z m 16.74161,0.0506 0.31109,1.92082 h 0.5271 l 0.16847,-1.61954 h 0.0382 l 0.16795,1.61954 h 0.5209 l 0.31109,-1.92082 h -0.35244 l -0.13952,0.97462 -0.0543,0.6413 h -0.0382 l -0.16795,-1.61592 h -0.50178 l -0.16846,1.61592 h -0.0377 l -0.0574,-0.6413 -0.13953,-0.97462 z m 2.57504,0 v 0.36794 h 0.57464 v 1.18442 h -0.57464 v 0.36846 h 1.54926 v -0.36846 h -0.57464 v -1.55236 z m -25.96534,0.30489 c 0.14393,0 0.25204,0.0538 0.32401,0.16175 0.0516,0.0738 0.0851,0.17198 0.10077,0.29507 h -0.8878 c 0.0181,-0.11699 0.0549,-0.21324 0.11058,-0.28887 0.0825,-0.11219 0.20004,-0.16795 0.35244,-0.16795 z m 17.78031,0 c 0.14393,0 0.25153,0.0538 0.32349,0.16175 0.0516,0.0738 0.0856,0.17198 0.10129,0.29507 h -0.8878 c 0.0181,-0.11699 0.0549,-0.21324 0.11058,-0.28887 0.0825,-0.11219 0.20004,-0.16795 0.35244,-0.16795 z m 2.127,0.0124 c 0.1524,0 0.27087,0.0573 0.35553,0.17156 0.0847,0.11219 0.12713,0.26964 0.12713,0.47284 0,0.20108 -0.0425,0.35906 -0.12713,0.47336 -0.0847,0.11218 -0.20313,0.16795 -0.35553,0.16795 -0.1524,0 -0.27087,-0.0558 -0.35553,-0.16795 -0.0825,-0.11218 -0.12403,-0.27016 -0.12403,-0.47336 0,-0.2032 0.0415,-0.36065 0.12403,-0.47284 0.0847,-0.1143 0.20313,-0.17156 0.35553,-0.17156 z m -8.45788,0.73535 v 0.10284 c 0,0.0847 -0.0222,0.16217 -0.0667,0.23202 -0.0423,0.0677 -0.10058,0.12252 -0.17467,0.16485 -0.072,0.0402 -0.15145,0.0605 -0.23823,0.0605 -0.0826,0 -0.14822,-0.0203 -0.19689,-0.0605 -0.0487,-0.0423 -0.0729,-0.0971 -0.0729,-0.16485 0,-0.0699 0.0197,-0.12613 0.0599,-0.16846 0.0402,-0.0445 0.10194,-0.0741 0.18449,-0.0889 z m -0.29249,2.10633 c -0.0889,0 -0.15849,0.0242 -0.20929,0.0729 -0.0487,0.0466 -0.0729,0.1132 -0.0729,0.19998 0,0.0847 0.0242,0.15133 0.0729,0.19999 0.0508,0.0466 0.12039,0.0703 0.20929,0.0703 0.0889,0 0.15804,-0.0237 0.20671,-0.0703 0.0508,-0.0487 0.076,-0.11532 0.076,-0.19999 0,-0.0867 -0.0252,-0.15338 -0.076,-0.19998 -0.0487,-0.0487 -0.11781,-0.0729 -0.20671,-0.0729 z m 2.54661,0.0382 v 0.9524 h -0.1018 c -0.0402,-0.072 -0.10142,-0.12827 -0.18397,-0.16847 -0.0825,-0.0423 -0.17487,-0.0636 -0.27647,-0.0636 -0.15663,0 -0.29286,0.0415 -0.40927,0.12403 -0.11639,0.0825 -0.20674,0.20003 -0.27027,0.35243 -0.0635,0.15029 -0.0951,0.32897 -0.0951,0.5364 0,0.20531 0.0316,0.38452 0.0951,0.53692 0.0635,0.15029 0.15385,0.26678 0.27027,0.34933 0.11641,0.0825 0.25264,0.12351 0.40927,0.12351 0.1016,0 0.19392,-0.0203 0.27647,-0.0605 0.0826,-0.0423 0.14377,-0.0981 0.18397,-0.16795 h 0.1018 v 0.17777 h 0.39998 v -2.69235 z m 5.46065,0 v 2.69235 h 0.40049 v -0.17777 h 0.10129 c 0.0402,0.0699 0.10194,0.12613 0.18449,0.16846 0.0825,0.0402 0.17435,0.0599 0.27595,0.0599 0.15663,0 0.29338,-0.041 0.40979,-0.12351 0.11639,-0.0825 0.20622,-0.19904 0.26975,-0.34933 0.0635,-0.1524 0.0951,-0.33161 0.0951,-0.53692 0,-0.20743 -0.0316,-0.38611 -0.0951,-0.5364 -0.0635,-0.1524 -0.15333,-0.26989 -0.26975,-0.35243 -0.11641,-0.0826 -0.25316,-0.12351 -0.40979,-0.12351 -0.1016,0 -0.1934,0.0207 -0.27595,0.063 -0.0826,0.0402 -0.14429,0.0965 -0.18449,0.16847 h -0.10129 v -0.9524 z m 4.52789,0 v 0.36794 h 0.57464 v 1.95595 h -0.57464 v 0.36846 h 1.54926 v -0.36846 h -0.57464 v -2.32389 z m -25.949319,0.72037 c -0.179917,0 -0.336389,0.0415 -0.469739,0.12403 -0.131233,0.0825 -0.233908,0.20003 -0.307991,0.35243 -0.07197,0.15029 -0.108004,0.32897 -0.108004,0.5364 0,0.20743 0.03604,0.38762 0.108004,0.54002 0.07408,0.15028 0.176758,0.26678 0.307991,0.34933 0.13335,0.0825 0.289822,0.12351 0.469739,0.12351 0.182033,0 0.338505,-0.041 0.469739,-0.12351 0.131233,-0.0825 0.232924,-0.19905 0.304891,-0.34933 0.07408,-0.1524 0.111104,-0.33259 0.111104,-0.54002 0,-0.20743 -0.03702,-0.38611 -0.111104,-0.5364 -0.07197,-0.1524 -0.173658,-0.26989 -0.304891,-0.35243 -0.131234,-0.0826 -0.287706,-0.12403 -0.469739,-0.12403 z m 4.879809,0 c -0.0847,0 -0.16068,0.0183 -0.22841,0.0543 -0.0677,0.0339 -0.11955,0.0838 -0.15555,0.14935 h -0.1049 v -0.15245 h -0.77153 v 0.36794 h 0.39997 v 1.18442 h -0.34933 v 0.36846 h 1.32085 v -0.36846 h -0.57774 V 154.544 c 0,-0.18416 0.0242,-0.32189 0.0729,-0.4129 0.0508,-0.091 0.12733,-0.13643 0.22893,-0.13643 0.16087,0 0.24133,0.1017 0.24133,0.3049 v 0.23151 h 0.41238 v -0.28888 c 0,-0.19896 -0.0435,-0.35347 -0.13023,-0.46353 -0.0847,-0.11007 -0.20411,-0.16537 -0.35863,-0.16537 z m 3.87986,0 c -0.15452,0 -0.28877,0.0395 -0.40307,0.11782 -0.11222,0.0783 -0.20009,0.1884 -0.26355,0.33022 -0.0614,0.14181 -0.092,0.31014 -0.092,0.50488 0,0.18838 0.0306,0.35226 0.092,0.49196 0.0635,0.1397 0.15137,0.24781 0.26355,0.32401 0.1143,0.0762 0.24855,0.1142 0.40307,0.1142 0.0931,0 0.18002,-0.0183 0.26045,-0.0543 0.0804,-0.036 0.14067,-0.0854 0.18087,-0.14883 h 0.1018 v 0.20619 c 0,0.13124 -0.0415,0.23391 -0.12402,0.30799 -0.0804,0.0741 -0.19346,0.11111 -0.33952,0.11111 -0.11006,0 -0.20533,-0.0232 -0.28577,-0.0698 -0.0783,-0.0445 -0.13459,-0.10814 -0.16846,-0.19069 h -0.38706 c 0.0106,0.127 0.0515,0.23609 0.12351,0.32711 0.072,0.0932 0.1692,0.16424 0.29197,0.21291 0.12277,0.0508 0.26495,0.076 0.42581,0.076 0.17992,0 0.33443,-0.0316 0.46354,-0.0951 0.12912,-0.0614 0.22734,-0.14925 0.29507,-0.26355 0.0699,-0.11219 0.10491,-0.24546 0.10491,-0.39998 v -1.85105 h -0.39998 v 0.16485 h -0.1018 c -0.0381,-0.0657 -0.0973,-0.11748 -0.17777,-0.15555 -0.0804,-0.0402 -0.1683,-0.0605 -0.26355,-0.0605 z m 9.05526,0 c -0.17568,0 -0.32822,0.0415 -0.45733,0.12403 -0.12912,0.0804 -0.22983,0.19496 -0.30179,0.34313 -0.0699,0.14816 -0.10439,0.32488 -0.10439,0.5302 0,0.2159 0.0336,0.401 0.10129,0.55552 0.0698,0.1524 0.16957,0.26989 0.29869,0.35243 0.13123,0.0804 0.28869,0.12041 0.47284,0.12041 0.1397,0 0.26556,-0.0252 0.37775,-0.076 0.1143,-0.0529 0.21056,-0.12695 0.28887,-0.2222 0.0804,-0.0974 0.1377,-0.21289 0.17157,-0.34624 h -0.37776 c -0.0529,0.0931 -0.11758,0.16521 -0.19378,0.21601 -0.0762,0.0487 -0.16407,0.0729 -0.26355,0.0729 -0.16087,0 -0.28229,-0.0573 -0.36484,-0.17156 -0.063,-0.0889 -0.10189,-0.20736 -0.11679,-0.35553 h 1.25987 c 0.002,-0.0254 0.003,-0.0506 0.003,-0.076 0.002,-0.0275 0.003,-0.0552 0.003,-0.0827 0,-0.20955 -0.0316,-0.38725 -0.0951,-0.5333 -0.0614,-0.14817 -0.15271,-0.26022 -0.27337,-0.33642 -0.11853,-0.0762 -0.26118,-0.11472 -0.4284,-0.11472 z m 6.6673,0 c -0.17569,0 -0.32771,0.0415 -0.45682,0.12403 -0.12912,0.0804 -0.22983,0.19496 -0.30179,0.34313 -0.0698,0.14816 -0.10491,0.32488 -0.10491,0.5302 0,0.2159 0.0341,0.401 0.10181,0.55552 0.0698,0.1524 0.16905,0.26989 0.29817,0.35243 0.13123,0.0804 0.28921,0.12041 0.47336,0.12041 0.1397,0 0.26556,-0.0252 0.37775,-0.076 0.1143,-0.0529 0.21056,-0.12695 0.28887,-0.2222 0.0804,-0.0974 0.1377,-0.21289 0.17157,-0.34624 h -0.37776 c -0.0529,0.0931 -0.11758,0.16521 -0.19378,0.21601 -0.0762,0.0487 -0.16407,0.0729 -0.26355,0.0729 -0.16087,0 -0.2828,-0.0573 -0.36536,-0.17156 -0.063,-0.0889 -0.10189,-0.20736 -0.11678,-0.35553 h 1.26038 c 0.002,-0.0254 0.003,-0.0506 0.003,-0.076 0.002,-0.0275 0.003,-0.0552 0.003,-0.0827 0,-0.20955 -0.0321,-0.38725 -0.0956,-0.5333 -0.0614,-0.14817 -0.15219,-0.26022 -0.27285,-0.33642 -0.11853,-0.0762 -0.2617,-0.11472 -0.42891,-0.11472 z m 4.41006,0 c -0.17992,0 -0.33639,0.0415 -0.46973,0.12403 -0.13124,0.0825 -0.23391,0.20003 -0.308,0.35243 -0.072,0.15029 -0.108,0.32897 -0.108,0.5364 0,0.20743 0.036,0.38762 0.108,0.54002 0.0741,0.15028 0.17676,0.26678 0.308,0.34933 0.13334,0.0825 0.28981,0.12351 0.46973,0.12351 0.18204,0 0.33903,-0.041 0.47026,-0.12351 0.13123,-0.0825 0.23241,-0.19905 0.30437,-0.34933 0.0741,-0.1524 0.11111,-0.33259 0.11111,-0.54002 0,-0.20743 -0.037,-0.38611 -0.11111,-0.5364 -0.072,-0.1524 -0.17314,-0.26989 -0.30437,-0.35243 -0.13123,-0.0826 -0.28822,-0.12403 -0.47026,-0.12403 z m -27.47946,0.0512 v 1.23817 c 0,0.15029 0.0267,0.28061 0.0796,0.39067 0.0529,0.11005 0.12695,0.19544 0.22221,0.25684 0.0974,0.0593 0.21138,0.0889 0.34261,0.0889 0.0952,0 0.18115,-0.0177 0.25735,-0.0537 0.0762,-0.036 0.1364,-0.0878 0.18087,-0.15555 h 0.1018 v 0.15555 h 0.39997 v -1.92082 h -0.40049 v 1.13327 c 0,0.1524 -0.0326,0.26792 -0.0982,0.34623 -0.0656,0.0783 -0.16286,0.1173 -0.29198,0.1173 -0.12911,0 -0.22785,-0.039 -0.29558,-0.1173 -0.0656,-0.0783 -0.0982,-0.19383 -0.0982,-0.34623 v -1.13327 z m 8.8899,0 v 1.23817 c 0,0.15029 0.0267,0.28061 0.0796,0.39067 0.0529,0.11005 0.12696,0.19544 0.22221,0.25684 0.0974,0.0593 0.21138,0.0889 0.34262,0.0889 0.0952,0 0.18115,-0.0177 0.25735,-0.0537 0.0762,-0.036 0.1364,-0.0878 0.18086,-0.15555 h 0.10181 v 0.15555 h 0.39997 v -1.92082 h -0.39997 v 1.13327 c 0,0.1524 -0.0331,0.26792 -0.0987,0.34623 -0.0656,0.0783 -0.16285,0.1173 -0.29197,0.1173 -0.12911,0 -0.22734,-0.039 -0.29507,-0.1173 -0.0656,-0.0783 -0.0987,-0.19383 -0.0987,-0.34623 v -1.13327 z m 2.36213,0 v 0.36794 h 0.57464 v 1.18442 h -0.57464 v 0.36846 h 1.54978 v -0.36846 h -0.57464 v -1.55236 z m 17.42788,0 0.31109,1.92082 h 0.5271 l 0.16846,-1.61954 h 0.0377 l 0.16846,1.61954 h 0.5209 l 0.31109,-1.92082 h -0.35243 l -0.14004,0.97462 -0.0538,0.6413 h -0.0382 l -0.16846,-1.61592 h -0.50126 l -0.16847,1.61592 h -0.0382 l -0.0568,-0.6413 -0.14005,-0.97462 z m -12.27781,0.30489 c 0.14394,0 0.25205,0.0538 0.32402,0.16175 0.0516,0.0738 0.0851,0.17198 0.10076,0.29507 h -0.8878 c 0.0181,-0.11699 0.0549,-0.21324 0.11059,-0.28887 0.0825,-0.11219 0.20003,-0.16795 0.35243,-0.16795 z m 6.6673,0 c 0.14393,0 0.25204,0.0538 0.32401,0.16175 0.0516,0.0738 0.0851,0.17198 0.10077,0.29507 h -0.8878 c 0.0181,-0.11699 0.0549,-0.21324 0.11058,-0.28887 0.0826,-0.11219 0.20004,-0.16795 0.35244,-0.16795 z m -24.482229,0.009 c 0.154517,0 0.274952,0.0573 0.361735,0.17156 0.08678,0.11218 0.130225,0.27062 0.130225,0.47594 0,0.2032 -0.04344,0.36216 -0.130225,0.47646 -0.08678,0.11218 -0.207218,0.16846 -0.361735,0.16846 -0.154517,0 -0.275468,-0.0563 -0.362252,-0.16846 -0.08678,-0.1143 -0.129708,-0.27326 -0.129708,-0.47646 0,-0.20532 0.04292,-0.36376 0.129708,-0.47594 0.08678,-0.1143 0.207735,-0.17156 0.362252,-0.17156 z m 28.892289,0 c 0.15452,0 0.27547,0.0573 0.36226,0.17156 0.0868,0.11218 0.13022,0.27062 0.13022,0.47594 0,0.2032 -0.0434,0.36216 -0.13022,0.47646 -0.0868,0.11218 -0.20774,0.16846 -0.36226,0.16846 -0.15452,0 -0.27495,-0.0563 -0.36173,-0.16846 -0.0868,-0.1143 -0.13023,-0.27326 -0.13023,-0.47646 0,-0.20532 0.0434,-0.36376 0.13023,-0.47594 0.0868,-0.1143 0.20721,-0.17156 0.36173,-0.17156 z m -20.03081,0.003 c 0.14604,0 0.25908,0.0508 0.33951,0.15244 0.0825,0.1016 0.12402,0.24476 0.12402,0.42892 0,0.18414 -0.0415,0.32679 -0.12402,0.42839 -0.0804,0.1016 -0.19347,0.15245 -0.33951,0.15245 -0.14606,0 -0.26059,-0.0508 -0.34314,-0.15245 -0.0826,-0.1016 -0.1235,-0.24425 -0.1235,-0.42839 0,-0.18416 0.0409,-0.32732 0.1235,-0.42892 0.0825,-0.1016 0.19708,-0.15244 0.34314,-0.15244 z m 6.63577,0 c 0.1524,0 0.27086,0.0573 0.35553,0.17156 0.0847,0.11219 0.12712,0.26964 0.12712,0.47284 0,0.20108 -0.0425,0.35906 -0.12712,0.47336 -0.0847,0.11218 -0.20313,0.16795 -0.35553,0.16795 -0.1524,0 -0.27087,-0.0558 -0.35554,-0.16795 -0.0825,-0.11218 -0.12402,-0.27016 -0.12402,-0.47336 0,-0.2032 0.0415,-0.36065 0.12402,-0.47284 0.0847,-0.1143 0.20314,-0.17156 0.35554,-0.17156 z m 6.78821,0 c 0.1524,0 0.26988,0.0573 0.35244,0.17156 0.0847,0.11219 0.1266,0.26964 0.1266,0.47284 0,0.20108 -0.0419,0.35906 -0.1266,0.47336 -0.0826,0.11218 -0.20004,0.16795 -0.35244,0.16795 -0.1524,0 -0.27138,-0.0558 -0.35605,-0.16795 -0.0847,-0.11218 -0.12661,-0.27016 -0.12661,-0.47336 0,-0.2032 0.0419,-0.36065 0.12661,-0.47284 0.0847,-0.1143 0.20365,-0.17156 0.35605,-0.17156 z m 11.05204,0.96531 c -0.10373,0 -0.18419,0.0286 -0.24133,0.0858 -0.0571,0.0571 -0.0858,0.13958 -0.0858,0.24753 0,0.10584 0.0286,0.18827 0.0858,0.24753 0.0572,0.0571 0.13761,0.0858 0.24133,0.0858 0.10373,0 0.1842,-0.0286 0.24133,-0.0858 0.0571,-0.0593 0.0858,-0.14169 0.0858,-0.24753 0,-0.10796 -0.0286,-0.19039 -0.0858,-0.24753 -0.0572,-0.0571 -0.13762,-0.0858 -0.24133,-0.0858 z m -34.19171,2.55747 c -0.03026,0.003 -0.05374,0.0289 -0.05374,0.0599 v 4.07986 c 0,0.0331 0.0268,0.0599 0.05994,0.0599 h 4.07986 c 0.0331,0 0.0599,-0.0268 0.0599,-0.0599 v -4.07986 c 0,-0.0331 -0.0268,-0.0599 -0.0599,-0.0599 h -4.07986 c -0.0021,0 -0.0042,-2.1e-4 -0.0062,0 z m 6.00015,0 c -0.0302,0.003 -0.0543,0.0289 -0.0543,0.0599 v 0.54002 h 0.54002 c 0.0331,0 0.0599,-0.0268 0.0599,-0.0599 v -0.48008 c 0,-0.0331 -0.0268,-0.0599 -0.0599,-0.0599 h -0.48008 c -0.002,0 -0.004,-2.1e-4 -0.006,0 z m -0.0543,0.59996 h -0.54002 c -0.0331,0 -0.0599,0.0269 -0.0599,0.06 v 0.54001 h 0.54002 c 0.0331,0 0.0599,-0.0268 0.0599,-0.0599 z m -0.59996,0.59996 h -0.54002 c -0.0331,0 -0.06,0.0268 -0.06,0.06 v 0.48007 c 0,0.0331 0.0268,0.06 0.06,0.06 h 0.48007 0.06 z m 0,0.59997 v 1.13998 c 0,0.0331 0.0268,0.0599 0.0599,0.0599 h 0.48008 0.0599 v -1.13998 c 0,-0.0331 -0.0268,-0.0599 -0.0599,-0.0599 z m 0.59996,1.19992 v 1.13999 c 0,0.0331 0.0268,0.0599 0.0599,0.0599 h 0.48008 c 0.0331,0 0.0599,-0.0268 0.0599,-0.0599 v -0.48008 c 0,-0.0331 0.0274,-0.0599 0.0605,-0.0599 h 0.54002 v -0.59997 z m 1.20044,0 h 0.53951 c 0.0331,0 0.0605,-0.0268 0.0605,-0.0599 v -0.48007 c 0,-0.0331 -0.0274,-0.06 -0.0605,-0.06 h -0.47956 c -0.0331,0 -0.06,0.0268 -0.06,0.06 z m 0,0.59997 v 1.13998 c 0,0.0331 0.0269,0.06 0.06,0.06 h 0.47956 c 0.0331,0 0.0605,0.0268 0.0605,0.0599 v 0.48007 c 0,0.0331 0.0268,0.0599 0.0599,0.0599 h 0.48008 c 0.0331,0 0.0599,-0.0268 0.0599,-0.0599 v -0.48007 c 0,-0.0331 0.0268,-0.0599 0.0599,-0.0599 h 0.54002 v -1.19993 h -0.54002 c -0.0331,0 -0.0599,0.0268 -0.0599,0.0599 v 0.48008 c 0,0.0331 -0.0268,0.0599 -0.0599,0.0599 h -0.48008 c -0.0331,0 -0.0599,-0.0268 -0.0599,-0.0599 v -0.48008 c 0,-0.0331 -0.0274,-0.0599 -0.0605,-0.0599 z m 1.79989,0 h 0.54002 c 0.0331,0 0.06,0.0268 0.06,0.0599 v 1.08004 c 0,0.0331 -0.0268,0.06 -0.06,0.06 h -0.54002 v 0.54001 c 0,0.0331 0.0268,0.0599 0.06,0.0599 h 1.08004 c 0.0331,0 0.0599,0.0268 0.0599,0.0599 v 0.54002 h 1.13998 c 0.0331,0 0.06,-0.0268 0.06,-0.0599 v -1.08004 c 0,-0.0331 -0.0268,-0.0599 -0.06,-0.0599 h -1.08004 c -0.0331,0 -0.0599,-0.0269 -0.0599,-0.06 v -1.68 c 0,-0.0331 -0.0268,-0.0599 -0.0599,-0.0599 h -0.48008 c -0.0331,0 -0.0599,-0.0268 -0.0599,-0.0599 v -0.48007 c 0,-0.0331 -0.0268,-0.06 -0.06,-0.06 h -0.48007 c -0.0331,0 -0.06,-0.0268 -0.06,-0.0599 v -0.48008 c 0,-0.0331 -0.0268,-0.0599 -0.0599,-0.0599 h -0.48008 c -0.0331,0 -0.0599,0.0268 -0.0599,0.0599 v 1.08004 c 0,0.0331 0.0268,0.0599 0.0599,0.0599 h 0.48008 c 0.0331,0 0.0599,0.0268 0.0599,0.0599 z m 1.19993,2.39985 h -0.54002 c -0.0331,0 -0.0599,0.0268 -0.0599,0.0599 v 0.48007 c 0,0.0331 -0.0268,0.0599 -0.06,0.0599 h -0.48007 c -0.0331,0 -0.06,-0.0268 -0.06,-0.0599 v -0.48007 c 0,-0.0331 -0.0268,-0.0599 -0.0599,-0.0599 h -1.68 c -0.0331,0 -0.06,0.0268 -0.06,0.0599 v 0.48007 c 0,0.0331 0.0269,0.0599 0.06,0.0599 h 0.47956 c 0.0331,0 0.0605,0.0268 0.0605,0.0599 v 1.74046 h 0.54002 0.0599 v -1.13998 c 0,-0.0331 0.0268,-0.0605 0.0599,-0.0605 h 1.73995 z m 0,1.19993 v 0.54002 c 0,0.0331 -0.0268,0.0599 -0.0599,0.0599 h -0.48008 c -0.0331,0 -0.0599,0.0274 -0.0599,0.0605 v 1.08004 c 0,0.0331 -0.0268,0.0599 -0.06,0.0599 h -0.48007 c -0.0331,0 -0.06,-0.0268 -0.06,-0.0599 v -0.48007 c 0,-0.0331 -0.0268,-0.0599 -0.0599,-0.0599 h -0.54002 v 0.54002 c 0,0.0331 -0.0268,0.0599 -0.0599,0.0599 h -0.54002 v 1.79989 h 0.54002 c 0.0331,0 0.0599,-0.0268 0.0599,-0.06 v -1.08004 c 0,-0.0331 0.0268,-0.0599 0.0599,-0.0599 h 1.08004 c 0.0331,0 0.06,0.0268 0.06,0.0599 v 1.08004 c 0,0.0331 -0.0268,0.06 -0.06,0.06 h -0.48007 c -0.0331,0 -0.06,0.0268 -0.06,0.0599 v 0.48007 c 0,0.0331 0.0268,0.06 0.06,0.06 h 0.48007 c 0.0331,0 0.06,0.0268 0.06,0.0599 v 1.08004 c 0,0.0331 -0.0268,0.06 -0.06,0.06 h -0.48007 c -0.0331,0 -0.06,0.0268 -0.06,0.0599 v 0.48007 c 0,0.0331 -0.0268,0.0599 -0.0599,0.0599 h -0.54002 v 0.54002 c 0,0.0331 -0.0268,0.0599 -0.0599,0.0599 h -0.48008 c -0.0331,0 -0.0599,0.0268 -0.0599,0.06 v 1.08003 c 0,0.0331 0.0268,0.0599 0.0599,0.0599 h 0.48008 c 0.0331,0 0.0599,-0.0268 0.0599,-0.0599 v -0.48007 c 0,-0.0331 0.0268,-0.0599 0.0599,-0.0599 h 1.08004 c 0.0331,0 0.06,0.0268 0.06,0.0599 v 0.48007 c 0,0.0331 0.0268,0.0599 0.0599,0.0599 h 2.27997 c 0.0331,0 0.0599,-0.0268 0.0599,-0.0599 v -0.54001 h -0.54002 c -0.0331,0 -0.0599,-0.0269 -0.0599,-0.06 v -0.48007 c 0,-0.0331 -0.0268,-0.06 -0.06,-0.06 h -0.48007 c -0.0331,0 -0.06,-0.0268 -0.06,-0.0599 v -0.48008 c 0,-0.0331 -0.0268,-0.0599 -0.0599,-0.0599 h -0.54002 v 0.54002 c 0,0.0331 -0.0268,0.0599 -0.0599,0.0599 h -0.48008 c -0.0331,0 -0.0599,-0.0268 -0.0599,-0.0599 v -0.48008 c 0,-0.0331 0.0268,-0.0599 0.0599,-0.0599 h 0.54002 v -0.54002 c 0,-0.0331 0.0268,-0.0599 0.0599,-0.0599 h 1.08004 c 0.0331,0 0.06,0.0268 0.06,0.0599 v 0.48007 c 0,0.0331 0.0268,0.0599 0.0599,0.0599 h 0.48008 c 0.0331,0 0.0599,0.0268 0.0599,0.0599 v 1.13999 h 1.13998 c 0.0331,0 0.0599,-0.0269 0.0599,-0.06 v -0.48007 c 0,-0.0331 -0.0268,-0.06 -0.0599,-0.06 h -0.48007 c -0.0331,0 -0.06,-0.0268 -0.06,-0.0599 v -0.48008 c 0,-0.0331 0.0269,-0.0599 0.06,-0.0599 h 1.08004 c 0.0331,0 0.0599,-0.0268 0.0599,-0.0599 v -0.54001 h -0.54002 c -0.0331,0 -0.0599,-0.0268 -0.0599,-0.06 v -2.87993 c 0,-0.0331 -0.0268,-0.0599 -0.0599,-0.0599 h -0.48007 c -0.0331,0 -0.06,-0.0268 -0.06,-0.06 v -0.48007 c 0,-0.0331 -0.0268,-0.0599 -0.0599,-0.0599 h -0.54002 v 0.54001 c 0,0.0331 -0.0268,0.06 -0.0599,0.06 h -0.48008 c -0.0331,0 -0.0599,-0.0268 -0.0599,-0.06 v -0.54001 h -0.54002 c -0.0331,0 -0.06,-0.0268 -0.06,-0.0599 v -0.48007 c 0,-0.0331 0.0268,-0.0599 0.06,-0.0599 h 0.54002 v -0.54002 c 0,-0.0331 0.0268,-0.0605 0.0599,-0.0605 h 0.48008 c 0.0331,0 0.0599,-0.0268 0.0599,-0.0599 v -0.47956 c 0,-0.0331 -0.0268,-0.0605 -0.0599,-0.0605 z m 1.19993,1.20044 v 0.59997 h 0.54002 0.0599 v -0.54002 c 0,-0.0331 -0.0268,-0.0599 -0.0599,-0.0599 z m 2.39985,4.19975 h 0.54002 c 0.0331,0 0.0599,-0.0268 0.0599,-0.06 v -1.08004 c 0,-0.0331 0.0268,-0.0599 0.06,-0.0599 h 0.48007 c 0.0331,0 0.06,-0.0269 0.06,-0.06 v -1.08003 c 0,-0.0331 -0.0268,-0.06 -0.06,-0.06 h -1.08003 c -0.0331,0 -0.06,0.0269 -0.06,0.06 z m -5.39967,0.59996 v -1.73995 c 0,-0.0331 -0.0268,-0.0599 -0.0599,-0.0599 h -0.54002 v 1.73994 c 0,0.0331 0.0268,0.0599 0.0599,0.0599 h 0.48008 z m -0.59996,-1.79989 v -0.59996 h -0.54002 c -0.0331,0 -0.06,0.0268 -0.06,0.0599 v 0.48007 c 0,0.0331 0.0269,0.06 0.06,0.06 h 0.47956 z m 0,-2.39985 v -0.59997 h -0.54002 c -0.0331,0 -0.06,0.0268 -0.06,0.0599 v 0.54002 h 0.53951 z m -0.59997,0 h -0.54002 c -0.0331,0 -0.0605,-0.0268 -0.0605,-0.0599 v -2.88044 c 0,-0.0331 -0.0268,-0.0599 -0.0599,-0.0599 h -0.54002 v 0.54002 c 0,0.0331 -0.0268,0.0599 -0.0599,0.0599 h -1.73995 v 0.59996 h 0.54002 c 0.0331,0 0.0599,0.0274 0.0599,0.0605 v 1.68 c 0,0.0331 -0.0268,0.0599 -0.0599,0.0599 h -0.54002 v 0.54001 c 0,0.0331 -0.0268,0.06 -0.0599,0.06 h -1.08004 c -0.0331,0 -0.06,-0.0268 -0.06,-0.06 v -1.08003 c 0,-0.0331 -0.0268,-0.0599 -0.0599,-0.0599 h -0.48008 c -0.0331,0 -0.0599,0.0268 -0.0599,0.0599 v 0.48007 c 0,0.0331 -0.0268,0.0599 -0.06,0.0599 h -0.540014 v 0.59996 h 0.540014 c 0.0331,0 0.06,0.0268 0.06,0.0599 v 0.48008 c 0,0.0331 0.0268,0.0599 0.0599,0.0599 h 2.33991 v -0.54002 c 0,-0.0331 0.0268,-0.0599 0.06,-0.0599 h 1.08004 c 0.0331,0 0.0599,0.0268 0.0599,0.0599 v 1.13999 h 0.54002 c 0.0331,0 0.0599,-0.0268 0.0599,-0.06 v -1.08004 c 0,-0.0331 0.0274,-0.0599 0.0605,-0.0599 h 0.47956 c 0.0331,0 0.0605,-0.0268 0.0605,-0.06 z m -1.20044,1.79989 h -0.54002 c -0.0331,0 -0.0599,-0.0268 -0.0599,-0.06 v -0.48007 c 0,-0.0331 -0.0268,-0.06 -0.06,-0.06 h -0.54002 v 2.33991 c 0,0.0331 0.0268,0.06 0.06,0.06 h 0.48007 c 0.0331,0 0.06,-0.0268 0.06,-0.06 v -0.48007 c 0,-0.0331 0.0268,-0.06 0.0599,-0.06 h 0.48008 c 0.0331,0 0.0599,0.0268 0.0599,0.06 v 1.08003 c 0,0.0331 -0.0268,0.0599 -0.0599,0.0599 h -1.08004 c -0.0331,0 -0.06,0.0268 -0.06,0.0599 v 1.68 c 0,0.0331 0.0268,0.0599 0.06,0.0599 h 1.08004 c 0.0331,0 0.0599,-0.0268 0.0599,-0.0599 v -0.48007 c 0,-0.0331 0.0268,-0.0599 0.0599,-0.0599 h 0.48008 c 0.0331,0 0.0599,0.0268 0.0599,0.0599 v 0.48007 c 0,0.0331 0.0274,0.0599 0.0605,0.0599 h 0.47956 c 0.0331,0 0.0605,-0.0268 0.0605,-0.0599 v -1.08003 c 0,-0.0331 -0.0274,-0.06 -0.0605,-0.06 h -0.47956 c -0.0331,0 -0.0605,-0.0268 -0.0605,-0.0599 v -2.27997 c 0,-0.0331 -0.0268,-0.0599 -0.0599,-0.0599 h -0.48008 c -0.0331,0 -0.0599,-0.0269 -0.0599,-0.06 z m -4.199744,-1.19993 h -0.599963 v 0.54002 c 0,0.0331 0.02681,0.0599 0.05994,0.0599 h 0.480074 c 0.03314,0 0.05994,-0.0268 0.05994,-0.0599 z m -0.599963,0 v -0.59996 h -0.599964 v 0.59996 h 0.540019 z m -0.599964,0 h -0.540018 c -0.03314,0 -0.05994,0.0268 -0.05994,0.0599 v 0.48008 c 0,0.0331 0.0268,0.0599 0.05994,0.0599 h 0.480074 c 0.03314,0 0.05994,-0.0268 0.05994,-0.0599 z m 0,-0.59996 v -0.59997 h -0.540018 c -0.03314,0 -0.05994,0.0268 -0.05994,0.0599 v 0.48007 c 0,0.0331 0.0268,0.0599 0.05994,0.0599 h 0.480074 z m 0,-0.59997 h 0.540019 0.05994 v -1.8004 h -0.599964 z m 0,-1.8004 v -0.59997 h -0.540018 c -0.03314,0 -0.05994,0.0268 -0.05994,0.0599 v 0.48007 c 0,0.0331 0.0268,0.0599 0.05994,0.0599 h 0.480074 z m 0,-0.59997 h 0.540019 c 0.03314,0 0.05994,0.0268 0.05994,0.0599 v 0.54002 h 0.540019 c 0.03314,0 0.05994,-0.0268 0.05994,-0.0599 v -0.48007 c 0,-0.0331 0.0268,-0.0599 0.05994,-0.0599 h 0.540023 v -0.59996 h -0.540023 c -0.03314,0 -0.05994,-0.0268 -0.05994,-0.0599 v -0.48007 c 0,-0.0331 -0.0268,-0.0599 -0.05994,-0.0599 h -1.680001 c -0.03314,0 -0.05994,0.0268 -0.05994,0.0599 v 0.48007 c 0,0.0331 0.0268,0.0599 0.05994,0.0599 h 0.480074 c 0.03314,0 0.05994,0.0268 0.05994,0.0599 z m 1.799891,-0.59996 h 0.54002 c 0.0331,0 0.0599,0.0268 0.0599,0.0599 v 0.54002 h 0.59997 v -0.54002 c 0,-0.0331 0.0268,-0.0599 0.0599,-0.0599 h 1.08004 c 0.0331,0 0.0599,0.0268 0.0599,0.0599 v 0.48008 c 0,0.0331 0.0268,0.0599 0.06,0.0599 h 1.08004 0.0599 v -0.54002 c 0,-0.0331 -0.0268,-0.0599 -0.0599,-0.0599 h -0.48008 c -0.0331,0 -0.0599,-0.0268 -0.0599,-0.0599 v -1.68 c 0,-0.0331 -0.0268,-0.0599 -0.06,-0.0599 h -0.48007 c -0.0331,0 -0.06,0.0268 -0.06,0.0599 v 1.08004 c 0,0.0331 -0.0268,0.06 -0.0599,0.06 h -2.27997 c -0.0331,0 -0.0599,0.0268 -0.0599,0.0599 z m 1.19993,0.59996 v 0.54002 c 0,0.0331 0.0268,0.0599 0.0599,0.0599 h 0.48008 0.0599 v -0.54002 c 0,-0.0331 -0.0268,-0.0599 -0.0599,-0.0599 z m -0.59997,0 h -0.59996 v 1.19993 h 0.54002 0.0599 z m 0,1.19993 v 0.54002 c 0,0.0331 0.0269,0.0599 0.06,0.0599 h 1.08004 c 0.0331,0 0.0599,-0.0268 0.0599,-0.0599 v -0.54002 z m -0.59996,0 h -0.540019 c -0.03314,0 -0.05994,0.0274 -0.05994,0.0605 v 0.47956 c 0,0.0331 0.0268,0.0599 0.05994,0.0599 h 0.480069 c 0.0331,0 0.06,-0.0268 0.06,-0.0599 z m -1.199927,1.20044 v 0.59997 h 0.540019 0.05994 v -0.54002 c 0,-0.0331 -0.0268,-0.0599 -0.05994,-0.0599 z m 2.999817,0.59997 v -0.54002 c 0,-0.0331 -0.0268,-0.0599 -0.0599,-0.0599 h -0.48008 c -0.0331,0 -0.0599,0.0268 -0.0599,0.0599 v 0.48007 c 0,0.0331 0.0268,0.0599 0.0599,0.0599 h 0.48008 z m 4.254,-8.99997 c -0.0302,0.003 -0.0537,0.0289 -0.0537,0.0599 v 0.54002 h 0.54002 c 0.0331,0 0.0599,0.0269 0.0599,0.06 v 0.48007 c 0,0.0331 0.0268,0.0599 0.06,0.0599 h 0.48007 0.06 v -1.13998 c 0,-0.0331 -0.0268,-0.0599 -0.06,-0.0599 h -1.08004 c -0.002,0 -0.004,-2.1e-4 -0.006,0 z m 1.14619,1.19992 v 0.54002 c 0,0.0331 0.0268,0.06 0.0599,0.06 h 0.48008 c 0.0331,0 0.0599,-0.0269 0.0599,-0.06 V 158.764 c 0,-0.0331 -0.0268,-0.06 -0.0599,-0.06 z m -1.19993,-0.59996 h -0.54002 c -0.0331,0 -0.0599,0.0269 -0.0599,0.06 v 0.48007 c 0,0.0331 0.0268,0.0599 0.0599,0.0599 h 0.48008 c 0.0331,0 0.0599,-0.0268 0.0599,-0.0599 z m 2.4536,-0.59996 c -0.0302,0.003 -0.0537,0.0289 -0.0537,0.0599 v 4.07986 c 0,0.0331 0.0268,0.0599 0.06,0.0599 h 4.07985 c 0.0331,0 0.06,-0.0268 0.06,-0.0599 v -4.07986 c 0,-0.0331 -0.0268,-0.0599 -0.06,-0.0599 h -4.07985 c -0.002,0 -0.004,-2.1e-4 -0.006,0 z m 9.14673,0 c -0.0889,0 -0.15849,0.0242 -0.20929,0.0729 -0.0487,0.0466 -0.0734,0.1132 -0.0734,0.19999 0,0.0847 0.0247,0.15132 0.0734,0.19999 0.0508,0.0466 0.12039,0.0698 0.20929,0.0698 0.0889,0 0.15803,-0.0232 0.2067,-0.0698 0.0508,-0.0487 0.076,-0.11532 0.076,-0.19999 0,-0.0868 -0.0252,-0.15339 -0.076,-0.19999 -0.0487,-0.0487 -0.1178,-0.0729 -0.2067,-0.0729 z m 13.61157,0.0377 -1.10174,3.23236 h 0.39015 l 1.10175,-3.23236 z m -16.37678,0.27647 v 0.49506 h -0.39998 v 0.36845 h 0.39998 v 0.92088 c 0,0.21802 0.0548,0.38733 0.16485,0.50798 0.11006,0.11853 0.26803,0.17776 0.47335,0.17776 0.20744,0 0.36935,-0.0637 0.48576,-0.19068 0.11852,-0.12912 0.18319,-0.3152 0.19379,-0.55862 h -0.35605 c -0.0233,0.13122 -0.0603,0.22747 -0.11111,0.28887 -0.0487,0.0614 -0.11532,0.092 -0.19998,0.092 -0.0826,0 -0.14474,-0.0277 -0.18707,-0.0827 -0.0423,-0.0572 -0.0636,-0.1386 -0.0636,-0.24443 v -0.91106 h 0.85731 v -0.36845 h -0.85731 v -0.49506 z m 11.1125,0 v 0.49506 h -0.39998 v 0.36845 h 0.39998 v 0.92088 c 0,0.21802 0.0548,0.38733 0.16485,0.50798 0.11006,0.11853 0.26804,0.17776 0.47335,0.17776 0.20744,0 0.36934,-0.0637 0.48576,-0.19068 0.11852,-0.12912 0.18319,-0.3152 0.19379,-0.55862 h -0.35605 c -0.0233,0.13122 -0.0603,0.22747 -0.11111,0.28887 -0.0487,0.0614 -0.11532,0.092 -0.19998,0.092 -0.0825,0 -0.14474,-0.0277 -0.18707,-0.0827 -0.0423,-0.0572 -0.0636,-0.1386 -0.0636,-0.24443 v -0.91106 h 0.85731 v -0.36845 h -0.85731 v -0.49506 z m 2.2226,0 v 0.49506 h -0.40049 v 0.36845 h 0.40049 v 0.92088 c 0,0.21802 0.0548,0.38733 0.16485,0.50798 0.11007,0.11853 0.26804,0.17776 0.47336,0.17776 0.20743,0 0.36934,-0.0637 0.48576,-0.19068 0.11851,-0.12912 0.18267,-0.3152 0.19327,-0.55862 h -0.35554 c -0.0233,0.13122 -0.0603,0.22747 -0.1111,0.28887 -0.0487,0.0614 -0.11532,0.092 -0.19999,0.092 -0.0825,0 -0.14474,-0.0277 -0.18707,-0.0827 -0.0423,-0.0572 -0.0636,-0.1386 -0.0636,-0.24443 v -0.91106 h 0.85731 v -0.36845 h -0.85731 v -0.49506 z m -29.916517,0.28577 c 0.002,-2e-4 0.0041,0 0.0062,0 h 2.879927 c 0.0331,0 0.06,0.0269 0.06,0.06 v 2.87992 c 0,0.0331 -0.0269,0.0599 -0.06,0.0599 h -2.879927 c -0.03314,0 -0.05994,-0.0268 -0.05994,-0.0599 v -2.87992 c 0,-0.031 0.02349,-0.0569 0.05374,-0.06 z m 10.799857,0 c 0.002,-2e-4 0.004,0 0.006,0 h 2.87993 c 0.0331,0 0.0599,0.0269 0.0599,0.06 v 2.87992 c 0,0.0331 -0.0268,0.0599 -0.0599,0.0599 h -2.87993 c -0.0331,0 -0.0599,-0.0268 -0.0599,-0.0599 v -2.87992 c 0,-0.031 0.0235,-0.0569 0.0537,-0.06 z m 10.85515,0.15865 c -0.0931,0 -0.17903,0.0177 -0.25735,0.0537 -0.0762,0.036 -0.1364,0.0868 -0.18086,0.15245 h -0.10181 v -0.15555 h -0.39997 v 1.92081 h 0.40049 v -1.13326 c 0,-0.15028 0.0326,-0.26481 0.0982,-0.34313 0.0656,-0.0783 0.16285,-0.11731 0.29197,-0.11731 0.12913,0 0.22637,0.039 0.29197,0.11731 0.0677,0.0783 0.1018,0.19285 0.1018,0.34313 v 1.13326 h 0.39998 v -1.23506 c 0,-0.1524 -0.0261,-0.28371 -0.0791,-0.39378 -0.0529,-0.11006 -0.12748,-0.19446 -0.22272,-0.25373 -0.0953,-0.0593 -0.20927,-0.0889 -0.34262,-0.0889 z m -3.05769,0.0506 v 0.36845 h 0.57464 v 1.18443 h -0.57464 v 0.36793 h 1.54926 v -0.36793 h -0.57465 v -1.55288 z m 4.19767,0 0.59997,1.76217 h 0.31832 l -0.093,0.30489 c -0.0233,0.0656 -0.0484,0.11303 -0.076,0.14263 -0.0276,0.0297 -0.0646,0.0444 -0.1111,0.0444 -0.0486,0 -0.0882,-0.0158 -0.11782,-0.0476 -0.0297,-0.0297 -0.0558,-0.077 -0.0791,-0.14262 h -0.35915 c 0.0148,0.1778 0.0711,0.31304 0.16846,0.40617 0.0974,0.0931 0.23065,0.14005 0.39998,0.14005 0.12277,0 0.22989,-0.0385 0.32091,-0.11472 0.091,-0.0762 0.15862,-0.18282 0.20309,-0.3204 l 0.66663,-2.17506 h -0.38706 l -0.43202,1.41955 h -0.12712 l -0.47594,-1.41955 z m -22.195024,0.39067 c -0.03026,0.003 -0.05374,0.0289 -0.05374,0.06 v 1.68 c 0,0.0331 0.02681,0.0599 0.05994,0.0599 h 1.680004 c 0.0331,0 0.0599,-0.0268 0.0599,-0.0599 v -1.68 c 0,-0.0331 -0.0268,-0.06 -0.0599,-0.06 h -1.680004 c -0.0021,0 -0.0042,-2e-4 -0.0062,0 z m 5.400184,0 c -0.0302,0.003 -0.0543,0.0289 -0.0543,0.06 v 0.48007 c 0,0.0331 0.0274,0.06 0.0605,0.06 h 0.47956 c 0.0331,0 0.0605,-0.0269 0.0605,-0.06 v -0.48007 c 0,-0.0331 -0.0274,-0.06 -0.0605,-0.06 h -0.47956 c -0.002,0 -0.004,-2e-4 -0.006,0 z m 5.39967,0 c -0.0302,0.003 -0.0537,0.0289 -0.0537,0.06 v 1.68 c 0,0.0331 0.0268,0.0599 0.06,0.0599 h 1.68 c 0.0331,0 0.0599,-0.0268 0.0599,-0.0599 v -1.68 c 0,-0.0331 -0.0268,-0.06 -0.0599,-0.06 h -1.68 c -0.002,0 -0.004,-2e-4 -0.006,0 z m 14.53503,0.89246 c -0.10373,0 -0.18419,0.0281 -0.24132,0.0853 -0.0571,0.0572 -0.0858,0.1401 -0.0858,0.24805 0,0.10583 0.0286,0.18826 0.0858,0.24753 0.0572,0.0571 0.13761,0.0858 0.24132,0.0858 0.10374,0 0.1842,-0.0286 0.24133,-0.0858 0.0571,-0.0593 0.0858,-0.1417 0.0858,-0.24753 0,-0.10797 -0.0286,-0.19091 -0.0858,-0.24805 -0.0571,-0.0571 -0.13761,-0.0853 -0.24133,-0.0853 z m -9.66452,1.91409 v 2.69234 h 0.39997 v -1.13326 c 0,-0.15028 0.0326,-0.26481 0.0982,-0.34313 0.0656,-0.0783 0.16337,-0.11731 0.29249,-0.11731 0.12913,0 0.22637,0.039 0.29197,0.11731 0.0677,0.0783 0.10128,0.19285 0.10128,0.34313 v 1.13326 h 0.4005 v -1.23506 c 0,-0.1524 -0.0267,-0.28371 -0.0796,-0.39378 -0.0529,-0.11006 -0.12696,-0.19446 -0.22221,-0.25373 -0.0953,-0.0593 -0.20978,-0.0889 -0.34313,-0.0889 -0.0931,0 -0.17852,0.0177 -0.25684,0.0537 -0.0762,0.036 -0.13691,0.0868 -0.18138,0.15245 h -0.10129 v -0.92708 z m 6.80062,0 v 2.69234 h 0.39997 v -0.8015 l 0.67645,0.8015 h 0.50177 l -0.80046,-0.94929 0.81287,-0.97152 h -0.47904 l -0.71159,0.85421 v -1.62574 z m 5.48958,0 v 0.9524 h -0.10128 c -0.0402,-0.072 -0.10193,-0.12775 -0.18449,-0.16795 -0.0825,-0.0423 -0.17435,-0.0636 -0.27595,-0.0636 -0.15663,0 -0.29337,0.0415 -0.40979,0.12402 -0.11638,0.0825 -0.20622,0.20003 -0.26975,0.35243 -0.0635,0.15029 -0.0951,0.32897 -0.0951,0.53641 0,0.20531 0.0316,0.384 0.0951,0.5364 0.0635,0.15028 0.15333,0.26678 0.26975,0.34933 0.11642,0.0825 0.25316,0.12402 0.40979,0.12402 0.1016,0 0.19341,-0.0203 0.27595,-0.0605 0.0826,-0.0423 0.14429,-0.0986 0.18449,-0.16846 h 0.10128 v 0.17776 h 0.39998 v -2.69234 z m 6.28954,0.0987 c -0.16298,0 -0.30909,0.0336 -0.43821,0.10129 -0.127,0.0656 -0.22968,0.16187 -0.308,0.28887 -0.0762,0.12488 -0.11814,0.27644 -0.1266,0.45424 h 0.39687 c 0.0318,-0.15028 0.0875,-0.26332 0.16795,-0.33952 0.0804,-0.0783 0.18311,-0.11782 0.30799,-0.11782 0.13336,0 0.23701,0.038 0.31109,0.11421 0.0762,0.0741 0.11473,0.17675 0.11473,0.30799 0,0.10583 -0.0277,0.20359 -0.0827,0.29249 -0.0529,0.0868 -0.13633,0.17117 -0.25063,0.25373 l -0.90175,0.6351 v 0.60306 h 1.5968 v -0.39325 h -1.20354 v -0.0382 l 0.72398,-0.49558 c 0.17992,-0.12065 0.31319,-0.25046 0.39998,-0.39016 0.0889,-0.14181 0.13332,-0.29782 0.13332,-0.46715 0,-0.16299 -0.0345,-0.30465 -0.10438,-0.4253 -0.0699,-0.12279 -0.1676,-0.21707 -0.29249,-0.28267 -0.12488,-0.0677 -0.27296,-0.10129 -0.44442,-0.10129 z m 2.19728,0 c -0.31326,0 -0.5502,0.11106 -0.71106,0.33332 -0.15876,0.22013 -0.23823,0.55037 -0.23823,0.99063 0,0.44027 0.0795,0.7715 0.23823,0.99374 0.16086,0.22014 0.3978,0.33021 0.71106,0.33021 0.31538,0 0.55232,-0.11007 0.71107,-0.33021 0.15875,-0.22224 0.23823,-0.55347 0.23823,-0.99374 0,-0.44026 -0.0795,-0.7705 -0.23823,-0.99063 -0.15875,-0.22226 -0.39569,-0.33332 -0.71107,-0.33332 z m 2.24793,0 c -0.16299,0 -0.3091,0.0336 -0.43822,0.10129 -0.127,0.0656 -0.22967,0.16187 -0.30799,0.28887 -0.0762,0.12488 -0.11866,0.27644 -0.12712,0.45424 h 0.39687 c 0.0317,-0.15028 0.088,-0.26332 0.16847,-0.33952 0.0804,-0.0783 0.1831,-0.11782 0.30799,-0.11782 0.13335,0 0.237,0.038 0.31109,0.11421 0.0762,0.0741 0.11421,0.17675 0.11421,0.30799 0,0.10583 -0.0272,0.20359 -0.0822,0.29249 -0.0529,0.0868 -0.13685,0.17117 -0.25115,0.25373 l -0.90175,0.6351 v 0.60306 h 1.59732 v -0.39325 h -1.20355 v -0.0382 l 0.72399,-0.49558 c 0.17992,-0.12065 0.3132,-0.25046 0.39998,-0.39016 0.0889,-0.14181 0.13332,-0.29782 0.13332,-0.46715 0,-0.16299 -0.0351,-0.30465 -0.1049,-0.4253 -0.0699,-0.12279 -0.16709,-0.21707 -0.29197,-0.28267 -0.12489,-0.0677 -0.27297,-0.10129 -0.44442,-0.10129 z m 2.2257,0.0538 -0.60358,0.88263 c -0.10794,0.15663 -0.18691,0.30177 -0.23771,0.43512 -0.0487,0.13335 -0.0734,0.26466 -0.0734,0.39377 0,0.17357 0.037,0.32708 0.1111,0.46044 0.0762,0.13123 0.18137,0.23489 0.31471,0.31109 0.13336,0.0741 0.28538,0.1111 0.45682,0.1111 0.17357,0 0.32709,-0.037 0.46044,-0.1111 0.13547,-0.0762 0.24063,-0.17986 0.31471,-0.31109 0.0762,-0.13336 0.1142,-0.28687 0.1142,-0.46044 0,-0.16087 -0.0341,-0.3045 -0.1018,-0.4315 -0.0677,-0.127 -0.16052,-0.22672 -0.27905,-0.29869 -0.11853,-0.0741 -0.25429,-0.1111 -0.40669,-0.1111 -0.0254,0 -0.0506,0.002 -0.076,0.006 -0.0233,0.004 -0.0455,0.009 -0.0667,0.016 l -0.0543,-0.0512 0.59066,-0.84129 z m -4.47363,0.33331 c 0.18204,0 0.3163,0.0765 0.40308,0.22893 0.0227,0.0398 0.0427,0.0851 0.0594,0.13642 l -0.99116,0.74724 c -0.003,-0.0555 -0.005,-0.11391 -0.005,-0.1757 0,-0.31962 0.0434,-0.55556 0.13023,-0.70796 0.0868,-0.1524 0.22104,-0.22893 0.40307,-0.22893 z m -17.79271,0.23513 c -0.16722,0 -0.31432,0.0296 -0.44132,0.0889 -0.127,0.0572 -0.22869,0.13958 -0.30489,0.24753 -0.074,0.10795 -0.11749,0.23729 -0.13022,0.38757 h 0.38447 c 0.0169,-0.0783 0.0465,-0.14395 0.0889,-0.19688 0.0423,-0.055 0.0971,-0.0965 0.16484,-0.12403 0.0677,-0.0296 0.14524,-0.0444 0.23203,-0.0444 0.12277,0 0.21804,0.0331 0.28577,0.0987 0.0699,0.0656 0.1049,0.15742 0.1049,0.27596 v 0.0408 l -0.56844,0.0894 c -0.19262,0.0296 -0.3407,0.0963 -0.44441,0.19999 -0.1016,0.10371 -0.15245,0.23699 -0.15245,0.39997 0,0.11007 0.0232,0.20731 0.0698,0.29198 0.0487,0.0825 0.11631,0.14718 0.20309,0.19378 0.0889,0.0466 0.19158,0.0703 0.30799,0.0703 0.11642,0 0.21366,-0.0192 0.29198,-0.0574 0.0804,-0.0402 0.14408,-0.0975 0.19068,-0.17156 h 0.1018 v 0.18086 h 0.39016 v -1.26659 c 0,-0.22648 -0.0676,-0.40024 -0.20309,-0.52089 -0.13335,-0.12277 -0.32389,-0.18397 -0.57154,-0.18397 z m 2.30839,0 c -0.18204,0 -0.34198,0.0425 -0.47956,0.12712 -0.13547,0.0826 -0.24011,0.20004 -0.31419,0.35244 -0.072,0.1524 -0.10801,0.33305 -0.10801,0.5426 0,0.20532 0.036,0.38354 0.10801,0.53382 0.072,0.15028 0.17366,0.26626 0.30489,0.34881 0.13123,0.0804 0.28574,0.12092 0.46354,0.12092 0.15028,0 0.28356,-0.0306 0.39997,-0.092 0.11854,-0.0614 0.21282,-0.14827 0.28267,-0.26045 0.072,-0.1143 0.11394,-0.24659 0.12661,-0.39687 h -0.36484 c -0.0317,0.12065 -0.0861,0.21493 -0.16226,0.28267 -0.0762,0.0656 -0.16997,0.0982 -0.28215,0.0982 -0.1524,0 -0.27139,-0.0548 -0.35605,-0.16485 -0.0847,-0.11218 -0.12661,-0.26917 -0.12661,-0.47025 0,-0.20744 0.0434,-0.36836 0.13022,-0.48266 0.0868,-0.11641 0.20919,-0.17415 0.36794,-0.17415 0.12488,0 0.22756,0.039 0.30799,0.11731 0.0825,0.0783 0.13783,0.18741 0.16537,0.32711 h 0.36173 c -0.006,-0.1651 -0.0443,-0.30826 -0.1142,-0.42892 -0.0699,-0.12066 -0.16512,-0.21345 -0.28578,-0.27905 -0.12064,-0.0677 -0.26231,-0.1018 -0.42529,-0.1018 z m 4.3589,0 c -0.16721,0 -0.31431,0.0296 -0.44131,0.0889 -0.127,0.0572 -0.22818,0.13958 -0.30438,0.24753 -0.0741,0.10795 -0.11755,0.23729 -0.13022,0.38757 h 0.38396 c 0.0169,-0.0783 0.0465,-0.14395 0.0889,-0.19688 0.0423,-0.055 0.0976,-0.0965 0.16536,-0.12403 0.0677,-0.0296 0.14473,-0.0444 0.23151,-0.0444 0.12277,0 0.21804,0.0331 0.28577,0.0987 0.0699,0.0656 0.10491,0.15742 0.10491,0.27596 v 0.0408 l -0.56844,0.0894 c -0.19262,0.0296 -0.3407,0.0963 -0.44442,0.19999 -0.1016,0.10371 -0.15245,0.23699 -0.15245,0.39997 0,0.11007 0.0232,0.20731 0.0698,0.29198 0.0487,0.0825 0.11631,0.14718 0.20309,0.19378 0.0889,0.0466 0.19157,0.0698 0.30799,0.0698 0.11641,0 0.21417,-0.0187 0.29249,-0.0568 0.0804,-0.0402 0.14357,-0.0975 0.19017,-0.17156 h 0.1018 v 0.18086 h 0.39067 v -1.26659 c 0,-0.22648 -0.0681,-0.40024 -0.2036,-0.52089 -0.13335,-0.12277 -0.32389,-0.18397 -0.57155,-0.18397 z m 4.44521,0 c -0.16722,0 -0.31432,0.0296 -0.44132,0.0889 -0.127,0.0572 -0.22869,0.13958 -0.30489,0.24753 -0.074,0.10795 -0.11749,0.23729 -0.13022,0.38757 h 0.38447 c 0.0169,-0.0783 0.0465,-0.14395 0.0889,-0.19688 0.0423,-0.055 0.0971,-0.0965 0.16484,-0.12403 0.0677,-0.0296 0.14524,-0.0444 0.23203,-0.0444 0.12277,0 0.21804,0.0331 0.28577,0.0987 0.0699,0.0656 0.10439,0.15742 0.10439,0.27596 v 0.0408 l -0.56793,0.0894 c -0.19262,0.0296 -0.34122,0.0963 -0.44493,0.19999 -0.1016,0.10371 -0.15193,0.23699 -0.15193,0.39997 0,0.11007 0.0232,0.20731 0.0698,0.29198 0.0487,0.0825 0.11631,0.14718 0.20309,0.19378 0.0889,0.0466 0.19158,0.0698 0.30799,0.0698 0.11642,0 0.21366,-0.0187 0.29198,-0.0568 0.0804,-0.0402 0.14408,-0.0975 0.19068,-0.17156 h 0.10129 v 0.18086 h 0.39067 v -1.26659 c 0,-0.22648 -0.0676,-0.40024 -0.20309,-0.52089 -0.13335,-0.12277 -0.32389,-0.18397 -0.57154,-0.18397 z m 1.31775,0.0506 0.59996,1.76217 h 0.31833 l -0.093,0.30489 c -0.0233,0.0656 -0.0484,0.11303 -0.076,0.14263 -0.0275,0.0297 -0.0645,0.0444 -0.11111,0.0444 -0.0487,0 -0.0882,-0.0158 -0.11782,-0.0476 -0.0297,-0.0297 -0.0558,-0.077 -0.0791,-0.14262 h -0.35864 c 0.0148,0.1778 0.0706,0.31304 0.16795,0.40617 0.0974,0.0931 0.23064,0.14005 0.39998,0.14005 0.12276,0 0.22989,-0.0385 0.32091,-0.11472 0.091,-0.0762 0.15862,-0.18282 0.20309,-0.3204 l 0.66662,-2.17506 h -0.38705 l -0.43202,1.41955 h -0.12712 l -0.47594,-1.41955 z m -19.07894,0.0217 c -0.0331,0 -0.0599,0.0268 -0.0599,0.0599 v 0.48007 c 0,0.0331 0.0268,0.0599 0.0599,0.0599 h 0.48008 c 0.0331,0 0.0599,-0.0268 0.0599,-0.0599 v -0.48007 c 0,-0.0331 -0.0268,-0.0599 -0.0599,-0.0599 z m 15.49105,0.2961 c 0.1524,0 0.27086,0.0567 0.35553,0.17105 0.0847,0.11219 0.12712,0.27016 0.12712,0.47336 0,0.20108 -0.0425,0.35854 -0.12712,0.47284 -0.0847,0.11218 -0.20313,0.16846 -0.35553,0.16846 -0.1524,0 -0.27087,-0.0563 -0.35554,-0.16846 -0.0825,-0.11218 -0.12402,-0.26964 -0.12402,-0.47284 0,-0.2032 0.0415,-0.36117 0.12402,-0.47336 0.0847,-0.1143 0.20314,-0.17105 0.35554,-0.17105 z m 9.47952,0.16847 c 0.003,0.0521 0.004,0.1073 0.004,0.16484 0,0.31962 -0.0434,0.55557 -0.13022,0.70797 -0.0868,0.1524 -0.22104,0.22841 -0.40308,0.22841 -0.18203,0 -0.31629,-0.076 -0.40307,-0.22841 -0.0213,-0.0374 -0.0403,-0.0797 -0.0563,-0.12712 z m 3.91604,0.1173 c 0.0952,0 0.17768,0.0198 0.24753,0.06 0.0719,0.0402 0.12672,0.0975 0.16485,0.17156 0.0381,0.0741 0.0574,0.15998 0.0574,0.25735 0,0.0995 -0.0192,0.18637 -0.0574,0.26045 -0.0381,0.0741 -0.0929,0.13233 -0.16485,0.17467 -0.0699,0.0402 -0.15228,0.0599 -0.24753,0.0599 -0.0953,0 -0.1782,-0.0197 -0.24805,-0.0599 -0.0699,-0.0423 -0.12464,-0.10058 -0.16484,-0.17467 -0.0381,-0.0741 -0.0574,-0.16096 -0.0574,-0.26045 0,-0.0974 0.0193,-0.18327 0.0574,-0.25735 0.0402,-0.0741 0.095,-0.13136 0.16484,-0.17156 0.072,-0.0402 0.15492,-0.06 0.24805,-0.06 z m -27.68616,0.0181 c -0.0331,0 -0.0605,0.0268 -0.0605,0.0599 v 0.48008 c 0,0.0331 -0.0268,0.0599 -0.0599,0.0599 h -1.08004 c -0.0331,0 -0.0599,0.0268 -0.0599,0.0599 v 0.48007 c 0,0.0331 0.0268,0.0599 0.0599,0.0599 h 0.48008 c 0.0331,0 0.0599,0.0268 0.0599,0.0599 v 1.08004 c 0,0.0331 0.0268,0.0599 0.06,0.0599 h 0.48007 c 0.0331,0 0.0599,0.0274 0.0599,0.0605 v 0.47956 c 0,0.0331 -0.0268,0.0605 -0.0599,0.0605 h -1.13998 v 0.54002 c 0,0.0331 0.0268,0.0599 0.0599,0.0599 h 0.48008 c 0.0331,0 0.0599,0.0268 0.0599,0.0599 v 0.48007 c 0,0.0331 0.0268,0.06 0.06,0.06 h 0.48007 c 0.0331,0 0.0599,-0.0268 0.0599,-0.06 v -0.48007 c 0,-0.0331 0.0274,-0.0599 0.0605,-0.0599 h 0.47955 c 0.0331,0 0.06,-0.0268 0.06,-0.0599 v -1.68 c 0,-0.0331 -0.0268,-0.0605 -0.06,-0.0605 h -0.47955 c -0.0331,0 -0.0605,-0.0268 -0.0605,-0.0599 v -0.48007 c 0,-0.0331 0.0274,-0.0599 0.0605,-0.0599 h 0.47955 c 0.0331,0 0.06,-0.0268 0.06,-0.0599 v -1.08004 c 0,-0.0331 -0.0268,-0.0599 -0.06,-0.0599 z m -1.26039,3.00033 v -1.13998 c 0,-0.0331 -0.0268,-0.0605 -0.0599,-0.0605 h -0.48007 c -0.0331,0 -0.06,0.0274 -0.06,0.0605 v 1.07952 c 0,0.0331 0.0269,0.0605 0.06,0.0605 h 0.48007 z m 7.0931,-2.56883 v 0.10283 c 0,0.0847 -0.0227,0.16166 -0.0672,0.23151 -0.0423,0.0677 -0.10006,0.12303 -0.17414,0.16537 -0.072,0.0402 -0.15145,0.0599 -0.23823,0.0599 -0.0826,0 -0.14822,-0.0197 -0.19689,-0.0599 -0.0487,-0.0423 -0.0729,-0.0976 -0.0729,-0.16537 0,-0.0699 0.0197,-0.12613 0.0599,-0.16846 0.0402,-0.0445 0.10193,-0.0741 0.18449,-0.0889 z m 6.6673,0 v 0.10283 c 0,0.0847 -0.0222,0.16166 -0.0667,0.23151 -0.0423,0.0677 -0.10058,0.12303 -0.17466,0.16537 -0.072,0.0402 -0.15144,0.0599 -0.23823,0.0599 -0.0826,0 -0.14822,-0.0197 -0.19689,-0.0599 -0.0487,-0.0423 -0.0729,-0.0976 -0.0729,-0.16537 0,-0.0699 0.0203,-0.12613 0.0605,-0.16846 0.0402,-0.0445 0.10142,-0.0741 0.18397,-0.0889 z m 4.44469,0 v 0.10283 c 0,0.0847 -0.0222,0.16166 -0.0667,0.23151 -0.0423,0.0677 -0.10057,0.12303 -0.17466,0.16537 -0.072,0.0402 -0.15093,0.0599 -0.23771,0.0599 -0.0826,0 -0.14822,-0.0197 -0.19689,-0.0599 -0.0487,-0.0423 -0.0729,-0.0976 -0.0729,-0.16537 0,-0.0699 0.0197,-0.12613 0.0599,-0.16846 0.0402,-0.0445 0.10193,-0.0741 0.18449,-0.0889 z m -19.34507,0.16846 c -0.0331,0 -0.06,0.0268 -0.06,0.0599 v 0.48007 c 0,0.0331 0.0268,0.0599 0.06,0.0599 h 0.48007 c 0.0331,0 0.0599,-0.0268 0.0599,-0.0599 v -0.48007 c 0,-0.0331 -0.0268,-0.0599 -0.0599,-0.0599 z m -6.60012,1.19993 h 0.48008 c 0.0331,0 0.0599,0.0274 0.0599,0.0605 v 1.68 c 0,0.0331 -0.0268,0.0599 -0.0599,0.0599 h -0.48008 c -0.0331,0 -0.0599,-0.0268 -0.0599,-0.0599 v -1.68 c 0,-0.0331 0.0268,-0.0605 0.0599,-0.0605 z m 4.79402,3.00033 c 0.002,-2e-4 0.004,0 0.006,0 h 1.68001 c 0.0331,0 0.0599,0.0269 0.0599,0.06 v 1.68 c 0,0.0331 -0.0268,0.0599 -0.0599,0.0599 h -1.68001 c -0.0331,0 -0.0599,-0.0268 -0.0599,-0.0599 v -1.68 c 0,-0.031 0.0235,-0.0569 0.0537,-0.06 z m -10.19989,0.59997 c -0.03026,0.003 -0.05374,0.0289 -0.05374,0.0599 v 4.07985 c 0,0.0331 0.0268,0.0599 0.05994,0.0599 h 4.07986 c 0.0331,0 0.0599,-0.0268 0.0599,-0.0599 v -4.07985 c 0,-0.0331 -0.0268,-0.0599 -0.0599,-0.0599 h -4.07986 c -0.0021,0 -0.0042,-2.1e-4 -0.0062,0 z m 10.79986,0 c -0.0302,0.003 -0.0537,0.0289 -0.0537,0.0599 v 0.48007 c 0,0.0331 0.0268,0.06 0.06,0.06 h 0.48007 c 0.0331,0 0.06,-0.0269 0.06,-0.06 v -0.48007 c 0,-0.0331 -0.0268,-0.0599 -0.06,-0.0599 h -0.48007 c -0.002,0 -0.004,-2.1e-4 -0.006,0 z m -10.193696,0.59996 h 2.879926 c 0.0331,0 0.06,0.0268 0.06,0.0599 v 2.87993 c 0,0.0331 -0.0269,0.06 -0.06,0.06 h -2.879926 c -0.03314,0 -0.05994,-0.0269 -0.05994,-0.06 v -2.87993 c 0,-0.0331 0.02681,-0.0599 0.05994,-0.0599 z m 0.599964,0.59996 c -0.03314,0 -0.05994,0.0268 -0.05994,0.06 v 1.68 c 0,0.0331 0.02681,0.0599 0.05994,0.0599 h 1.680002 c 0.0331,0 0.0599,-0.0268 0.0599,-0.0599 v -1.68 c 0,-0.0331 -0.0268,-0.06 -0.0599,-0.06 z m 13.199712,1.19993 c -0.0331,0 -0.06,0.0268 -0.06,0.0599 v 0.54002 h 0.54002 c 0.0331,0 0.06,-0.0268 0.06,-0.0599 v -0.48008 c 0,-0.0331 -0.0268,-0.0599 -0.06,-0.0599 z m -0.06,0.59996 h -0.54001 c -0.0331,0 -0.06,0.0268 -0.06,0.06 v 1.08003 c 0,0.0331 0.0268,0.0599 0.06,0.0599 h 1.08003 c 0.0331,0 0.06,-0.0268 0.06,-0.0599 v -0.48007 c 0,-0.0331 -0.0268,-0.0599 -0.06,-0.0599 h -0.48007 c -0.0331,0 -0.06,-0.0269 -0.06,-0.06 z" />
  </g>
</svg>
