<?xml version="1.0" encoding="UTF-8" standalone="no"?>
<!-- Created with Inkscape (http://www.inkscape.org/) -->

<svg
   width="39.099941mm"
   height="2.9419401mm"
   viewBox="0 0 39.099941 2.9419401"
   version="1.1"
   id="svg1"
   sodipodi:docname="top-header.svg"
   inkscape:version="1.4.3 (unknown)"
   xmlns:inkscape="http://www.inkscape.org/namespaces/inkscape"
   xmlns:sodipodi="http://sodipodi.sourceforge.net/DTD/sodipodi-0.dtd"
   xmlns="http://www.w3.org/2000/svg"
   xmlns:svg="http://www.w3.org/2000/svg">
  <sodipodi:namedview
     id="namedview1"
     pagecolor="#ffffff"
     bordercolor="#000000"
     borderopacity="0.25"
     inkscape:showpageshadow="2"
     inkscape:pageopacity="0.0"
     inkscape:pagecheckerboard="0"
     inkscape:deskcolor="#d1d1d1"
     inkscape:document-units="mm"
     inkscape:zoom="5.7741437"
     inkscape:cx="74.036952"
     inkscape:cy="132.2274"
     inkscape:window-width="3840"
     inkscape:window-height="2076"
     inkscape:window-x="0"
     inkscape:window-y="0"
     inkscape:window-maximized="1"
     inkscape:current-layer="layer1" />
  <defs
     id="defs1" />
  <g
     inkscape:label="Layer 1"
     inkscape:groupmode="layer"
     id="layer1"
     transform="translate(-96.585318,-105.30365)">
    <path
       id="path113"
       style="fill:#000000;stroke:none;stroke-width:0.1;stroke-linecap:round;stroke-linejoin:round"
       d="m 96.585318,105.30365 1.698605,2.94194 1.698604,-2.94194 z m 10.947652,0 c -0.35278,0 -0.61863,0.12358 -0.79737,0.37052 -0.17874,0.24459 -0.2682,0.61152 -0.2682,1.10071 0,0.47978 0.0811,0.84417 0.2434,1.09347 0.16463,0.24695 0.39256,0.37052 0.68419,0.37052 0.12936,0 0.24131,-0.025 0.33538,-0.0744 0.0941,-0.0494 0.16104,-0.11762 0.20103,-0.20464 h 0.11317 v 0.22582 h 0.39481 v -1.43195 h -0.96997 v 0.41961 h 0.57516 c 0,0.12465 -0.0238,0.23735 -0.0708,0.33848 -0.0447,0.10113 -0.10584,0.18225 -0.18345,0.2434 -0.0753,0.0588 -0.16092,0.0884 -0.25735,0.0884 -0.20696,0 -0.36011,-0.0857 -0.45889,-0.25735 -0.0964,-0.17404 -0.14469,-0.44443 -0.14469,-0.81132 0,-0.35513 0.0495,-0.6177 0.14831,-0.78703 0.0988,-0.16934 0.25066,-0.25374 0.45527,-0.25374 0.14817,0 0.26541,0.047 0.35243,0.14108 0.0894,0.0941 0.15053,0.23054 0.18346,0.40928 h 0.43046 c -0.0141,-0.20696 -0.0624,-0.38335 -0.14469,-0.52917 -0.08,-0.14581 -0.18939,-0.25777 -0.32815,-0.33538 -0.13876,-0.0776 -0.30301,-0.11627 -0.49351,-0.11627 z m 4.88239,0 c -0.34807,0 -0.61139,0.12358 -0.79013,0.37052 -0.17639,0.24459 -0.26459,0.61152 -0.26459,1.10071 0,0.48918 0.0882,0.85686 0.26459,1.10381 0.17874,0.24459 0.44206,0.3669 0.79013,0.3669 0.35043,0 0.61374,-0.12231 0.79013,-0.3669 0.17639,-0.24695 0.26459,-0.61463 0.26459,-1.10381 0,-0.48919 -0.0882,-0.85612 -0.26459,-1.10071 -0.17639,-0.24694 -0.4397,-0.37052 -0.79013,-0.37052 z m 4.96714,0 c -0.18109,0 -0.34333,0.0374 -0.48679,0.11265 -0.14111,0.0729 -0.2556,0.1798 -0.34262,0.32092 -0.0847,0.13875 -0.13167,0.30732 -0.14107,0.50487 h 0.44131 c 0.0353,-0.16698 0.0977,-0.29308 0.18707,-0.37775 0.0894,-0.087 0.20334,-0.13023 0.3421,-0.13023 0.14816,0 0.2634,0.0419 0.34571,0.12661 0.0847,0.0823 0.12661,0.1968 0.12661,0.34262 0,0.11759 -0.0303,0.22575 -0.0915,0.32452 -0.0588,0.0964 -0.15153,0.19044 -0.27853,0.28216 l -1.00201,0.70538 v 0.67024 h 1.77457 v -0.43718 h -1.33739 v -0.0424 l 0.80461,-0.55036 c 0.1999,-0.13405 0.34799,-0.27886 0.44441,-0.43408 0.0988,-0.15757 0.14832,-0.33017 0.14832,-0.51831 0,-0.1811 -0.0387,-0.33879 -0.11628,-0.47284 -0.0776,-0.13641 -0.18628,-0.24129 -0.32504,-0.3142 -0.13876,-0.0753 -0.30301,-0.11265 -0.49351,-0.11265 z m 4.99866,0 c -0.35278,0 -0.61863,0.12358 -0.79737,0.37052 -0.17639,0.24459 -0.26458,0.61152 -0.26458,1.10071 0,0.48918 0.0862,0.85686 0.25786,1.10381 0.17404,0.24459 0.43155,0.3669 0.77257,0.3669 0.18579,0 0.34677,-0.0387 0.48317,-0.11627 0.13641,-0.08 0.2433,-0.19393 0.32091,-0.3421 0.08,-0.15052 0.12697,-0.33197 0.14108,-0.54364 h -0.42323 c -0.0329,0.1858 -0.0928,0.32807 -0.17983,0.42685 -0.087,0.0964 -0.20099,0.14469 -0.3421,0.14469 -0.19521,0 -0.33875,-0.0844 -0.43047,-0.25373 -0.0917,-0.16933 -0.13746,-0.43138 -0.13746,-0.78651 0,-0.35513 0.0477,-0.6177 0.14418,-0.78703 0.0988,-0.16934 0.25066,-0.25374 0.45527,-0.25374 0.15052,0 0.2703,0.0528 0.35967,0.15865 0.0917,0.10348 0.15541,0.25611 0.19068,0.45837 h 0.42323 c -0.0141,-0.22342 -0.0611,-0.4127 -0.14107,-0.56792 -0.08,-0.15758 -0.19014,-0.27609 -0.33125,-0.35605 -0.14111,-0.0823 -0.30841,-0.12351 -0.50126,-0.12351 z m 9.90689,0 1.6986,2.94194 1.69861,-2.94194 z m -30.80536,0.0599 v 0.43719 h 0.82528 v 2.38486 h 0.45888 v -2.38486 h 0.82528 v -0.43719 z m 2.46962,0 v 0.43719 h 0.82527 v 2.38486 h 0.45837 v -2.38486 h 0.82579 v -0.43719 z m 5.28082,0 v 2.82205 h 0.46198 v -1.16427 h 1.08314 v -0.40566 h -1.08314 v -0.81493 h 1.25987 v -0.43719 z m 4.83329,0 v 2.82205 h 0.46199 v -1.13946 h 0.5364 c 0.18345,0 0.34315,-0.0341 0.47956,-0.10232 0.1364,-0.0682 0.24128,-0.16474 0.31419,-0.28939 0.0753,-0.127 0.11266,-0.27508 0.11266,-0.44442 0,-0.17168 -0.0374,-0.32103 -0.11266,-0.44803 -0.0729,-0.127 -0.17779,-0.22429 -0.31419,-0.29249 -0.13641,-0.0706 -0.29611,-0.10594 -0.47956,-0.10594 z m 9.76478,0 v 2.82205 h 0.46199 v -1.19941 h 0.93844 v 1.19941 h 0.46199 v -2.82205 h -0.46199 v 1.18856 h -0.93844 v -1.18856 z m 2.46962,0 v 0.43719 h 0.70176 v 1.94768 h -0.70176 v 0.43718 h 1.86242 v -0.43718 h -0.70177 v -1.94768 h 0.70177 v -0.43719 z m 2.58227,0 v 2.82205 h 0.46199 v -1.13946 h 0.5364 c 0.18344,0 0.34315,-0.0341 0.47955,-0.10232 0.13641,-0.0682 0.24129,-0.16474 0.3142,-0.28939 0.0753,-0.127 0.11265,-0.27508 0.11265,-0.44442 0,-0.17168 -0.0374,-0.32103 -0.11265,-0.44803 -0.0729,-0.127 -0.17779,-0.22429 -0.3142,-0.29249 -0.1364,-0.0706 -0.29611,-0.10594 -0.47955,-0.10594 z m -16.46773,0.37052 c 0.20218,4e-5 0.35165,0.0844 0.44803,0.25374 0.0252,0.0443 0.047,0.095 0.0656,0.15192 l -1.10122,0.83044 c -0.004,-0.0617 -0.005,-0.12668 -0.005,-0.19533 0,-0.35513 0.0483,-0.6177 0.1447,-0.78703 0.0964,-0.1693 0.24585,-0.2537 0.44803,-0.25374 z m 2.11305,0.0636 h 0.54674 c 0.1364,0 0.24203,0.0374 0.31729,0.11265 0.0776,0.0729 0.11679,0.17399 0.11679,0.30334 0,0.12935 -0.0392,0.2317 -0.11679,0.30696 -0.0753,0.0729 -0.18089,0.10955 -0.31729,0.10955 h -0.54674 z m 14.81667,0 h 0.54673 c 0.13641,0 0.24255,0.0374 0.31781,0.11265 0.0776,0.0729 0.11627,0.17399 0.11627,0.30334 0,0.12935 -0.0387,0.2317 -0.11627,0.30696 -0.0753,0.0729 -0.1814,0.10955 -0.31781,0.10955 h -0.54673 z m -16.34164,0.79426 c 0.003,0.0579 0.005,0.119 0.005,0.18294 0,0.35513 -0.0483,0.61718 -0.1447,0.78651 -0.0964,0.16934 -0.24577,0.25373 -0.44803,0.25373 -0.20226,0 -0.35162,-0.0844 -0.44804,-0.25373 -0.0236,-0.0415 -0.0447,-0.0884 -0.0625,-0.14107 z" />
  </g>
</svg>
