<?xml version="1.0" encoding="UTF-8" standalone="no"?>
<!-- Created with Inkscape (http://www.inkscape.org/) -->

<svg
   width="38.254009mm"
   height="6.9644399mm"
   viewBox="0 0 38.254009 6.9644399"
   version="1.1"
   id="svg1"
   sodipodi:docname="top-footer.svg"
   inkscape:version="1.4.3 (unknown)"
   xmlns:inkscape="http://www.inkscape.org/namespaces/inkscape"
   xmlns:sodipodi="http://sodipodi.sourceforge.net/DTD/sodipodi-0.dtd"
   xmlns="http://www.w3.org/2000/svg"
   xmlns:svg="http://www.w3.org/2000/svg">
  <sodipodi:namedview
     id="namedview1"
     pagecolor="#ffffff"
     bordercolor="#000000"
     borderopacity="0.25"
     inkscape:showpageshadow="2"
     inkscape:pageopacity="0.0"
     inkscape:pagecheckerboard="0"
     inkscape:deskcolor="#d1d1d1"
     inkscape:document-units="mm"
     inkscape:zoom="5.7741437"
     inkscape:cx="42.343941"
     inkscape:cy="-106.24952"
     inkscape:window-width="3840"
     inkscape:window-height="2076"
     inkscape:window-x="0"
     inkscape:window-y="0"
     inkscape:window-maximized="1"
     inkscape:current-layer="layer1" />
  <defs
     id="defs1" />
  <g
     inkscape:label="Layer 1"
     inkscape:groupmode="layer"
     id="layer1"
     transform="translate(-97.008032,-171.73835)">
    <path
       id="path20"
       style="fill:#000000;stroke:none;stroke-width:0.1;stroke-linecap:round;stroke-linejoin:round"
       d="m 107.64924,171.73835 c -0.0725,0 -0.13223,0.0227 -0.17983,0.0682 -0.0455,0.0434 -0.0682,0.0981 -0.0682,0.16433 0,0.0642 0.0227,0.11932 0.0682,0.16485 0.0476,0.0455 0.10739,0.0682 0.17983,0.0682 0.0745,0 0.1343,-0.0227 0.17984,-0.0682 0.0455,-0.0476 0.0682,-0.10534 0.0682,-0.17364 0,-0.0642 -0.0237,-0.11724 -0.0713,-0.15864 -0.0455,-0.0434 -0.10431,-0.0651 -0.17674,-0.0651 z m -7.34167,0.18242 c -1.102477,0 -2.078322,0.54258 -2.677871,1.37563 -0.19572,0.27273 -0.351838,0.575 -0.45837,0.90227 h 0.535368 1.29036 v 2.23449 h 0.973584 v -0.60307 h 0.562759 v 2.17713 c -0.0743,0.007 -0.15161,0.01 -0.22841,0.01 -1.541,0 -2.794147,-1.25458 -2.794147,-2.79673 0,-0.25537 0.03429,-0.50074 0.0987,-0.7338 H 97.08968 c -0.0545,0.23554 -0.08165,0.48091 -0.08165,0.7338 0,1.81983 1.478482,3.30006 3.29696,3.30006 0.0768,0 0.15161,-0.002 0.22841,-0.007 0.0421,-0.002 0.084,-0.007 0.12609,-0.0124 h 0.01 c 0.29234,-0.0322 0.57258,-0.10155 0.83767,-0.20567 v -2.46445 h 0.95602 v -0.90227 h -2.489777 v -0.73122 h 0.953947 v -0.90279 h -2.643766 c 0.507883,-0.53553 1.228902,-0.87023 2.024166,-0.87023 1.541,0 2.79466,1.25458 2.79466,2.79673 0,0.99421 -0.51987,1.86936 -1.30276,2.36523 v 0.57981 c 1.07275,-0.54545 1.80868,-1.66075 1.80868,-2.94504 -0.002,-1.81983 -1.48211,-3.30058 -3.30058,-3.30058 z m 5.03484,0.0413 v 0.34158 h 0.72037 v 1.83142 h 0.40359 v -1.83142 h 0.71985 v -0.34158 z m 7.50341,0 v 0.34158 h 0.72037 v 1.83142 h 0.4036 v -1.83142 h 0.72037 v -0.34158 z m 22.38882,0.14831 c -0.002,0 -0.006,2.7e-4 -0.009,5.2e-4 -0.017,0.002 -0.0412,0.006 -0.0734,0.0114 -0.13011,0.0218 -0.32929,0.0758 -0.46457,0.12609 -0.53449,0.19881 -1.12971,0.65087 -1.55442,1.18029 -0.0452,0.0564 -0.0827,0.10308 -0.0832,0.10387 -4e-4,8e-4 -0.11757,0.0141 -0.26045,0.0295 l -0.25942,0.0279 -0.44287,0.33125 c -0.24351,0.18219 -0.43944,0.33354 -0.43304,0.33434 0.006,0.002 0.16611,0.007 0.35656,0.0134 0.1904,0.006 0.38332,0.0139 0.42892,0.0171 l 0.0832,0.006 -0.0501,0.12299 c -0.0276,0.0678 -0.0496,0.12698 -0.0496,0.13178 0,0.005 0.063,0.07 0.14004,0.14521 0.077,0.0752 0.15551,0.15757 0.17519,0.18293 0.0176,0.0231 0.0373,0.0426 0.0455,0.046 h 5.2e-4 5.2e-4 v 5.1e-4 c 0.006,1.6e-4 0.0684,-0.0223 0.13797,-0.0496 l 0.12609,-0.0496 0.008,0.35244 c 0.005,0.19393 0.011,0.39141 0.0134,0.43821 0.002,0.0382 0.008,0.0689 0.0119,0.076 l 5.1e-4,5.1e-4 h 5.2e-4 5.2e-4 5.1e-4 c 0.004,-0.005 0.15526,-0.20036 0.33538,-0.43459 l 0.32711,-0.42582 0.0315,-0.262 0.0315,-0.26148 0.0672,-0.0506 c 0.29541,-0.22495 0.56823,-0.50052 0.79633,-0.80461 0.31372,-0.41821 0.48376,-0.7779 0.56896,-1.19941 0.0225,-0.11081 0.0328,-0.13959 -0.009,-0.13952 z m -10.25002,5.2e-4 v 0.36639 h -0.27337 v 0.31006 h 0.27337 v 0.81028 c 0,0.18419 0.0495,0.32441 0.14883,0.41962 0.0993,0.0931 0.24006,0.13952 0.42219,0.13952 0.0704,0 0.13842,-0.01 0.20464,-0.0279 0.0662,-0.0186 0.1219,-0.0464 0.16743,-0.0837 l -0.108,-0.27647 c -0.0579,0.0455 -0.13063,0.0682 -0.21756,0.0682 -0.0724,0 -0.12914,-0.0216 -0.17053,-0.0651 -0.0393,-0.0434 -0.0594,-0.10429 -0.0594,-0.18293 v -0.8015 h 0.44442 v -0.31006 h -0.44442 v -0.36639 z m 6.59856,0.24701 c -0.50025,-0.0157 -0.96358,0.0848 -1.41645,0.30748 -0.82848,0.4074 -1.42026,1.17728 -1.60352,2.08566 l -0.031,0.15193 -0.10026,0.15141 c -0.16202,0.2443 -0.26252,0.45661 -0.31316,0.65991 -0.023,0.0918 -0.0272,0.12975 -0.0269,0.2558 4e-4,0.1376 0.002,0.15398 0.0331,0.24494 0.0534,0.16243 0.15106,0.28845 0.30799,0.3943 0.14125,0.0952 0.25918,0.14472 0.43046,0.18086 h 0.001 c 0.0912,0.0191 0.14389,0.0232 0.28938,0.0238 0.25515,6.8e-4 0.43676,-0.0278 0.73536,-0.11679 0.39781,-0.1186 0.86443,-0.33826 1.3932,-0.65629 0.32987,-0.1984 0.56337,-0.35921 0.8139,-0.56017 0.24152,-0.19373 0.53108,-0.45948 0.54002,-0.49454 v -5.2e-4 -5.2e-4 -5.1e-4 c -0.008,-0.0241 -0.2712,-0.28925 -0.29507,-0.29766 h -5.2e-4 c -0.006,0 -0.10411,0.0929 -0.21704,0.20671 -0.36198,0.36454 -0.62697,0.57927 -1.1219,0.9095 -0.85554,0.57085 -1.59907,0.8478 -2.08049,0.77412 -0.21126,-0.0323 -0.39391,-0.11622 -0.51573,-0.23668 -0.21173,-0.20991 -0.21144,-0.56533 0,-1.00666 0.0295,-0.0616 0.0638,-0.13131 0.0775,-0.15451 l 0.0243,-0.0419 -0.003,0.14263 c -0.006,0.24034 0.0267,0.53954 0.0863,0.77566 0.0325,0.12805 0.0842,0.29296 0.0966,0.30592 0.0245,0.0258 0.3242,0.0882 0.35864,0.076 h 5.2e-4 5.1e-4 l 5.2e-4,-5.2e-4 v -5.1e-4 h 5.2e-4 v -5.2e-4 -5.2e-4 c 0.001,-0.008 -0.01,-0.0408 -0.0248,-0.0775 -0.22224,-0.53896 -0.26112,-1.15667 -0.10749,-1.71721 0.0964,-0.35162 0.27171,-0.69368 0.50075,-0.9772 0.0993,-0.12289 0.31227,-0.33292 0.43098,-0.42478 0.38293,-0.29634 0.81522,-0.47699 1.30328,-0.54467 0.17214,-0.0239 0.50743,-0.024 0.68213,0 0.42813,0.0587 0.8137,0.207 1.16582,0.44855 l 0.11214,0.077 0.10903,-0.11421 0.10904,-0.1142 -0.0274,-0.0238 c -0.0151,-0.013 -0.085,-0.0617 -0.15503,-0.10852 -0.47466,-0.31733 -0.99198,-0.48335 -1.56321,-0.50127 z m -22.29166,0.10077 c -0.14487,0 -0.27323,0.0289 -0.38499,0.0868 -0.0738,0.0376 -0.13616,0.0867 -0.18655,0.14676 v -0.21497 h -0.36949 v 1.65778 h 0.38809 v -0.83819 c 0,-0.11176 0.0186,-0.20352 0.0558,-0.27596 0.0394,-0.0745 0.0945,-0.13068 0.16485,-0.16794 0.0704,-0.0373 0.15079,-0.0558 0.24185,-0.0558 0.12418,0 0.22057,0.0361 0.28887,0.10853 0.0704,0.0724 0.10593,0.18223 0.10593,0.32917 v 0.90021 h 0.38758 v -0.94982 c 0,-0.16764 -0.0294,-0.30476 -0.0894,-0.41031 -0.06,-0.10762 -0.14302,-0.187 -0.24857,-0.23874 -0.10348,-0.0518 -0.22152,-0.0775 -0.35398,-0.0775 z m 6.21202,0 c -0.13246,0 -0.26082,0.0176 -0.38499,0.0527 -0.12212,0.0331 -0.22777,0.0836 -0.31677,0.15193 l 0.15193,0.28267 c 0.0621,-0.0518 0.13787,-0.0924 0.22686,-0.12144 0.0911,-0.029 0.18282,-0.0434 0.27595,-0.0434 0.13867,0 0.24227,0.0325 0.31057,0.0966 0.0683,0.0621 0.10232,0.14972 0.10232,0.26355 v 0.0248 h -0.42788 c -0.16764,0 -0.30218,0.0221 -0.40359,0.0656 -0.10142,0.0434 -0.17512,0.10224 -0.22066,0.17674 -0.0434,0.0745 -0.0651,0.15801 -0.0651,0.25114 0,0.0952 0.0247,0.18182 0.0744,0.25839 0.0518,0.0745 0.12442,0.13326 0.21756,0.17673 0.0931,0.0414 0.20138,0.062 0.32556,0.062 0.14694,0 0.26809,-0.0268 0.36329,-0.0806 0.067,-0.037 0.12011,-0.0844 0.15864,-0.14211 v 0.20102 h 0.36639 v -0.97152 c 0,-0.24008 -0.0665,-0.4174 -0.19895,-0.53123 -0.13039,-0.1159 -0.31545,-0.17364 -0.55553,-0.17364 z m 2.1699,0 c -0.14074,0 -0.26601,0.031 -0.37569,0.093 -0.0662,0.0362 -0.12399,0.0845 -0.17363,0.14418 v -0.21859 h -0.37001 v 2.25981 h 0.38861 v -0.8046 c 0.0472,0.053 0.10083,0.0971 0.16123,0.13125 0.11176,0.0621 0.23496,0.093 0.36949,0.093 0.1635,0 0.30732,-0.035 0.4315,-0.10542 0.12625,-0.0704 0.22573,-0.16882 0.29817,-0.29507 0.0745,-0.12832 0.11162,-0.27832 0.11162,-0.4501 0,-0.17178 -0.0371,-0.32075 -0.11162,-0.447 -0.0724,-0.12624 -0.17192,-0.22471 -0.29817,-0.29508 -0.12418,-0.0704 -0.268,-0.10542 -0.4315,-0.10542 z m 1.93063,0 c -0.16537,8e-5 -0.31366,0.0362 -0.4439,0.10852 -0.12832,0.0725 -0.22935,0.17296 -0.30386,0.30128 -0.0724,0.12624 -0.10904,0.27213 -0.10904,0.4377 0,0.1635 0.0376,0.30938 0.11214,0.4377 0.0766,0.12831 0.18276,0.22987 0.31936,0.30437 0.13866,0.0724 0.30054,0.10852 0.48473,0.10852 0.14488,0 0.27323,-0.0227 0.38499,-0.0682 0.11383,-0.0476 0.20764,-0.11462 0.28215,-0.20154 l -0.20774,-0.23978 c -0.0579,0.0621 -0.12444,0.10796 -0.19895,0.13694 -0.0745,0.029 -0.15801,0.0434 -0.25115,0.0434 -0.10761,0 -0.20299,-0.0206 -0.28577,-0.062 -0.0828,-0.0414 -0.1467,-0.10015 -0.19224,-0.17673 -0.0287,-0.0482 -0.0488,-0.10136 -0.0594,-0.15865 h 1.3007 c 0.002,-0.0186 0.003,-0.0382 0.003,-0.0589 0.002,-0.0207 0.003,-0.0393 0.003,-0.0558 0,-0.17385 -0.036,-0.32488 -0.10852,-0.4532 -0.0724,-0.12831 -0.17142,-0.22781 -0.29766,-0.29818 -0.12611,-0.0703 -0.27029,-0.10534 -0.43149,-0.10542 z m 1.95595,0 c -0.16971,0 -0.32075,0.0361 -0.4532,0.10852 -0.13246,0.0725 -0.2371,0.17296 -0.31368,0.30128 -0.0766,0.12624 -0.11472,0.27213 -0.11472,0.4377 0,0.1635 0.0381,0.30938 0.11472,0.4377 0.0766,0.12831 0.18122,0.22987 0.31368,0.30437 0.13245,0.0724 0.28349,0.10852 0.4532,0.10852 0.17178,0 0.32383,-0.0361 0.4563,-0.10852 0.13452,-0.0745 0.23917,-0.17606 0.31368,-0.30437 0.0766,-0.12832 0.11472,-0.2742 0.11472,-0.4377 0,-0.16764 -0.0381,-0.31455 -0.11472,-0.4408 -0.0745,-0.12624 -0.17916,-0.22574 -0.31368,-0.29818 -0.13247,-0.0724 -0.28452,-0.10852 -0.4563,-0.10852 z m -14.10663,0.0186 v 1.65778 h 0.38809 v -1.65778 z m 2.71301,0 0.72502,1.66295 -0.0289,0.0661 c -0.0373,0.0828 -0.078,0.14206 -0.12144,0.17725 -0.0434,0.0352 -0.10017,0.0527 -0.17053,0.0527 -0.0518,0 -0.10277,-0.0103 -0.15244,-0.031 -0.0497,-0.0207 -0.094,-0.0485 -0.13333,-0.0837 l -0.15555,0.28525 c 0.0538,0.0476 0.12134,0.0847 0.20206,0.11162 0.0807,0.0269 0.16113,0.0408 0.24185,0.0408 0.0931,0 0.17818,-0.0144 0.25476,-0.0434 0.0786,-0.029 0.14928,-0.08 0.21136,-0.15244 0.0642,-0.0725 0.12189,-0.1709 0.17363,-0.29508 l 0.77618,-1.7911 h -0.37259 l -0.52451,1.22628 -0.52142,-1.22628 z m 12.63851,0 v 0.94671 c 0,0.16557 0.0299,0.3032 0.0899,0.41289 0.06,0.10762 0.14405,0.18856 0.25167,0.24237 0.10762,0.0518 0.23185,0.0775 0.37258,0.0775 0.12832,0 0.24585,-0.0279 0.35347,-0.0837 0.0714,-0.0385 0.13172,-0.088 0.18035,-0.14832 v 0.21033 h 0.36949 v -1.65778 h -0.38809 v 0.83819 c 0,0.10969 -0.0196,0.20144 -0.0589,0.27595 -0.0373,0.0745 -0.0903,0.1307 -0.15865,0.16795 -0.0662,0.0373 -0.14457,0.0558 -0.23564,0.0558 -0.12417,0 -0.22057,-0.0361 -0.28887,-0.10852 -0.0662,-0.0745 -0.0992,-0.18636 -0.0992,-0.33538 v -0.894 z m 5.52214,0.11369 -5.2e-4,5.1e-4 -5.1e-4,5.2e-4 -5.2e-4,5.2e-4 c -0.003,0.006 -0.009,0.0293 -0.016,0.0677 -0.01,0.0532 -0.0278,0.12114 -0.0398,0.1509 -0.0876,0.2196 -0.30151,0.38113 -0.53847,0.40617 l -0.0682,0.007 0.0827,0.0134 c 0.30684,0.0484 0.51826,0.25944 0.56482,0.56379 l 0.0134,0.0853 0.0129,-0.0863 c 0.0227,-0.15557 0.0803,-0.2728 0.18603,-0.3762 0.11067,-0.10825 0.21581,-0.15999 0.38034,-0.18759 0.0319,-0.006 0.0512,-0.01 0.0558,-0.0124 l 5.2e-4,-5.1e-4 h 5.2e-4 v -5.2e-4 -5.2e-4 h -5.2e-4 c -0.002,-4.8e-4 -0.005,-4.2e-4 -0.009,-0.002 -0.0734,-0.002 -0.18062,-0.0323 -0.26406,-0.0734 -0.11993,-0.0591 -0.22546,-0.16428 -0.28474,-0.28422 -0.0415,-0.0836 -0.0718,-0.19095 -0.0734,-0.26407 -1.5e-4,-0.003 -7.4e-4,-0.006 -0.001,-0.007 z m -8.72246,0.17776 c 0.0931,1e-5 0.17458,0.0206 0.24494,0.062 0.0724,0.0414 0.12914,0.0986 0.17053,0.17105 0.0293,0.0512 0.0482,0.10794 0.0558,0.17054 h -0.94361 c 0.008,-0.0622 0.0262,-0.11786 0.0532,-0.16744 0.0414,-0.0745 0.0971,-0.13275 0.16743,-0.17415 0.0724,-0.0414 0.15647,-0.062 0.25167,-0.062 z m -1.97456,0.0186 c 0.0931,0 0.17613,0.0211 0.24856,0.0625 0.0745,0.0414 0.13327,0.1012 0.17674,0.17984 0.0434,0.0766 0.0651,0.16885 0.0651,0.27647 0,0.10555 -0.0216,0.19782 -0.0651,0.27647 -0.0434,0.0786 -0.10222,0.13844 -0.17674,0.17983 -0.0724,0.0414 -0.15543,0.062 -0.24856,0.062 -0.0931,0 -0.17717,-0.0206 -0.25167,-0.062 -0.0745,-0.0414 -0.13326,-0.10118 -0.17673,-0.17983 -0.0434,-0.0786 -0.0651,-0.17092 -0.0651,-0.27647 0,-0.10762 0.0216,-0.1999 0.0651,-0.27647 0.0434,-0.0786 0.10221,-0.13844 0.17673,-0.17984 0.0745,-0.0414 0.15853,-0.0625 0.25167,-0.0625 z m 3.93309,0 c 0.0931,0 0.17664,0.0211 0.25115,0.0625 0.0745,0.0414 0.13275,0.1012 0.17415,0.17984 0.0434,0.0766 0.0656,0.16885 0.0656,0.27647 0,0.10555 -0.0221,0.19782 -0.0656,0.27647 -0.0414,0.0786 -0.0996,0.13844 -0.17415,0.17983 -0.0745,0.0414 -0.15905,0.062 -0.25425,0.062 -0.0931,0 -0.17716,-0.0206 -0.25166,-0.062 -0.0725,-0.0414 -0.13017,-0.10118 -0.17364,-0.17983 -0.0434,-0.0786 -0.0651,-0.17092 -0.0651,-0.27647 0,-0.10762 0.0215,-0.1999 0.0651,-0.27647 0.0434,-0.0786 0.1012,-0.13844 0.17364,-0.17984 0.0745,-0.0414 0.15955,-0.0625 0.25476,-0.0625 z m 12.72532,0.0506 v 0.001 c 0.0818,-6.7e-4 0.16301,0.0415 0.20619,0.12816 0.0609,0.12212 0.007,0.26644 -0.11834,0.31884 v -0.002 c -0.0417,0.018 -0.11658,0.0204 -0.16898,0.005 -0.0186,-0.006 -0.0541,-0.0303 -0.0786,-0.0548 -0.0735,-0.0738 -0.0928,-0.17698 -0.0486,-0.26459 0.044,-0.0872 0.12644,-0.1311 0.20825,-0.13177 z m -18.81952,0.58601 h 0.40101 v 0.19224 c -0.0331,0.0849 -0.0883,0.14929 -0.16485,0.19275 -0.0745,0.0434 -0.15956,0.0656 -0.25476,0.0656 -0.0994,0 -0.17667,-0.0211 -0.23255,-0.0625 -0.0559,-0.0414 -0.0837,-0.0971 -0.0837,-0.16743 0,-0.0621 0.0227,-0.11416 0.0682,-0.15555 0.0455,-0.0434 0.1342,-0.0646 0.26665,-0.0646 z m 18.7601,0.73329 c -0.003,0 -0.0379,0.0286 -0.078,0.0636 -0.0402,0.035 -0.0966,0.082 -0.12505,0.10439 l -0.0517,0.0408 0.03,0.0822 c 0.0402,0.10961 0.1041,0.36205 0.12506,0.49351 0.0239,0.14658 0.0316,0.50861 0.0155,0.66611 -0.11453,1.12445 -0.9205,2.05126 -2.02261,2.32699 -0.21512,0.0544 -0.33039,0.0661 -0.6258,0.0667 -0.2911,4.8e-4 -0.36839,-0.007 -0.59015,-0.0558 -0.56015,-0.12376 -1.08563,-0.44478 -1.46451,-0.89504 l -0.0718,-0.0858 -0.18914,-0.001 c -0.10393,-8e-4 -0.18912,0.002 -0.18913,0.007 0,2.6e-4 -3e-5,0.001 0,0.002 0.007,0.0398 0.21875,0.30627 0.3607,0.45217 0.43708,0.44924 0.98792,0.74227 1.60817,0.85627 0.0943,0.0174 0.26396,0.0348 0.40928,0.0439 l -5.2e-4,0.002 c 0.1114,0.006 0.13873,0.006 0.29559,-0.005 0.74928,-0.0486 1.41159,-0.34656 1.93528,-0.87024 0.41788,-0.41789 0.69167,-0.92405 0.81236,-1.49913 0.11617,-0.55354 0.0673,-1.16129 -0.13591,-1.6862 -0.0234,-0.0602 -0.0451,-0.10955 -0.0475,-0.10955 z m -4.65295,0.0605 -5.2e-4,5.2e-4 c -0.0295,0.003 -0.0628,0.0339 -0.26561,0.23667 -0.21924,0.219 -0.23668,0.23922 -0.23668,0.27234 0,0.0336 0.0278,0.0635 0.45578,0.49041 0.25064,0.25001 0.46174,0.45752 0.47078,0.45992 0.008,0.003 0.0216,0.006 0.03,0.006 0.008,4.4e-4 0.10245,-0.0863 0.20929,-0.19275 0.16376,-0.16308 0.19915,-0.19379 0.22427,-0.19379 0.0252,0 0.0604,0.0307 0.22428,0.19379 0.14469,0.14413 0.20087,0.19327 0.21911,0.19327 0.0189,0 0.13239,-0.10737 0.48576,-0.46044 0.43267,-0.43236 0.46095,-0.46309 0.46095,-0.49661 0,-0.033 -0.0184,-0.0534 -0.23719,-0.27233 -0.21675,-0.21684 -0.23895,-0.23668 -0.27079,-0.23668 -0.0317,0 -0.0534,0.0177 -0.23048,0.19327 -0.11285,0.11189 -0.20346,0.19327 -0.21394,0.19327 -0.011,0 -0.1008,-0.0811 -0.21342,-0.19327 -0.16374,-0.16308 -0.19924,-0.19327 -0.22428,-0.19327 -0.0252,0 -0.0604,0.0302 -0.22427,0.19327 -0.11271,0.11215 -0.20295,0.19327 -0.21343,0.19327 -0.011,0 -0.10115,-0.0814 -0.21394,-0.19327 -0.17676,-0.17524 -0.19852,-0.19327 -0.22996,-0.19327 -0.002,0 -0.004,-2e-4 -0.006,0 z m 0.006,0.1695 0.1633,0.16226 c 0.0898,0.0892 0.1633,0.16905 0.1633,0.17777 0,0.009 -0.0701,0.0857 -0.15555,0.17105 -0.0855,0.0853 -0.16265,0.15503 -0.17105,0.15503 -0.008,0 -0.0882,-0.0732 -0.17776,-0.16278 l -0.16278,-0.16278 0.17053,-0.17054 z m 1.7632,0 0.1695,0.17001 0.17053,0.17002 -0.16278,0.1633 c -0.0895,0.0896 -0.16924,0.16278 -0.17828,0.16278 h -5.2e-4 c -0.0281,-0.009 -0.31593,-0.29685 -0.32504,-0.32505 v -5.1e-4 -5.2e-4 -5.2e-4 c 0,-0.009 0.0734,-0.0886 0.1633,-0.17776 z m -0.8816,0.004 0.16795,0.16795 0.16795,0.16847 -0.1633,0.16278 c -0.0896,0.0897 -0.1662,0.16278 -0.1726,0.16278 -0.006,0 -0.0836,-0.0732 -0.17311,-0.16278 l -0.16278,-0.1633 0.16795,-0.16795 z m -14.94999,0.36742 v 0.39533 h -0.39946 v 0.22582 h 0.39946 v 0.39481 h 0.24185 v -0.39481 h 0.39894 v -0.22582 h -0.39894 v -0.39533 z m 14.51229,0.0806 c 0.006,0 0.083,0.0737 0.1726,0.16329 l 0.16278,0.16279 -0.16743,0.16794 c -0.0922,0.0924 -0.17123,0.16795 -0.17363,0.16795 -0.0101,0 -0.32556,-0.32108 -0.32556,-0.33124 0,-0.0133 0.31748,-0.33073 0.33124,-0.33073 z m 0.87489,0 c 0.0137,0 0.33124,0.31756 0.33124,0.33124 0,0.006 -0.072,0.0824 -0.16019,0.17054 -0.0883,0.0881 -0.16297,0.16019 -0.16537,0.16019 -0.003,0 -0.081,-0.0757 -0.17312,-0.16795 l -0.16743,-0.16743 0.16227,-0.1633 c 0.0892,-0.0898 0.1662,-0.16329 0.1726,-0.16329 z m 1.55184,0.51935 c -0.0367,4.9e-4 -0.95601,0.92081 -0.95601,0.95704 0,0.0184 0.0521,0.0767 0.20618,0.23151 l 0.20568,0.20671 -0.19999,0.20102 c -0.10998,0.11054 -0.20379,0.21144 -0.20619,0.22376 -0.003,0.0127 1.4e-4,0.0344 0.009,0.0506 0.0167,0.0315 0.43684,0.45197 0.46974,0.47026 0.011,0.006 0.0295,0.0112 0.0398,0.0114 0.0133,2.1e-4 0.17818,-0.15751 0.48163,-0.46096 0.42874,-0.42875 0.46095,-0.46309 0.46095,-0.49557 0,-0.0318 -0.0187,-0.0536 -0.20412,-0.23978 l -0.20309,-0.20412 0.20309,-0.20361 c 0.17514,-0.17517 0.20412,-0.20745 0.20412,-0.23409 0,-0.0268 -0.0328,-0.0634 -0.24288,-0.27286 -0.18211,-0.18164 -0.24683,-0.23956 -0.26717,-0.24132 z m -0.004,0.18345 c 0.0137,0 0.33125,0.31705 0.33125,0.33073 0,0.006 -0.0724,0.0829 -0.16072,0.17104 -0.0883,0.0881 -0.16296,0.15969 -0.16536,0.15969 -0.003,0 -0.0805,-0.0752 -0.1726,-0.16744 l -0.16743,-0.16743 0.16226,-0.1633 c 0.0893,-0.0898 0.1662,-0.16329 0.1726,-0.16329 z m -20.72173,0.23254 c -0.19041,0 -0.33732,0.0526 -0.4408,0.15813 -0.10141,0.10348 -0.15193,0.24266 -0.15193,0.41651 v 0.10542 h -0.27337 v 0.31058 h 0.27337 v 1.3348 h 0.38757 v -1.3348 h 0.44442 v -0.31058 h -0.45682 v -0.0992 c 0,-0.089 0.0206,-0.15548 0.062,-0.19895 0.0414,-0.0455 0.10325,-0.0682 0.18397,-0.0682 0.0393,0 0.077,0.006 0.11421,0.0186 0.0373,0.0103 0.0707,0.0268 0.0997,0.0496 l 0.10542,-0.29197 c -0.0414,-0.031 -0.0929,-0.0537 -0.15503,-0.0682 -0.06,-0.0145 -0.12445,-0.0217 -0.19275,-0.0217 z m 20.28507,0.20516 c 0.0129,0 0.33021,0.31828 0.33021,0.33124 0,0.006 -0.0724,0.0824 -0.16071,0.17053 -0.0883,0.0881 -0.16414,0.1602 -0.17054,0.1602 -0.0134,0 -0.33073,-0.31772 -0.33073,-0.33124 0,-0.013 0.31801,-0.33073 0.33177,-0.33073 z m -22.1816,0.4439 c -0.13246,0 -0.2608,0.0176 -0.38498,0.0527 -0.12211,0.0331 -0.22778,0.0836 -0.31678,0.15193 l 0.15244,0.28267 c 0.0621,-0.0518 0.13736,-0.092 0.22635,-0.12093 0.0911,-0.029 0.18281,-0.0434 0.27595,-0.0434 0.13866,0 0.24227,0.032 0.31057,0.0961 0.0683,0.0621 0.10284,0.14973 0.10284,0.26355 v 0.0248 h -0.4284 c -0.16764,0 -0.3027,0.0221 -0.40411,0.0656 -0.10141,0.0434 -0.17461,0.10223 -0.22014,0.17673 -0.0434,0.0745 -0.0656,0.15852 -0.0656,0.25166 0,0.0952 0.0252,0.18078 0.0749,0.25735 0.0518,0.0745 0.1239,0.13327 0.21704,0.17674 0.0931,0.0414 0.2019,0.062 0.32608,0.062 0.14694,0 0.26808,-0.0268 0.36329,-0.0806 0.067,-0.037 0.1196,-0.0844 0.15813,-0.14211 v 0.20154 h 0.3669 v -0.97203 c 0,-0.24008 -0.0665,-0.41689 -0.19895,-0.53072 -0.13038,-0.1159 -0.31545,-0.17363 -0.55553,-0.17363 z m 3.09181,0 c -0.16556,0 -0.31351,0.0361 -0.4439,0.10852 -0.12832,0.0724 -0.22987,0.17296 -0.30438,0.30127 -0.0724,0.12625 -0.10852,0.27213 -0.10852,0.4377 0,0.1635 0.0371,0.30938 0.11162,0.4377 0.0766,0.12832 0.18329,0.22986 0.31988,0.30437 0.13868,0.0724 0.30001,0.10852 0.48421,0.10852 0.14488,0 0.27323,-0.0226 0.38499,-0.0682 0.11383,-0.0476 0.20817,-0.11512 0.28267,-0.20205 l -0.20826,-0.23875 c -0.0579,0.0621 -0.12394,0.10746 -0.19844,0.13643 -0.0745,0.029 -0.15852,0.0434 -0.25166,0.0434 -0.10762,0 -0.20299,-0.0206 -0.28577,-0.062 -0.0828,-0.0414 -0.14671,-0.10068 -0.19224,-0.17725 -0.0287,-0.0482 -0.0483,-0.10083 -0.0589,-0.15813 h 1.3007 c 0.002,-0.0186 0.003,-0.0382 0.003,-0.0589 0.002,-0.0207 0.003,-0.0393 0.003,-0.0558 0,-0.17385 -0.0361,-0.32488 -0.10852,-0.4532 -0.0724,-0.12832 -0.17193,-0.2278 -0.29818,-0.29817 -0.12625,-0.0704 -0.27005,-0.10542 -0.43149,-0.10542 z m 2.16989,0 c -0.15936,0 -0.29287,0.0289 -0.40049,0.0868 -0.0786,0.0432 -0.14153,0.10164 -0.18914,0.17467 v -0.24288 h -0.36949 v 1.65778 h 0.38809 v -0.80409 c 0,-0.16971 0.0433,-0.29702 0.13023,-0.38188 0.0869,-0.0869 0.20394,-0.13023 0.35088,-0.13023 0.0145,0 0.029,4.9e-4 0.0434,0.003 0.0145,0 0.03,0.002 0.0465,0.006 z m 1.6614,0 c -0.14901,0 -0.27892,0.022 -0.38861,0.0656 -0.10762,0.0414 -0.19113,0.10066 -0.25115,0.17931 -0.06,0.0766 -0.0899,0.16782 -0.0899,0.27337 0,0.0952 0.0186,0.17201 0.0558,0.22996 0.0373,0.0579 0.0857,0.10435 0.14572,0.13953 0.06,0.0331 0.12653,0.0589 0.19896,0.0775 0.0745,0.0166 0.1477,0.03 0.22014,0.0403 0.0745,0.0103 0.14203,0.0216 0.20205,0.0341 0.06,0.0124 0.10847,0.031 0.14573,0.0558 0.0373,0.0228 0.0558,0.0563 0.0558,0.1018 0,0.0559 -0.0278,0.10072 -0.0837,0.13384 -0.0538,0.0331 -0.14196,0.0501 -0.26407,0.0501 -0.10348,0 -0.20709,-0.016 -0.31058,-0.047 -0.10348,-0.031 -0.19214,-0.0702 -0.26665,-0.11782 l -0.14882,0.29507 c 0.0745,0.0518 0.1745,0.0961 0.30075,0.13333 0.12832,0.0352 0.26182,0.0527 0.40049,0.0527 0.15522,0 0.28874,-0.0206 0.4005,-0.062 0.11176,-0.0434 0.19783,-0.10326 0.25786,-0.17984 0.0621,-0.0766 0.093,-0.1673 0.093,-0.27078 0,-0.0931 -0.0186,-0.16839 -0.0558,-0.22635 -0.0373,-0.0579 -0.0872,-0.10228 -0.14935,-0.13332 -0.06,-0.0331 -0.126,-0.0584 -0.19843,-0.077 -0.0724,-0.0186 -0.14564,-0.032 -0.22014,-0.0403 -0.0724,-0.0103 -0.13894,-0.0227 -0.19896,-0.0372 -0.06,-0.0145 -0.10848,-0.0345 -0.14573,-0.0594 -0.0373,-0.0248 -0.0558,-0.0619 -0.0558,-0.11162 0,-0.0538 0.0278,-0.0982 0.0837,-0.13333 0.0579,-0.0352 0.14558,-0.0527 0.26355,-0.0527 0.0786,0 0.15751,0.009 0.23616,0.0279 0.0807,0.0166 0.16011,0.0485 0.23875,0.0961 l 0.14882,-0.29508 c -0.0745,-0.0455 -0.16832,-0.0806 -0.28215,-0.10542 -0.11383,-0.0248 -0.2262,-0.0372 -0.33796,-0.0372 z m 1.92753,0 c -0.14074,0 -0.266,0.031 -0.37569,0.093 -0.0662,0.0362 -0.12399,0.084 -0.17363,0.14366 v -0.21807 h -0.36949 v 2.26033 h 0.38809 v -0.8046 c 0.0472,0.053 0.10083,0.0966 0.16123,0.13074 0.11176,0.0621 0.23496,0.0925 0.36949,0.0925 0.1635,0 0.30732,-0.035 0.4315,-0.10542 0.12625,-0.0704 0.22573,-0.16831 0.29817,-0.29456 0.0745,-0.12831 0.11162,-0.27832 0.11162,-0.4501 0,-0.17178 -0.0371,-0.32075 -0.11162,-0.447 -0.0725,-0.12625 -0.17192,-0.2247 -0.29817,-0.29507 -0.12418,-0.0704 -0.268,-0.10542 -0.4315,-0.10542 z m 1.82211,0 c -0.13246,0 -0.26029,0.0176 -0.38447,0.0527 -0.1221,0.0331 -0.22779,0.0836 -0.31678,0.15193 l 0.15193,0.28267 c 0.0621,-0.0518 0.13786,-0.092 0.22686,-0.12093 0.091,-0.029 0.18282,-0.0434 0.27595,-0.0434 0.13867,0 0.24227,0.032 0.31057,0.0961 0.0683,0.0621 0.10232,0.14973 0.10232,0.26355 v 0.0248 h -0.42839 c -0.16764,0 -0.30219,0.0221 -0.4036,0.0656 -0.10141,0.0434 -0.17512,0.10223 -0.22065,0.17673 -0.0434,0.0745 -0.0646,0.15852 -0.0646,0.25166 0,0.0952 0.0247,0.18078 0.0744,0.25735 0.0518,0.0745 0.12391,0.13327 0.21704,0.17674 0.0931,0.0414 0.2019,0.062 0.32608,0.062 0.14694,0 0.26809,-0.0268 0.36329,-0.0806 0.067,-0.037 0.12012,-0.0844 0.15865,-0.14211 v 0.20154 h 0.36586 v -0.97203 c 0,-0.24008 -0.066,-0.41689 -0.19843,-0.53072 -0.13039,-0.1159 -0.31596,-0.17363 -0.55604,-0.17363 z m 2.01486,0 c -0.17385,0 -0.329,0.0361 -0.4656,0.10852 -0.13452,0.0724 -0.2402,0.17296 -0.31678,0.30127 -0.0766,0.12625 -0.11472,0.27213 -0.11472,0.4377 0,0.1635 0.0381,0.30938 0.11472,0.4377 0.0766,0.12832 0.18226,0.22986 0.31678,0.30437 0.1366,0.0724 0.29175,0.10852 0.4656,0.10852 0.16143,0 0.3032,-0.033 0.4253,-0.0992 0.12418,-0.0683 0.21851,-0.16469 0.28267,-0.28888 l -0.29817,-0.17415 c -0.0497,0.0786 -0.1105,0.1369 -0.18294,0.17415 -0.0704,0.0373 -0.14717,0.0558 -0.22996,0.0558 -0.0952,0 -0.18077,-0.0206 -0.25735,-0.062 -0.0766,-0.0414 -0.13688,-0.10016 -0.18035,-0.17673 -0.0434,-0.0786 -0.0651,-0.17195 -0.0651,-0.27957 0,-0.10762 0.0216,-0.19937 0.0651,-0.27595 0.0434,-0.0786 0.10378,-0.13895 0.18035,-0.18035 0.0766,-0.0414 0.16215,-0.062 0.25735,-0.062 0.0828,0 0.15959,0.0186 0.22996,0.0558 0.0724,0.0373 0.13327,0.0955 0.18294,0.17415 l 0.29817,-0.17415 c -0.0642,-0.12624 -0.15849,-0.22161 -0.28267,-0.28577 -0.1221,-0.0662 -0.26387,-0.0992 -0.4253,-0.0992 z m 1.7384,0 c -0.16536,7e-5 -0.31366,0.0362 -0.4439,0.10852 -0.12832,0.0724 -0.22936,0.17296 -0.30386,0.30127 -0.0725,0.12625 -0.10904,0.27213 -0.10904,0.4377 0,0.1635 0.0371,0.30938 0.11162,0.4377 0.0766,0.12832 0.18329,0.22986 0.31988,0.30437 0.13866,0.0724 0.30002,0.10852 0.48421,0.10852 0.14487,0 0.27323,-0.0226 0.38499,-0.0682 0.11383,-0.0476 0.20815,-0.11512 0.28267,-0.20205 l -0.20774,-0.23875 c -0.0579,0.0621 -0.12446,0.10746 -0.19896,0.13643 -0.0745,0.029 -0.15801,0.0434 -0.25114,0.0434 -0.10762,0 -0.20298,-0.0206 -0.28577,-0.062 -0.0828,-0.0414 -0.14722,-0.10068 -0.19276,-0.17725 -0.0287,-0.0482 -0.0483,-0.10083 -0.0589,-0.15813 h 1.3007 c 0.002,-0.0186 0.003,-0.0382 0.003,-0.0589 0.002,-0.0207 0.003,-0.0393 0.003,-0.0558 0,-0.17385 -0.0366,-0.32488 -0.10904,-0.4532 -0.0724,-0.12832 -0.1714,-0.2278 -0.29765,-0.29817 -0.12611,-0.0703 -0.26977,-0.10535 -0.43099,-0.10542 z m 8.19743,0.004 h 5.2e-4 5.1e-4 c 0.0282,0.009 0.31594,0.29737 0.32505,0.32556 v 5.2e-4 5.2e-4 c 0,0.009 -0.0721,0.0872 -0.16072,0.17518 -0.0886,0.088 -0.16348,0.1602 -0.16588,0.1602 -0.002,0 -0.0803,-0.0755 -0.1726,-0.16795 l -0.16743,-0.16847 0.16278,-0.16278 c 0.0895,-0.0897 0.16873,-0.16278 0.17777,-0.16278 z m -26.28057,0.0145 0.60875,1.65778 h 0.37207 l 0.43615,-1.14257 0.42685,1.14257 h 0.37259 l 0.61184,-1.65778 h -0.34468 l -0.45113,1.22835 -0.44597,-1.22835 h -0.32608 l -0.45733,1.22473 -0.43667,-1.22473 z m 28.5409,0.2806 -5.2e-4,5.2e-4 h -5.2e-4 v 5.2e-4 h -5.1e-4 -5.2e-4 v 5.1e-4 5.2e-4 c -0.004,0.007 -0.009,0.0297 -0.0114,0.0553 -0.0169,0.16329 -0.16306,0.31081 -0.34106,0.34417 l -0.0682,0.0129 0.0661,0.0119 c 0.0362,0.006 0.091,0.0242 0.12196,0.0393 0.10995,0.0536 0.20689,0.18354 0.22065,0.29559 0.003,0.0267 0.01,0.0558 0.0119,0.0641 h 5.2e-4 v 5.1e-4 l 5.1e-4,5.2e-4 h 5.2e-4 v 5.2e-4 h 5.2e-4 5.1e-4 l 5.2e-4,-5.2e-4 h 5.2e-4 c 0.003,-0.005 0.008,-0.0229 0.0109,-0.047 0.0243,-0.17562 0.16789,-0.32206 0.34778,-0.35398 l 0.0631,-0.0103 -0.0703,-0.0145 c -0.0386,-0.008 -0.093,-0.0261 -0.12093,-0.0403 -0.10876,-0.0551 -0.20431,-0.18906 -0.21807,-0.30748 -0.003,-0.0252 -0.008,-0.0463 -0.0119,-0.0512 l -5.1e-4,-5.1e-4 -5.2e-4,-5.2e-4 h -5.2e-4 v -5.2e-4 z m -21.79195,0.0114 c 0.0931,0 0.17458,0.0206 0.24494,0.062 0.0724,0.0414 0.12966,0.0981 0.17105,0.17054 0.0293,0.0512 0.0477,0.10843 0.0553,0.17104 h -0.94361 c 0.008,-0.0622 0.0263,-0.11836 0.0532,-0.16794 0.0414,-0.0745 0.0976,-0.13225 0.16795,-0.17364 0.0725,-0.0414 0.15595,-0.062 0.25115,-0.062 z m 11.3347,0 c 0.0931,1e-5 0.17459,0.0206 0.24495,0.062 0.0725,0.0414 0.12914,0.0981 0.17053,0.17054 0.0293,0.0512 0.0477,0.10843 0.0553,0.17104 h -0.94362 c 0.008,-0.0622 0.0267,-0.11836 0.0537,-0.16794 0.0414,-0.0745 0.0971,-0.13225 0.16743,-0.17364 0.0725,-0.0414 0.15648,-0.062 0.25166,-0.062 z m -5.61929,0.0186 c 0.0931,0 0.17561,0.0206 0.24805,0.062 0.0745,0.0414 0.13379,0.1017 0.17725,0.18035 0.0434,0.0766 0.0651,0.16832 0.0651,0.27595 0,0.10554 -0.0216,0.19731 -0.0651,0.27595 -0.0434,0.0786 -0.10275,0.13895 -0.17725,0.18035 -0.0725,0.0414 -0.15491,0.062 -0.24805,0.062 -0.0931,0 -0.17716,-0.0206 -0.25167,-0.062 -0.0745,-0.0414 -0.1338,-0.1017 -0.17725,-0.18035 -0.0434,-0.0786 -0.0646,-0.17041 -0.0646,-0.27595 0,-0.10763 0.0211,-0.19938 0.0646,-0.27595 0.0434,-0.0786 0.10275,-0.13896 0.17725,-0.18035 0.0745,-0.0414 0.15853,-0.062 0.25167,-0.062 z m 13.37386,0.11265 c 0.0133,0 0.33073,0.31789 0.33073,0.33125 0,0.006 -0.0724,0.0824 -0.16071,0.17053 -0.0883,0.0881 -0.16414,0.1602 -0.17054,0.1602 -0.0133,0 -0.33073,-0.31789 -0.33073,-0.33125 0,-0.0133 0.31749,-0.33073 0.33125,-0.33073 z m -22.2157,0.52348 h 0.40101 v 0.19276 c -0.0331,0.0849 -0.0883,0.14876 -0.16485,0.19223 -0.0745,0.0434 -0.15956,0.0651 -0.25476,0.0651 -0.0993,0 -0.17667,-0.0206 -0.23255,-0.062 -0.0559,-0.0414 -0.0837,-0.0976 -0.0837,-0.16795 0,-0.0621 0.0227,-0.11364 0.0682,-0.15503 0.0455,-0.0434 0.1342,-0.0651 0.26665,-0.0651 z m 10.67325,0 h 0.40049 v 0.19276 c -0.0331,0.0849 -0.0878,0.14876 -0.16433,0.19223 -0.0745,0.0434 -0.15955,0.0651 -0.25476,0.0651 -0.0993,0 -0.17667,-0.0206 -0.23255,-0.062 -0.0559,-0.0414 -0.0842,-0.0976 -0.0842,-0.16795 0,-0.0621 0.0227,-0.11364 0.0682,-0.15503 0.0455,-0.0434 0.13472,-0.0651 0.26717,-0.0651 z m -4.93871,0.21756 c -0.0704,0 -0.13069,0.0237 -0.18036,0.0713 -0.0497,0.0455 -0.0744,0.10739 -0.0744,0.18604 0,0.0745 0.0247,0.13688 0.0744,0.18655 0.0497,0.0476 0.10999,0.0713 0.18036,0.0713 0.0704,0 0.13016,-0.0237 0.17983,-0.0713 0.0497,-0.0497 0.0749,-0.11205 0.0749,-0.18655 0,-0.0786 -0.0252,-0.14051 -0.0749,-0.18604 -0.0497,-0.0476 -0.10946,-0.0713 -0.17983,-0.0713 z" />
  </g>
</svg>
